<mxfile host="Electron" agent="Mozilla/5.0 (Macintosh; Intel Mac OS X 10_15_7) AppleWebKit/537.36 (KHTML, like Gecko) draw.io/24.7.17 Chrome/128.0.6613.36 Electron/32.0.1 Safari/537.36" version="24.7.17">
  <diagram name="Page-1" id="jsFVv7b5t7zRmcg1DOgK">
    <mxGraphModel dx="2074" dy="854" grid="1" gridSize="10" guides="1" tooltips="1" connect="1" arrows="1" fold="1" page="1" pageScale="1" pageWidth="827" pageHeight="1169" math="0" shadow="0">
      <root>
        <mxCell id="0" />
        <mxCell id="akDgEPqX-OIN3_G8ha6D-1" value="NUMA X Image" style="" parent="0" />
        <mxCell id="akDgEPqX-OIN3_G8ha6D-2" value="" style="shape=image;verticalLabelPosition=bottom;labelBackgroundColor=default;verticalAlign=top;aspect=fixed;imageAspect=0;image=data:image/jpeg,/9j/4Q/+RXhpZgAATU0AKgAAAAgABgESAAMAAAABAAEAAAEaAAUAAAABAAAAVgEbAAUAAAABAAAAXgEoAAMAAAABAAIAAAITAAMAAAABAAEAAIdpAAQAAAABAAAAZgAAAAAAAABIAAAAAQAAAEgAAAABAAeQAAAHAAAABDAyMjGRAQAHAAAABAECAwCgAAAHAAAABDAxMDCgAQADAAAAAQABAACgAgAEAAAAAQAABFqgAwAEAAAAAQAAALOkBgADAAAAAQAAAAAAAAAAAAAAAAAAAAAAAAAAAAAAAAAAAAAAAAAAAAAAAAAAAAAAAAAAAAAAAAAAAAAAAAAAAAAAAAAAAAAAAAAAAAAAAAAAAAAAAAAAAAAAAAAAAAAAAAAAAAAAAAAAAAAAAAAAAAAAAAAAAAAAAAAAAAAAAAAAAAAAAAAAAAAAAAAAAAAAAAAAAAAAAAAAAAAAAAAAAAAAAAAAAAAAAAAAAAAAAAAAAAAAAAAAAAAAAAAAAAAAAAAAAAAAAAAAAAAAAAAAAAAAAAAAAAAAAAAAAAAAAAAAAAAAAAAAAAAAAAAAAAAAAAAAAAAAAAAAAAAAAAAAAAAAAAAAAAAAAAAAAAAAAAAAAAAAAAAAAAAAAAAAAAAAAAAAAAAAAAAAAAAAAAAAAAAAAAAAAAAAAAAAAAAAAAAAAAAAAAAAAAAAAAAAAAAAAAAAAAAAAAAAAAAAAAAAAAAAAAAAAAAAAAAAAAAAAAAAAAAAAAAAAAAAAAAAAAAAAAAAAAAAAAAAAAAAAAAAAAAAAAAAAAAAAAAAAAAAAAAAAAAAAAAAAAAAAAAAAAAAAAAAAAAAAAAAAAAAAAAAAAAAAAAAAAAAAAAAAAAAAAAAAAAAAAAAAAAAAAAAAAAAAAAAAAAAAAAAAAAAAAAAAAAAAAAAAAAAAAAAAAAAAAAAAAAAAAAAAAAAAAAAAAAAAAAAAAAAAAAAAAAAAAAAAAAAAAAAAAAAAAAAAAAAAAAAAAAAAAAAAAAAAAAAAAAAAAAAAAAAAAAAAAAAAAAAAAAAAAAAAAAAAAAAAAAAAAAAAAAAAAAAAAAAAAAAAAAAAAAAAAAAAAAAAAAAAAAAAAAAAAAAAAAAAAAAAAAAAAAAAAAAAAAAAAAAAAAAAAAAAAAAAAAAAAAAAAAAAAAAAAAAAAAAAAAAAAAAAAAAAAAAAAAAAAAAAAAAAAAAAAAAAAAAAAAAAAAAAAAAAAAAAAAAAAAAAAAAAAAAAAAAAAAAAAAAAAAAAAAAAAAAAAAAAAAAAAAAAAAAAAAAAAAAAAAAAAAAAAAAAAAAAAAAAAAAAAAAAAAAAAAAAAAAAAAAAAAAAAAAAAAAAAAAAAAAAAAAAAAAAAAAAAAAAAAAAAAAAAAAAAAAAAAAAAAAAAAAAAAAAAAAAAAAAAAAAAAAAAAAAAAAAAAAAAAAAAAAAAAAAAAAAAAAAAAAAAAAAAAAAAAAAAAAAAAAAAAAAAAAAAAAAAAAAAAAAAAAAAAAAAAAAAAAAAAAAAAAAAAAAAAAAAAAAAAAAAAAAAAAAAAAAAAAAAAAAAAAAAAAAAAAAAAAAAAAAAAAAAAAAAAAAAAAAAAAAAAAAAAAAAAAAAAAAAAAAAAAAAAAAAAAAAAAAAAAAAAAAAAAAAAAAAAAAAAAAAAAAAAAAAAAAAAAAAAAAAAAAAAAAAAAAAAAAAAAAAAAAAAAAAAAAAAAAAAAAAAAAAAAAAAAAAAAAAAAAAAAAAAAAAAAAAAAAAAAAAAAAAAAAAAAAAAAAAAAAAAAAAAAAAAAAAAAAAAAAAAAAAAAAAAAAAAAAAAAAAAAAAAAAAAAAAAAAAAAAAAAAAAAAAAAAAAAAAAAAAAAAAAAAAAAAAAAAAAAAAAAAAAAAAAAAAAAAAAAAAAAAAAAAAAAAAAAAAAAAAAAAAAAAAAAAAAAAAAAAAAAAAAAAAAAAAAAAAAAAAAAAAAAAAAAAAAAAAAAAAAAAAAAAAAAAAAAAAAAAAAAAAAAAAAAAAAAAAAAAAAAAAAAAAAAAAAAAAAAAAAAAAAAAAAAAAAAAAAAAAAAAAAAAAAAAAAAAAAAAAAAAAAAAAAAAAAAAAAAAAAAAAAAAAAAAAAAAAAAAAAAAAAAAAAAAAAAAAAAAAAAAAAAAAAAAAAAAAAAAAAAAAAAAAAAAAAAAAAAAAAAAAAAAAAAAAAAAAAAAAAAAAAAAAAAAAAAAAAAAAAAAAAAAAAAAAAAAAAAAAAAAAAAAAAAAAAAAAAAAAAAAAAAAAAAAAAAAAAAAAAAAAAAAAAAAAAAAAAAAAAAAAAAAAAAAAAAAAAAAAAAAAAAAAAAAAAAAAAAAAAAAAAAAAAAAAAAAAAAAAAAAAAAAAAAAAAAAAAAAAAAAAAAAAAAAAAAAAAAAAAAAAAAAAAAAAAAAAAAAAAAAAAAAAAAAAAAAAAAAAAAAAAAAAAAAAAAAAAAAAAAAAAAAAAAAAAAAAAAAAAAAAAAAAAAAAAAAAAAAAAAAAAAAAAAAAAAAAAAAAAAAAAAAAAAAAAAAAAAAAAAAAAAAAAAAAAAAAAAAAAAAAAAAAAAAAAAAAAAAAAAAAAAAAAAAAAAAAAAAAAAAAAAAAAAAAAAAAAAAAAAAAAAAAAAAAAAAAAAAAAAAAAAAAAAAAAAAAAAAAAAAAAAAAAAAAAAAAAAAAAAAAAAAAAAAAAAAAAAAAAAAAAAAAAAAAAAAAAAAAAAAAAAAAAAAAAAAAAAAAAAAAAAAAAAAAAAAAAAAAAAAAAAAAAAAAAAAAAAAAAAAAAAAAAAAAAAAAAAAAAAAAAAAAAAAAAAAAAAAAAAAAAAAAAAAAAAAAAAAAAAAAAAAAAAAAAAAAAAAAAAAAAAAAAAAAAAAAAAAAAAAAAAAAAAAAAAAAAAAAAAAAAAAAAAAAAAAAAAAAAAAAAAAAAAAAAAAAAAAAAAAAAAAAAAAAAAAAAAAAAAAAAAAAAAAAAAAAAAAAAAAAAAAAAAAAAAAAAAAAAAAAAAAAAAAAAAAAAAAAAAAAAAAAAAAAAAAAAAAAAAAAAAAAAAAAAAAAAAAAAAAAAAAAAAAAAAAAAAAAAAAAAAAAAAAAAAAAAAAAAAAAAAAAAAAAAAAAAAAAAAAAAAAAAAAAAAAAAAAAAAAAAAAAAAAAAAAAAAAAAAAAAAAAAAAAAAAAAAAAAAAAAAAAAAAAAAAAAAAAAAAAAAAAAAAAAAAAAAAAAAAAAAAAAAAAAAAAAAAAAAAAAAAAAAAAAAAAAAAAAAAAAAAAAAAAAAAAAAAAAAAAAAAAAAAAAAAAAAAAAAAAAAAAAAAAAAAAAAAAAAAAAAAAAAAAAAAAAAAAAAAAAAAAAAAAAAAAAAAAAAAAAAAAAAAAAAAAAAAAAAAAAAAAAAAAAAAAAAAAAAAAAAAAAAAAAAAAAAAAAAAAAAAAAAAAAAAAAAAAAAAAAAAAAAAAAAAAAAAAAAAAAAAAAAAAAAAAAAAAAAAAAAAAAAAAAAAAAAAAAAAAAAAAAAAAAAAAAAAAAAAAAAAAAAAAAAAAAAAAAAAAAAAAAAAAAAAAAAAAAAAAAAAAAAAAAAAAAAAAAAAAAAAAAAAAAAAAAAAAAAAAAAAAAAAAAAAAAAAAAAAAAAAAAAAAAAAAAAAAAAAAAAAAAAAAAAAAAAAAAAAAAAAAAAAAAAAAAAAAAAAAAAAAAAAAAAAAAAAAAAAAAAAAAAAAAAAAAAAAAAAAAAAAAAAAAAAAAAAAAAAAAAAAAAAAAAAAAAAAAAAAAAAAAAAAAAAAAAAAAAAAAAAAAAAAAAAAAAAAAAAAAAAAAAAAAAAAAAAAAAAAAAAAAAAAAAAAAAAAAAAAAAAAAAAAAAAAAAAAAAAAAAAAAAAAAAAAAAAAAAAAAAAAAAAAAAAAAAAAAAAAAAAAAAAAAAAAAAAAAAAAAAAAAAAAAAAAAAAAAAAAAAAAAAAAAAAAAAAAAAAAAAAAAAAAAAAAAAAAAAAAAAAAAAAAAAAAAAAAAAAAAAAAAAAAAAAAAAAAAAAAAAAAAAAAAAAAAAAAAAAAAAAAAAAAAAAAAAAAAAAAAAAAAAAAAAAAAAAAAAAAAAAAAAAAAAAAAAAAAAAAAAAAAAAAAAAAAAAAAAAAAAAAAAAAAAAAAAAAAAAAAAAAAAAAAAAAAAAAAAAAAAAAAAAAAAAAAAAAAAAAAAAAAAAAAAAAAAAAAAAAAAAAAAAAAAAAAAAAAAAAAAAAAAAAAAAAAAAAAAAAAAAAAAAAAAAAAAAAAAAAAAAAAAAAAAAAAAAAAAAAAAAAAAAAAAAAAAAAAAAAAAAAAAAAAAAAAAAAAAAAAAAAAAAAAAAAAAAAAAAAAAAAAAAAAAAAAAAAAAAAAAAAAAAAAAAAAAAAAAAAAAAAAAAAAAAAAAAAAAAAAAAAAAAAAAAAAAAAAAAAAAAAAAAAAAAAAAAAAAAAAAAAAAAAAAAAAAAAAAAAAAAAAAAAAAAAAAAAAAAAAAAAAAAAAAAAAAAAAAAAAAAAAAAAAAAAAAAAAAAAAAAAAAAAAAAAAAAAAAAAAAAAAAAAAAAAAAAAAAAAAAAAAAAAAAAAAAAAAAAAAAAAAAAAAAAAAAAAAAAAAAAAAAAAAAAAAAAAAAAAAAAAAAAAAAAAAAAAAAAAAAAAAAAAAAAAAAAAAAAAAAAAAAAAAAAAAAAAAAAAAAAAAAAAAAAAAAAAAAAAAAAAAAAAAAAAAAAAAAAAAAAAAAAAAAAAAAAAAAAAAAAAAAAAAAAAAAAAAAAAAAAAAAAAAAAAAAAAAAAAAAAAAAAAAAAAAAAAAAAAAAAAAAAAAAAAAAAAAAAAAAAAAAAAAAAAAAAAAAAAAAAAAAAAAAAAAAAAAAAAAAAAAAAAAAAAAAAAAAAAAAAAAAAAAAAAAAAAAAAAAAAAAAAAAAAAAAAAAAAAAAAAAAAAAAAAAAAAAAAAAAAAAAAAAAAAAAAAAAAAAAAAAAAAAAAAAAAAAAAAAAAAAAAAAAAAAAAAAAAAAAAAAAAAAAAAAAAAAAAAAAAAAAAAAAAAAAAAAAAAAAAAAAAAAAAAAAAAAAAAAAAAAAAAAAAAAAAAAAAAAAAAAAAAAAAAAAAAAAAAAAAAAAAAAAAAAAAAAAAAAAAAAAAAAAAAAAAAAAAAAAAAAAAAAAAAAAAAAAAAAAAAAAAAAAAAAAAAAAAAAAAAAAAAAAAAAAAAAAAAAAAAAAAAAAAAAAAAAAAAAAAAAAAAAAAAAAAAAAAAAAAAAAAAAAAAAAAAAAAAAAAAAAAAAAAAAAAAAAAAAAAAAAAAAAAAAAAAAAAAAAAAAAAAAAAAAAAAAAAAAAAAAAAAAAAAAAAAAAAAAAAAAAAAAAAAAAAAAAAAAAAAAAAAAAAAAAAAAAAAAAAAAAAAAAAAAAAAAAAAAAAAAAAAAAAAAAAAAAAAAAAAAAAAAAAAAAAAAAAAAAAAAAAAAAAAAAAAAA/9sAhAABAQEBAQECAQECAwICAgMEAwMDAwQFBAQEBAQFBgUFBQUFBQYGBgYGBgYGBwcHBwcHCAgICAgJCQkJCQkJCQkJAQEBAQICAgQCAgQJBgUGCQkJCQkJCQkJCQkJCQkJCQkJCQkJCQkJCQkJCQkJCQkJCQkJCQkJCQkJCQkJCQkJCQn/3QAEAEb/wAARCACzBFoDASIAAhEBAxEB/8QBogAAAQUBAQEBAQEAAAAAAAAAAAECAwQFBgcICQoLEAACAQMDAgQDBQUEBAAAAX0BAgMABBEFEiExQQYTUWEHInEUMoGRoQgjQrHBFVLR8CQzYnKCCQoWFxgZGiUmJygpKjQ1Njc4OTpDREVGR0hJSlNUVVZXWFlaY2RlZmdoaWpzdHV2d3h5eoOEhYaHiImKkpOUlZaXmJmaoqOkpaanqKmqsrO0tba3uLm6wsPExcbHyMnK0tPU1dbX2Nna4eLj5OXm5+jp6vHy8/T19vf4+foBAAMBAQEBAQEBAQEAAAAAAAABAgMEBQYHCAkKCxEAAgECBAQDBAcFBAQAAQJ3AAECAxEEBSExBhJBUQdhcRMiMoEIFEKRobHBCSMzUvAVYnLRChYkNOEl8RcYGRomJygpKjU2Nzg5OkNERUZHSElKU1RVVldYWVpjZGVmZ2hpanN0dXZ3eHl6goOEhYaHiImKkpOUlZaXmJmaoqOkpaanqKmqsrO0tba3uLm6wsPExcbHyMnK0tPU1dbX2Nna4uPk5ebn6Onq8vP09fb3+Pn6/9oADAMBAAIRAxEAPwD+Zc4FNccVIVUigjGB7UAV2cYGeo9ev4dhUhQlBIeh7mpi7cASY46ba6z4b+Ch8QfHWleDbiXyG1S9t7SOcR79hnmWPcVJG4LnoCKAOMjkABI6L19OOP0qTrgj+LpX7D3X/BIL4i6fqcehSeMbAy3za/8AZw9m4jaDR5YYLKbcj8f2lNPGiqM+Wu12LrWBoH/BNT4faq9hoer/ABOvrS6v9K0fUkubbQjcabONXu7ezjSzvkugJ1iuLhI5iIwY3SQsowu4A/Jd1MZCyDaT0B49qCCODX6P/tA/8E+B8BfgRd/HSHxbLcpa6wNO/s/UNN+wTXG2Uw/u5UuZ4/OXYZfJGf8AR1LhjgqPzhZ/MO8jGecGgBycdaYcZpT2x6VGRuXK8jpx7f8A6v0oAnDpjqKRSMmoDHxikyw4xQBbyKapw+enbP8ATFVVZvSpQeQTQBJIi4wOPajgRge1I2CeKZxQAU5GUKzZGF6n0x1/KkHWvQ/hR4EPxQ+JOh/DuKdbX+2L62sPOZSyxG5nVN5XK5C7t3HHGO1AHAozYLqOFxz2Az8v4E8fSlBVsbf4jgfUdq/Ye5/4JD65pOnaJrusfECCSy1owrGun6aZL+e7e2vro2VpBJPGkl2Y7WNIIi48w3AUYK/NneDv+CYvhb4leDH8b+BfiLdSeVpVtqki6loLWkcaXRvfLWdhcsYctYSxbtpKu0SENu+UA/IHzI93UdcVI/3yg6r1HpX7H+Gv+CQ+u+KLZzonjm3mey1ZtMuE+wshW1j1q70ie7D+Zg+VHbfamjwDsDKCCoJW3/4JE65q+ow+GfDnjB7jUZNOu9S2y6YILeaK11COzmit5FuGdpVhZp3iaOP7qoC27coB+Nj/ALv/AFny9ueKQRFzhQSemBX2t8SP2WfC3gTxlovhnw54vn1gXvh668RXE82mC0NmltBO4hVWnkM3mG2dGPybcg85r2Lw9/wTa8R3vhrwlr8/iyO3bxXa6VcPGbRm+zTarqFnYpbn94u4rb3tvdg4GQfKIXGaAPzLEfHHaoUGW+XntxX7AaX/AMEmtS8U+Tpvgj4i2892bSwN+l3p8kBtL7UV02aO2DLKfMhMGo+Z5q4OY2Qr8wrxPTP2Kvh3c/EiTwtJ8QZv+EVvfCcvjDRvEH9lMPMt4TLBJDfWpuN1swmhkiRg7h3MICjf8oB+cxCPkqc45OOwzj+YxTyqCJXJGDwD2/zxX7J+EP8AgkVqnj7W7rRvA/xDtrpdNuTpl6G014zHf2N7BY6tFAhmLSx2cUv2mKTK+akbKVUqDXkPj3/gnvoPgHwBqviu58Xahd6hpfh2315rK10lZTP9oAw8a/ag5tIcqt5M0YMBeM+W8eSAD8ywgwKYynpipJJFJJjGF7D0FJuYqMDtQBEIuOlQkYOKkLkdRVYuc0ATt0FIvWmDkUZFAFmkVBmogx7UbmoAcVGetPBAGKi2vt3449aQKSBgUAB601kBqZlbA4qI8daAINpquetWCzZ4BqEq+ehoARetTBVPTFV6WLgnNAE2QOKhPWp9q+1RHys43CgCPIp6dab5Wegpy4U88YoAeVXvSqQBimOQcYplAEjOdxxUT8im70HGRS709RQAORsA9hUNSExdyKjZ0zwRQAU8KPWot6eoqQI5GQDigCUEAYqNuTxTOBwaQOmeooAcqDPPFQyQqTUpIzUbsuOtAFVrbPSlSEgdKuqDtFAIBoApuMcelPij7kVZePPIqHft+XjigCRxxgUo6UDkUtABQCAaTIqszLzyKALnmelMyKpiQAYp4dfUUAWqrt3qVXTHUVGetAFfB9Kew4GKVhJjhTj6VC0oAx09qAHM+FqNVBOaQspXqKajoOpFAFwSsOAOlSCSoBvIGOlNBAbmgC0zLt61XdjjgUjAg8j/AD2qQjaNjcEcYoAYclRSbmHFSr0qIg56UANpyfeptOXrQA4qM9aNlMPWjf2zQAjyxLwWHHFSllThyBjg57Yr9PPhr+wf8LfGHgDwz8Sdb8b6pFo+radb3N9qOm6fbXVrDqF7qNrpcWm25E6uZrWa5RtQ89UMaqphDCVM+yeAP+CQd74213WvBVx47FlrGjWVtJGgtUEEt5daYL4W/mGVSsfn7YA4AOweZjdxQB+LUpEO4y/Lt4OeMen6ClLoSEBGemP6V+qPxo/4JxeH/hV4Bl12x8XXV5r2nOs17ptxYLDBFp76rJpKuk6SkiZJ1jLxlQBGx2kkGvYfEP8AwSBktvEfim30DxneX1poUektBPPYRiS5a81G5sblGaGV44zbwWkl2oDnO5YpFRw6gA/EpfMZd6DK4zkdMcc/TkVImd23v6fTr+VftB8Vv+CROm/Bzwfrvjvxn8R9ul+HkhvZJE08bHt7m7vrKykxvLKrtBaPMefLgnnZc+Uu71b9mL9h39mDw/8AED4z6V8U/Dl3470/4eaJpmq6LNq8v9nQXa3AuGNzC+kzTK9nOkcckEib2MWPlWTcoAPwMccA9v8AI/pTXjkiTzJFKqO5GBX9d3/DEH/BN3StYmstW+FVg0Onppz3N5FrOoLsN4IftDpFM6SLFALu0KtJtZt7hlUxg1w15+x9+wJ4f8H2njXxJ8FdM0jTb11gtZLvWtU/c3Ed1aWd4b1I1MiQxPeN5RjVnK27bwnmJQB/KN5JPY84/wDHun59qcqkj5RxX9ZOvfsV/sOWGgS+M7T4GabBaadpd9ql7He61qKXET2ljaXfkosO9cFrxYixOVWNsLnaK1/HH/BOD9ha88NeMdGT4a2Gk3eleGLjU7C9tr/VhPLL9nMn2m1S7VF+y28u2JhJiZZB+8RVdRQB/Is8nGR07VFvNLI4ddwIOfTn+g/kKiHSgB6/eq6Ogqkn3qk8zHFAFqmqoJqDzWFNWXB54oAuGTbxmoizdaruQelOL/KBQBI3WqtOLnFVgzBumKALW8gVE5BFRM5x0pB0oAVmOMU5HIxmmVMiCgB/PWlXrTSWLCJBk8AAe/A/PtSDpQAPznFA6U1eCc0/+IJ3IyB7UAOD9hSSZiUSS/Kp6E8Dt/iP0pijBNfav7FX7LPh39qzx1qfhTxNrtxoMGnW1pKstjHFMx8+/trNt4kOF2pcNIMfxqvbOAD4w2Doeo7fTr+VKEBQyD7q8E9h2/piv29/4dRfDLSvGtn8N9b8Zavf6pNPYLfDSo9OA06yvFyl9cxzyB2guHzDbyoNqvjziFZaxrT/AIJp/s7r4J0fx14h8WeKLW11wao1ta2i6Pdu39mpfzNHFNFKYmZIbHDupMbSXEZjJVWoA/FdfnAaPkHoR+VNDLjINfrF8Cv+Cd/w0+M/gTwNq8nizXNK1Px1/ackfk29lNZWy6Uzl42hjkN27m2gkZXCeUJSiZywFflTqUFhDfSxaY8klsHYQtKoSRo8/KWVeAxGMgcA9KAKLP2FCVGOW2ryRxUw44NAC0mRTd+OMVFngv2H6YoAmb7vFAIxiofM44PFKOSDQBKGYGlyKiLNnH9KZuXuaAJgxJwozj0pqyJMn7khvpz6V9g/sd/srL+1n4j8R+DINUm0rVNK0K51LSkjjRhfXcckaRWjl8FUlL43DndtC8V+gnjb/gk18MfAMl14h1/x/e2vh/T/ABLZ6NNe3MdtAhsbi0hf7QJ3Iiikkv54rSMMdih/Mb5VJoA/DvcrRgqc9uKYRtIU8E5wPp1/Kv2XH/BPf9nNvAF/4lutW8aaPqdhaXFzc6ZrT6HavBJBqR0vynkMgjba4MpWMkyAqkWXIFTeNv8AgmR8JfAP7QkHwfn8W6zcWDeGdV8Qun/Eutb5P7OnkiiUXMjizjhuxGXVnYGHaVfBBAAPxjPKhh0x/wDWqORADtbgjtX17+1b+zl4M/Z8TwZP4N1fUNUi8XaLF4gX7dbJB9mtbs7YYQU4kmXZJ5+3KYKbeCa+O1DKoVzkjqaAF9hRUYdASMjripByMjpQBMpBXjtUJIzTT8p3Pxj168enYcVGcn5+x7/r/KgCQkYqGgDIyOlLg+lAH//Q/mWToDTXfk4oUjaPpURIzQA9Gb0rpPB/ibVvBHiey8Y+GJlttS0y5gvbeR1V1We3kDxtsPB2sFJHcA1yu4+lLtU+lAH6C6d/wVC/bb0uJLjTvFsFtcI0MnnJYQBwtqISluzDLG3YW8QljHEmCB9445Jv2/f2hom01dHTQNFttNZGgttM0a2tbcTR3sF+bjyIxt8yW5tYGmbjzFQLjaSa+KMgdMcdP6fr+lN3egoA+ofiL+1x8ZPid4B/4VTrbaPZ+H3uVu/sGl6VDZQwzrJJMr2+zHlNvnmLEcfOV4B4+aNwPNVVcg07cp70AShmz04rub3wPLpvw+0rx813GE1XUL2yjtthEimzht5JGDn5SJBchcdtvvXn3mDoK968UyY/Z98Ewk7R/a2vS49f3WmJ17dKAPBl8zaNyEH09KsqRgVEsuVBwB7elJ1oAsVXdj0FMLY7UoZaAJFZsAUqnnmoVfBpx5FAE+5fUV03g7xpr3w38W6Z4+8GXAt9V0S6hvbWRk8xVmgdZUYoeGCso4/CuSIXaOahViDigD7nH/BQ79qKf7JY67qGj6zYWU1ndW1pqWk2t1DDcafHJDbyiNgFEkaTMQ2c7lRskqM4th+3t+07pNnc2UPiCGRb22NrMxsYnMqbL1D5m4Lk/wDEwuCCQPnKP1iTHxspFMLkUAffutf8FLP2wtWurrVDrmnWEl6hhlTT9Ot7eL5luhLIIk4Dzve3Es39+Rg5wVUVTX/go9+1bH4gsPGthqOi2XiCyeJ11K10e2iuZEgvftqRXMgAM8STL8iP8ojd0OQ5z8Ip0pS6DqRQB7fq/wC0B8TPEJnk1S+tyZdETQdwtVVo9PiuEuREhXkP5ibS6jLRswxtNe9aH/wUi/bF0S1gsE8Q2d1DYQ+XZQXunWtzBZhVtliFshwIvJawtpocE+XMplHzFlPwm00KozFgAoyeegA/wpyuh+UEcDP4Yz/KgD7kP/BRf9ryG2sbDTvENrYHSbK3sbWS0sYLd8WptDFcSPGh827A0+1Xz3BIjj2dGNc/L+3J8e59f17xJdp4em/4SXSrbRLvT30a2+wQWFrIJYYbK2CbLYRTfvl2f8tMOTuXFfIyKW+RRk7c4Hp6/SqxZeuRigD7wtf+ClX7YumeK9P8caP4hsrPVNLkimjlh062iSSdWkkkuJkVD5s1w0jfa5DzOMA4xXDap+2h8a9W0+40q4t/DRuLrRj4ek1VNDs01P8As82zWbIt6QJQWtpHgZu8TlcZAI+Q2f0p4I2fhQA9yXyx6n8f8KjDHHSmsxC9KQPx1oAe/aqzA5p7Ox6UAjFACKQFA9qVUyahJGaerEfSgBSxBx6VIOgquSCaeZBjHpQBh+IPF2i+FNLm1TxDKIYFG1Qed7DosYH8R7+lfMF5+1dLuaLStCg2DhTcysXx2+6FxWF+09rF23iHTtFVsQwW3nBfV5JHGcewWvlZs7jmgD6x/wCGsNfX5f7HtOPdz/Wnn9rDXSP+QPaf99Sf418k0uD2oA+rx+1b4gz/AMgi0/76k/xpT+1VrB66HaH38yT/ABr5Q2sMjHTr7Um1hwRQB9Yj9rDX1G1dGswB0+aT/Gl/4ax8Qf8AQGs/++pP8a+TKKAPq9v2rvER6aPZ/wDfUn+NSJ+1d4iGP+JNY/nJ/wDFV8mUUAfVL/tVeJC5P9k2Y/GT/wCKpT+1X4nxgaZZ/nJ/jXyrRQB9Uf8ADVfjD+HTbHH0b/4qj/hqvxj/ANA2x/Jv/iq+V6KAPqX/AIao8V99Msfyb/Gk/wCGqfFn/QLsP++W/wAa+W6KAPqU/tU+LMcaZY/98t/jQP2qfF2P+QZY/wDfLf418tUUAfUv/DU/irvpdj/3y3+NVz+1D4rJz/Z1n/49/jXzFRQB9Pj9qTxmOFsbID/db/Gl/wCGqfGY4/s+y/74b/Gvl+igD6l/4ao8XEDOl2B/4A3+NVz+1L42z8tjYgemw8frXzQCMVEetAH0x/w1B4vPJsbPP+63/wAVTx+0/wCMMf8AHjp34xv/AI18x0UAfT4/ak8ZjgWGnf8Aft//AIqmf8NS+Nu1jY/gh/xr5jooA+mx+1D4z6mx0/8A79v/APFVJ/w1P43HAsbHA9Eb/wCKr5gooA+nf+GpvG//AD4WX/fDf41Ef2ofGxOfsNj/AN8t/wDFV83opbCqMk9KjMb8HacHgcUAfR5/ab8Zk5+waf8A9+z/APFUn/DTfjH/AJ8bP8Eb/Gvm2igD6XX9qHxqowLKyx/uN/jQf2nfGBOTZ2f/AHy3+NfNFFAH0g/7THjU9La0A7fK3+NIP2mvGWObKz/74b/4qvnCigD6Q/4aa8Y/8+Nl/wB8N/8AFVIP2m/G2OLKx/75b/4uvmuigD6MP7S3jUnP2WzH/AG/+KqWP9prxopxcWllKvYbGGP1r5uooA/Qf4bfFrSPHeLO5QWV/GN5iU/I/uv09O1etbjJ87ck88jH6V+afgC+uNN8YabPbttzcRBvdWcKR+Rr9K9uz5Cc7eKAJEIAprMegptKGVWwTj/OKAIizDtRub0qeUImQ5CleoPGP8ioTgjav0oARpOKqh+TSuRUTfd4oA+t/BX7dH7T/wAPNH0jQ/B2vW2nWPh6FoLK2h02yML72gbz7hDFtuLmM2ls0U8oaSNoYyGypzPH+3Z+1hB4XtPBdn4wkSztLG40xH+zxCdra6QRsJ7jy/MmdVASGR8tEvQqOK+Qh0qdSCMDt/8AqoA+vfiZ+3d+1Z8YPDEng/4g+LHv9ObVH1WRYra2tXuLqSWS5LyyRxrI0aTzSyRxFtgdt2M4FdfL/wAFNP23pL9NaXxvNbvG9xN5EFpawW7tdJIk/mW0MYjkL+bJL86nEzvJne24/C21guSMAUHpv7evagD7Nuv+CgH7XN1aR2V94xku4kj+zGKW0tnheFlvAY5Y2jxJFtv7jCHKqWXHMabfof8AZq/4KpfEP4P+LPF3jT4reG7Xx4fFmn6fpf2NXTR7awtNN83yobWG2g2Rx4kOEVVGfm7kD8qPM9KRZQDQB++fif8A4LYfC/xomqjxd+zvpF+dehkh1FpNXnMl1FOYS8cjiANg/ZoMD+Dy0wOtad1/wXJ8Ial4luvF+s/AjT5dRvpIJZG/t25MfmwSwzJIkQiEUbNLbW5lKqvmeSm/KjFfz8Fznik2OxwB1oA/fv8A4fjeDzpDeHB8BrBbGW2ksWjOvXXNrLBDbyoH8reu6KCJM8NhBzmsDxP/AMFwk1XQNdh8OfBy0s9Y1rRrjQ11C81+/v8A7PBNH5bbYZV287ImcAgzNFGXYlc1+D8oMaFnG0D14/z0pqDFABkr8uOn40L3o344xT1+fO3nb1x2oAeoII4prcGnFiG8nHzDt3468e1QN5kkZeNSVXgkDgUAKz9hTG5xTI/nwE5JHGKeoORQBICMUbl9RUOQeR0p2F9RQAFznilOTg+1NUbvuc844/z6VMOmPSgCHB9KkCrjmnAqxCryT0FMkdFTLEAEZH0oAa2M8Ubm/wAim4xS7yOKAPRPh74DPjmfU7QXhtBpml3mrnaNxk+xxl/KP91X4Gf4a4R08timSdvGSME49u1e+fs5kP4h8SRZ5l8J6+gHrtsJJP8A2WvA7hw8jt6k0ARt93itGLRNdk0CbxBHp13JYW7lZL5bSVreMgZ2NMF2Agds9KyxIMiMdfT6V+wX7Jn7bfwh+Dnw0+H/AIY8cXN5c2/hafX7/VtPgNyYbsXSpFZ2LWpBsZRMXMzzSIXiEGFI3jcrgfkXJpuqwrcPLbTILRlSfdGy+UzZ2q+R8hO1sA4PB9K9D+Ffxv8Aiz8EdQu9Y+EWtyaDd3iRJNJCEbzY4pY7iNDvDABZ4Y36dV9K/RjxB+0V+zVqX7PvxZ+E1z4m1DWtb8c6/fa7Z6i9kfKuWtnt30/7S0mJVeYNcghcLHvfd95a/JNd7bS67Wf+H39Bjjj2pjtpc+tdH/b0/a50S2s00vxrOJbRbVYJ2tLU3KR2GwWsJneEu0MflxnyWJjYopZMrWBf/tm/tPaxEz3PiyWOOTcBDHbWkMUYaO6iIjhjhVYlKX10jKijKy9flWvmkjacNximsgNAj2jwh+0f8cPAVvYReD/Etzpq6XaSWNqbeOEPDbTXCXs0MbbC4WS5jSQnJ5Xb9xq8r1bXdZ8S6rc61qkhu72/maa5kwoZ55juchUAUFmJOFUD0AFYigjIr0L4XeItO8I/EfQfFOpu/kWF/azyyINxijhlV2wAOdoBx0POBQ9NwXZHOaj4Z8T6S5h1LSL+yZEEh86ynT5MhQ/Kj5SSBnpkiquo6RrWhXRsNbtJ7SdQGMc8bROAQCDtYAgEEY+or9ivjh+2z8Ifir8H/FHhiy8V6iupah43/wCEls7edby5jfTba4SGKye5uC0ymcKNT8rd5MTosShdqrXz1/wUv+P3wu/aV+Nmm+M/hZqx1uGCxeC4uDBcRRsTd3E0QBvB58jCKRPM3ZRXDJGBEEoBeR+d/I4PFdT8O/DEfjb4gaN4Gu7lrUazfW1p9oRdxgWeURGQL/EVDZx7VyhZcgdM9B0/nXqPwNk8n42+EJ+6a3p4/D7QmfyoXkHS551q1mdP1G40/r5ErR/98nH9KqL2rpfGcfk+MdWg6bLydcfSQiua4pXQ7FxNL1mSe2jt7C6la43G3VLWVvPAOG8rC/OE6HbnFD6bqMU7ae1rdiaFRvj+zuCoyFyV25AyQPxAr+gD4A/t2fs6+EPhR4L8JeMPHLyahY6B/ZsVu0OowxaFNFYX1vMXu7ZfPjF7JPbofsWSFi8x+gqtoP7U37GvhaXWvEeufEWG51HxX4UsvB0iafYXszWPkJcu15JPdxLI0Hm/ZWRwWuWKDehwxoT0C2tj8Rvhx8V/in8DPET+LfhjrV54c1Hy1Q3MSBJCsUizYHmLjaksSn2ePB717qn7fP7Y9tfwR3Hj29u4YLRdPWC7itp7ZrcGM7Z7aeBonKmKP5nRm2oFB25Bb+2/+0Hp37RPxctPFOjSxtpdppOnwosETQoLpo/teogRlQSX1Ca4Jc8HII+XFfHRKsN0f3T0+lCfQR9V2X7cH7WNjNf6injS4muNTjuY7mS5t7S48wXVx9snDRzQOvzTnzFOMq33CoGK43Wf2pPj/wCK7t9V8UeKr2+mubfUbGdp1gLm21d/Mv4t3l5Mc7Esy5xuYldp5rwPI2/hUVMEez+PPjH8d/jNp1vF8QtX1HxPbaV5twiyxGVLQSRxJK6+SgEUO2KIFThFA4xzXnknhbxZbvb276RfobniBTZ3OZMDPyfJ83A/h7V+in/BNv8Aaa+Gn7M2s+OLj4m6pNpQ8RabaWllLHFNPCJkm+WS5ihXMkMQkLtC3yyICoycV+iqf8FG/wBnfQ/EfiPXJ/FP9rSxJpNz4akt/wC0JTbvcBbDVoXF4oW3dbbMvl2w8llXCjzGYEXl0FdH8683hjxZasqz6HqKM0giUGyuhum25EY/d8sV5C9cc9KzZIpLeRreZGieNtjI6lWVhxtKnBBGMYIyK/pz8E/8FJP2VfD0F3oOseOjMbjxDd6gblf7YurU2VxNbFAv2hPtEVyBz5n/ACySKSGLEbJX4N/tjfEbwR8VP2mfFHxB+G942raPrFxFOl20ZiBl+zwpOYxNiUx+cjiNpv3zrh3G5jSTVropqx8wgmUurcDBx+g/lXonxR8E2/gPxnJ4Ts7lrmJbawug+3bxe2cF5t4/hjaUoH7gV51JIWYEDGWPH5V9EftMxpb/ABSglg+ZLjw94efI6c6NZ0xHz0CMfe3e/r+dLkVBx26VGXIOKAP/0f5iixzxTKKTIoAfuNNzmimxguSEGfpQBJhfUU0Pg4qEtD1LDrjqOo7U543RsFSOdo474Bx+VAClmzwKReM54quso+6D04qQsKAJU6mvd/GZ2/ADwOT1+1a4/wD49ap/7JXgCPjivoD4gkQfBb4eRk7fOg1R8/796Y8Y+kfWgDwnK9jTwzdBUIjjT5F4A4FSoVC7/wCFeCew7CiwDm6CoVHJqY7OpIGaiLxj+Ie1K6tcBciovPOcChuTxVdRhueKG0tALgYEZqIswPQ1FvNPL8AUXCw/zMCnkgrUL7FTLkDpnPGM0o7KPpTAmSZSGAYfux83+zxnn04pySyTt5dvIWIHRVzxj29gfyr2r9nD4oaJ8G/jX4c+JmvWTXlloN3HdtDHGkgcgFkBRztcF8bweNp9K/T3xN+3/wDsw293oOs/Cyw1XQZPC8aaXZWi6bEkxsFutPfeblZMBha6d5MikbpDOduMOpAPEP2BfGH7NeiaB4m8OfGDQdFk8RXM1leWGs6+4W3t7O0lWa6gSM2lyq+f5eyV2C/IeDw2fi39oHxH8N/EXxs8Q+JPhJoLeHPCd9el7CwV/Oht4mAISNyqDynZHlhXCkRYGABx9LeN/wBonwD4y+KHjXxzpmt3UVtrPgf+xrUSwXMLm4VbVXs2BeXG9Y5cMuLc7sYXJx9Mwftvfs8Xt2YNc1fWLmO9tpob9TpO6zN5cQWsf9oW8Mk2+OO0Nu6RWxYkec/kFYcoQD8bobC5khkltop5EgQO7IhO2PdsDttGBHu4DfdzxUGQyZQgg9MdK/S74gftPfCTxsjHQtTmthYeENV0yAXFobcq17bWVnb6NEsYbdaWpt5biKVsAecxwJM7vzTDbhkjBAyRjbj8O2PTtQAxOOtSfSmvxEZDwo79uOv5VFFKrfcOcentQBZYjAFVj1pCRmlNADd596dgntUIY9KkdzEuZMqMZ5449fpQgGBTv6VIzHGKSNmaRkUZK8Een1pXYAjdxnpQFiIfeyaXavrUTl1+UjpQCMc07dAPhr9pznx9ZlegsIh/5Flr5uPWvov9pSQf8J1bKO1nH/6Nlr5zpAFfbv7APwD1b9pH9p/wx8MtOtLbURNKHe3vn2WrhmWGFZdp3NG1zJEsiKDuUnjjFfFdpZ3d/cx2VhE800zLHHHGpZmZuFVQOSSeABX1d8Aov2ifgh8R9L+Ing/wprErWrr59uLS5jW7tiytLbu6JuCyBeGX5kIV4yrqCAD9EviV+w7d/Cn9qjx34A+InhjSt9t4CkuVt7CU/wBn2+u3ekpAZ7YKQVji1HfIiY+VMAJsG0fjv8QvAfiH4Y+MLzwP4nEUWpadII7qOORJFilVQWiLxkrvjYmORQfldSO1fo7a/HH9r+5+O+t/GK48B6ld2GrW8mnvos0V08NvayOzxLBPjz45raVjJDcqfNST5mZssG+QPit8LP2iPGnjTxH8U/GHgzULObVL271S8ENlLHBC08jzSYXaQkaZOAThVHtQB8xNjcdvSm0pGDikoAKKKKAFCk8KKd5b8AKeenH4V6X8J/hn4w+M3xO8M/CPwBCl1rvivVLLRdNgeRYlku7+ZLe3QyuQiZkdRucgJ16V+lvh/wD4Im/t9+KGtBouh6NNZ6hIJLW6Ov6WlnNp72a3serRzNdBDp8kTosdySEaRlhz5vy0B0ufkLtYdqXa2M4r6E+M/wCzj8Wf2fbLwxe/FPT106Pxdp8+oaeIrmC43Q2eoXOm3KSeS7+TJDd2c0bxPh1ZOQK6D4E/shfH39pbwvrvjP4PaCdY07wzcWlrqU/nwwC3kvre/ubYOJXHDx6dcYYcBlCfeeMEA+XDHIvVSPwpArdAK/RnW/8Aglh+3RoGg33id/BRu7ewu7bTp47a7tbicT3t7a6fbKsMUpkbzbq9toVKLjfKqnuB5X42/Ye/aV+HXiXwn4W+IWgxaLJ418Q6l4W0e6ubu2S0n1LRr9NLv1+0eZ5SRW904jaVmEWPmB2jNAHx0EcnaBz0o2PjOOMZ/DpX31Yf8E2/2u774h+I/hJdeHILHxP4T0zTtQ1LSr7ULS2u4zq0KT2VksUsil7+ZJFxaIDKrZR1DgrUnhH/AIJo/tseOLi0g8I+C5dRbUdQt9It/IuLZvOvrvRD4igt0PmjMkumfvVXv/q+H+WgEfAO1sbgOKbX3N8Rf+CfH7Vnwk+GGrfFv4geH1sNE0Q232zF5bPcLBdx2MiXC2ySea9up1KxieULsSa4jhJD5C/DjnLk5zz1oAZRS4PpRg+lACU4I/QCkwfSvoL9nb4I6r+0T8VtL+FulajbaNHJbXmoX+p3ok+y6dpml2s1/f3kvlK8jLb2sEsuyNGdiojRWdgCAfP2xh2ptfrf+3l/wSu+I/7D/hSLxhq97qcwtZNPGpaX4g0f+xNVs4tWS5bTbv7J9qvEmtLo2N3EXEqvDPbtFcRRs0Xmfko6/OcDjP1pJgvIjooopgFKFY9BSV634U+Bfxh8caVFrnhLwxqWoWUwYx3Fvbu0TBDtbDhdvysNp54PFAHTfD/9mz45/FDwI/xE+Hnhu61nR4dXstCkntdr+XqGpbktIHTcHXzmXajlfL3YXcGIWu+/bP8Agb8Ov2a/jpdfAvwH4hk8SXHh20trPX7vy0jt01xUB1G2tSmd8FvNmEO4Db0YbcBSfon9kLx9+37+xH4g1fxJ8DPDFzHc+JLL7BcR6hY/aoDsZZILiONtqie2kAaGTP7sn7vNfKep/sxftN6xfz6zqvhbVby6uZGllmkQyPLI53MzMTlmYtkk8nNAHzOyMXbaOAe3So66fxN4T8S+C9XfQPFVlNp95H9+3mQo656fKR09D0PauZOM8UAJRRRQAUUU/wAqTj5Tz04/z7UAMooooAKKKXFAHReFv+Rn03/r5h/9DWv06BXJI6V+Y3hQFfEenE8D7TF/6GtfpjECEAIxQBayK+p/gF8PvhB42+H/AI7vfHuo2VjrdvYRW/hi2vLk2/nakWkuZJR0jI8q0NriQiMNcpzvCA/KPc19/wD/AAT9/Yn079sj4ojwZrusTaa+q3UFnpbeasFspjjke5MrLG7HBSLGB3NAHvXwH8F/8E+PE/h/wTpfxijt9M1TTLd9U8T6jLetHFPD5kypZqqPIzz5gTBjjUqkkeAxya9Wf9nr/gnZpGk6YseseHtVv1t/s2sRz6sY0to7ZdLg1XULWRJFV5hE15eWSDcDJJKgUmBUH6m2H/Bqte3aRyReOLRsYzs1O6P3hnI/0f8Ah6EY5r59+NX/AAbZ3vwi8O6lr1z4tglgsIZLmcQ6q+8RxKzkAPbcEYYqD3PPFAH8sciHb5jjb9e3GcZwO3sPpUOMceld/wDEHwXa+AfiB4g8L6Ff3OsaXZXUv2C5vJFa5NqMqm8gKO3XaOOwriltmRFBA6dumBxwfSgCj5gzj/PpX3zpHgD4GTeMfhHf6smnR+GL+zs/+Ehc3CAvduX87zwlyZ8KI8H5YFUfKoOQx/PLxNqdxpPhbVr7T5Wt5YbWVoymPvIhbPPuK920f4NfC9vDmmX+qeLdU+3alplncylLiIKsskKPMMCI5HmMVUZyqgnmgD9bvC/wt/4JYeL/AAvF41u7q30O2v7KbVG0o6m8d9bwQWlynleXuKLcG6uIJo7dnL5tgF3KX3fJf7ZHw7/Zm8GeF0t/gTcaNPL/AG1c29jdadfm5uL+0Elwt093E7uqR20sdvHZvtTzYX3HfktXyrJ8AvhdHdqj+PdckBIdyhtiuehIZoep6jPbrzXFfHH4TfD/AOGPwb13x34S8e6re6xZC2FtZ3BtjFcCW4jjkG1Y1YBY3Y8dCFzQBwoAUBQMAdqAozk0KDgDGD0x9Oo/DFDqQvIxQBJGN7fJzjjiv03/AGT/AIf/ALJPif4S/wBrfEOHRLvxjHd6vm01O78k/ZodLZ7F44Xnghlkk1DyoyJJI1KFhyCxX8pfsdxrnj3wx4MfWptGstYunhuLuBA7xoIy4Cq3BO4Yr6rP7JngK/nGnWnxP1VXjwGEsFsyjHHt6jA7d+lAH0R+0t4b/Ze/4Uc3iz4OaPp3h+/hu9NaUteG4upzf2QuprK0jFwXgj06aV7eTcp81EjHmB4m3fnO/wC6OwcDnbx2Hp9K+tNM/Yz+G9xftJffFnVY1xtLLaWifLnnC7uRz0Aye3FfNvxn+HGlfBz4r6X4T8OeMLzxbpmp6RLeSPOkUZjmE5h2/u88BV596AOaz3r2L9nzTPA2vfHfwbo/xMkg/wCEdu9ZsYNS+0OY4FtDOizebJwI4wm4scqO5IFePvBMMqVyV645FRuySIEui7KOMdv0oA/crV/gj+wBBpcsXhm48Majdxrqr3kcuqAQW8E0qT6fCN06jzlgt5rJZLdpfs89xHK6yIqmtHTvgh+wjFrMXhvXNS8GBo7+DUNauvM8lLOxvJ9selwrHetGJYEhVbqSN5gHkO3Ecm5fx3/Zc+HHwW+LD+Lf+F1eJ9S0aTTL6K102GxmhjTynGWZleJyWXj5iQF6HBr7Gsv2UP2HJYJMfEXxUpUBECXFtnLKxJ/1GNvTPXrzQB9XeFPhL/wT00ea00P4jz+GLaHRU0q91m7+2vNcSyW1ncyahZwzQSsW8+8toYMwox/eMUzvXHxn+2r4K/Zn8C6b4R0L9n+40y8ubKK6ttavdNnB8+SFLcxM8ZZwwk8yWRZkChi5hCDyCToJ+x7+xJMktlafFHxRtgcLtF1bJKTlSSqtB5ShR05/hx1r81vDHlzXepaXDeSX9vY6pd2sVzMQXlhilZIi5UAbmUAnAHsKAOg5PLHJ9cY/TtThsIJyPl6+1Eg8n5pDhexPQ4wP6ivX9A8N6FefA/xV4rubZZtR07UdJt4Jy2GjhulvTIioOCGaOM7j02gUAelfspaN8Ldb8X6rY/FJNMjsF0qSSK71WREhtpUmicskRmjaaWaJZLeLYWaKSXzfLZUYD9BptB/4J7av4hj+IfhDQPDljoMF1Lpd3Z6ndqFuZVv9Ng+1x2S3XmRwNam9kjIJUKu9vnGK/Bn4j6vfaT4Yu9Z0uc28yIqxtxmMs4XIHPUcdQOMiv0l8D/sBfBjxNoNrr+sfG/U1a7gQ7ILe2Rg4QlgN8nIJxg9hweaAO5+C3hH4S+KPBPg/UfHemeHdPttVXxStzqmqtFDBa3EX2UW8lxGJY5J0t43YW8CsGALNGskilW9Y8V+H/2bZ/i3ovhL4U+HvC91pr32v+dLB5NxI+lwaRG9lNK63MsaosjzPG5EchZF3IGTbXicH7Av7OrTfav+F3a2EJwxNraIxKFSuFz93njcByO4FfPP7Vv7Lfwa+AXwjsPG3ws+JWs+IdSfWbOzeyvlh8qS0mLGVv3fzDa4XHYq2OlAHzm4YHa/UcGo8iqnme38v6cflTPM96APo/8AZvwPG2rJ3bw34hwPX/iU3HSvAHZQxya9t/ZznP8Awsi5Ud/DviBR7n+x7ngV82XhlaZiJABk96ASO78N+HfEHjjxHaeD/A1tJqOq3ZxDZxY3O6/MDn7qIACWkfAVRiu98b+ANH+Fuy0+I+ttdardfOdK0fYTGmfvS3su4gEggeWnPY19QfCz4t6F+x7+yvL8QrLT7a88XePjMtvPcKGMFnat5SIuefL8zdM6/dc7Ax2Jivz5ufGV18S9Qk8YajJ9tvLp0eR27gKBg/3QMA/XNfmXDfEWMzTMq6jHlw1L3V3lJdV5I/deNeDsryDJMNCu+bGVVzeUIvb5s9Oh1TwHr9k9t/Z13pjsMLcw3T3JX+6HS4UK6+uCCO1chJpWvacsk1xYbbbf5EV7ED9mnIUsqLIeFk2Dd5bnOBxkCiyBkwzfeHTaOPxr7W/ZJ1nwn4/vPFX7KHjy58my8d6ej2m8oVttXsd7Wlyg/hKbiDg8oWU819ZxXxFLLcH9cjC6ja68u58T4ccFxz/NYZV7S0pJ2X95LRHwn58bIu5gGOOOnPpj8KsIQTsXqOo9McH8qkubPULTVH0rUVEdxbyGCVMYxKpEbIfT5gcV96fGb9gjxB8G/hZrHxCn8feHdXutCttNnv7KzniVpF1EESrZyCRvP+ySlI5QBgn5l4xXt4fEQq01Uhs0fG5phKmHrSoVlaUW192h8BLJGJCu4Z/yf5V7r8G/2ePix8d78wfDywK6favtu9UuonW0gbGTGCikzy46Rxjd/erxv4c+Grj4k/EPRfBFpcbH1K5htmmbgRiQ7HkGcbtgy2PQV+pX7YP/AAUGn+E91pn7NvwKdfDOieHbOHTDcaftjuRbDCvErAfuzKAXuZOHmZyD8v3vy7jfi7MIY+lkuVJOrNXbe0Y9/wDI/bfDPgDAzyvEcT50m6FPRR2cpdl5Hw74x+H/AMOvBWuLp1vqepa9dRkxu0YjsoHwcZAAZx9CQR0PNc3qmh+HdVWU+HoZtPkdciCaczRsE/h3Fdyt7dKo3Vwl2VujH53mjeJN3Y85PTsT1x2q3HJEtzFD55t0Ee9twxkkdUJ6g9iOor9IyzC/V6ChOXNpuz8jzrM44vHSxFOChF/ZirJL0PJbe4S/VrheHiYxlMglGXqhx3XuK9J+FE7xfE7wzdPkPHqdq21uek0fYc+te/8Aib4X+GPH/wCyBZfH3wyuzW/Bl/Jo+tCMbWuLGecvaXDgf8tbeSTy8/3CM/dFfL/gO9+x+PNIu1AXyry3wPpIuB/hXl8OcTUcep+y+Km3GXlbb8D3+PeAcRkdWmpa06sIzjLo0/8AI2fickVr8TPEUGQAmp3ajsOJmFcIJA9xHbRkGSVgkajklm6AKOXLcYA6V0fx0uDa/GPxbaj/AJZ6zfp/3zcOK+vP2ENd8J/CdfE/7Svi63juz4YsDFpiyIrGG7n+9cxqc4kjjQpG2PlMm8fMoFc3GHE0cpy+eJUedpJKPdvRI6vCvw/q8SZvDLubljZyk/7sd2cXf/su6/4N8Djxd8X9Rk8NyHb5enQwLNfhZV3AOJdkUUpQZ2N8yj7xBGK4Syk8EW1rG0fh0zwqvM13eTid/f8AdhY1PsFwO1dF41/av8UftM+J5b7Xrm2/0CR0sbGH91Da2sgDrtAwTli29mBctyeDXNf2ddpKZLyVXbOTjB9iuOMc+gq+DoZj/Z8a+YyXPPVpbR/ur0OLxDnlSzJ4bJoNUaeib3fmef8Aju20fThba5pQlSwd2inR0Eslu68qWdPvR7f4mAPdsVxzMuQkPQ8IB3A9K+jNE8Z6P8NvGHh/xLrSRPbRXtutzAyb1ltzIqzROG4dZImdH7kHbwOa434+/Cqw+Dnxc1zwBocjz6WJluNMkkOS1jdL5ltl+5QfuSR125rerxDSjmKy6as3Hmj520aN1wLUlw//AG5h3eKnyzXbt955FyAM8Z6VGWWMF5DtGcZPHtX6EfBj9gDUvi/8J9D+I0/jjQNDvPEB1EWOm3UsOYl08Hy2vZDIv2cXUiskRK9AHOVIFfmpqS3FpqEtrfEEx4C7MFM/UccHj8K+iqy9mj4PD0PbVVShoe2fCr4U+NPjL4oj8K/DXTmvLw/vJ5SQkMEIO1pZpT8saAjAzgt0FfTnx9/ZX8M/s6ajbeGPiBqWp3fiFkjkksYYksbcRuu5clwbhg4+bJ2cdhXtcn7S2ofsQfse+HPA3w4a2t/EutvJqtzqBRfMNzJhYnUMCHa2j2JFvyitkgV+e3h34p678Y4pfFfinUrjUtXug7XlzcTGWZ5TLJvd2k5Ln9a/HeEM+zrOM0ni7qGDg5RS6ye1/Q/ozxG4UyXhXKqWWyj7TG1IxnKT+xF/ZS7nU3Vt4evY3gfSooVLlFeOVlmz7dQf90nNeRa5bQaRqo0yIkIcuu/hse49fX0r0mSe5ImiRHeYKsiuw69uo43YznHfFa3gr4R6P8aPFN94Xa6aPWdN0q8vtLcHAN7BtZI8d1kEZRvTOa/Us5zWlgMLPEV9IRt917H4nwtw1WznGwwOEfvz2v6HicjAyoT2fn2r6E/aTYDxR4duP+fjwxoWPcLp8UYx/wB8Yr5rt5FlgSVejAEZGOvtX0P+0EWLeBdUjGwnwlp5DD5sGNp4eB3z5fTt0ruhJNJx2PAxFCVKbpy3Wn3Hggwo2+nFRHrTS6Mcgg1IPLx1qjE//9L+YNSoyTUeQTxUbg+XVdWKnBoA0CRsxTY7eW5lhgtzzI+DhgnA789h39apmWRSRjpz07dqiu/EMf2dNGgtrN2eVXNxlhdIUGzYCrKNh3ZKkdVXkAEUAfpT+xD+wvL+274j8WeDPhTeJc6r4O0C78RXs99N9hsZLe08tWt7YLBcSvJI0qhWbbGuMkEYA+RL/TPC/j/Wbf8A4VnAuhecYQdKeXagbbsMwmdscnDShtoj+YrhcCvSf2N/23f2g/2F/GHiDxx8B4NJmufFWg3Xh68XVrf7TD9juWjcsqxmNQ4ZFYZyh75yVHyrBLdeEYW1y7YpZx5Ac9Qq52bvbp06CgDZ8Q2cOka5d6LBqkGrR21w9vHdWqkQXARigkhLAMUfGUyM47VzwdG5UjHtXmHwe+M+g6n4Z1DQdX0a11C9uAix3d1K5a0QH52gjyIjKw2qpcMFXOMZOOwjuyyhxggjgr0/DPb0oA6OPDNhea+h/idG6/Cf4akD94dHvnx22/2reIMe/wAlfNlrOGxuP/fXI/SvoT4ySxw+CPhlZEt8vhySQA8rl9X1DGAP4aAPCxsX92p4HFdJothaahfxWN5cLYQOoklkwX+QnaCAvUt0UHgNxXKCEQ27MOY0UnjrgY4x/wABwPc4r6d+Ofwa0n4H+NtH+Hcd+G1u+0Ww1LWw0hVlvrppd0Cr/AkMflpt/wBkmvKxWb4eGLo4aT9+d7LyifR4DhXGYjL62ZQX7mny3fZvZHCw3/w+Tz9ItNDuLpWYg3kt80UzAfxeUi+UB3xya7j4ffs5a98ZGudP+FeuWE95ErSrp2obrWaRY9rEJOpMTEDBG9UyFJOMHHlS2m4BwNnyAFui5x2JrF1D9oHxh+zX9l8afDzVZtN1mGVHgmtiPMU4VG27xhgw3K6EbdvQHrWPEVLGVcFUnlrSna8e110a7G/BdTAwx1OOaQvR2aW9u6K3irw34k8FeJbzwp4v0+fS9Ts2AntLldkse7O3I6YOPlYfKw5XIrn2dSAQRX65+O/jF4Z/4KG/sNXfxE1HSbC08c/Da5E0lzCio1xasrLdQrj7kT8TRxtnbIm1TtevxseZoG8j+7wOnb6V8r4c8ZVs1w01jIKFan7so9mu3kz7DxX8OVkOJpyw3vUaq56Uv7vn6G7kU9cABz9317ccfz4rNilyBX3F/wAE/v2bvDv7TX7R9r4f+JR/4onwppt54o8SrI/liXT9OVGWzBHA+2XDRQMTj900mOcV9HxPxBRyvA1Mwxvu04K9+/ZL8j8op05ylyxPmnwrpuhS2Sa54meU2TgtbRW2Fkn9WSWTKInv34I6VqaifAurobS1s7jTmGzZMjfbPk6KZYiqn7vOEII9Kz9MurrxHDLNcSJPLefvfkAVFL/OwCjiMA8AfhT4bdbSz/tCU7fNm25A2kuByOOcA16+Dre3w6qWtdIlo998efsSfFXw18Erf9p3wXLZePPh9u8q91TQ1l83SJkwWj1OylzJBGoZWNwheHaVZiuRXx59qjAXe6/MMj5s5+h7/Wvvv/gnn/wVV1z9hD48w+D9Xgj1rwPrUyxazpMgQ/NMTGLiFnHyuM4ZfuSxDY4PysOp/wCCt/7N/wAMf2aP2vblvgcIbPwR400208UaFbQAqltBqAKvbqMDEYuEkaKPGI4TGg+5X4VkHiJm2G4ofC+eU9JqUqE1tKK3i+0o/dY6pYdOnzn5wLLu+7g/SpPOYVzkF4wb5+v+fXmtHzZJCFQZPHA9+lf0A0locbdtzRF/ai5i09ifNuGVIbeNyGmkxn0+UD7zN90LxXT6r4q+BfhSNdHWTWfEeokYu5dN8m3skP8AEIjP5kku1sgthYzj5eMV9Ga34LX4Y/sQ6B4lm2nX/ivrUs4zsLxaDpQlhgjXIyEubpmuJCvyskduedlfGH9lIbcXCwDegUE4zwysCMnnnORj19q8Hh3iGjjYTq0/hjJx9bbnzmTZ9TzL2k6G0JOP3Hrnw2+H8nx51n+wvhlrdtDfSANDpuvJ9mdyuAqx3kGY93zYTfGCD/s1h/EDwL43+HPiC48FfE7w9c6Hq8GGe0uvLWORSfvwzLiOaInkOlcIsb+DHfWB/optGVyxwu8t8nytuwV2Z/h4GB/ex+2HwM/aetf+CoX7Hfif9mzxvaWsXxF0C2GraPqvlKv2i6tvmRwdo8iWdN0E+35WEhcLkFa/OvEji/NeH8ZSxkYKpg5uKlbeF3a/p37H5zx3xjmuR4yOJnapg3ZS0s4vb/wE/GJ33OWY8mgSjoMVz/2wSfvIo/KQ8hCApUdlIGQMdMdqmjnY9K/YKc1KKkj9mo1IzipQ26G4vJB9a3PDNpa63cNdyXSx2ds/lyzbVf8AfKPlhRP+Wj469lHWo/A/hmfx14p0/wAFxXBiGoz+XPPjm3t1QvPIo7mOFHx/tYFXvGnirSvEeu340DZHZW089vZwAZEcFufJhT5OoEKLub+I7jg5zX3FLgmq8ked1dIc3LHzfX7j5x8Rx/tL+zaa97l5n5LZFjVB4LnaLT7U6pp0e0gTTR2sin5R/wAseCI8/wAIbdW7ffCbxSfD48VeHHg8SaZE264+wRlLuENkq72jH50OOsZbGOnFcZZG0lYXDyNDD8zMG+cxg9s+3SvR/h5+1Tqn7N3iuDT7aGLVtB1Xy/t9pOiiR4IvLfdDIfmhlUqdrKO5UhkYqfb8LcHk+MxywObxfJU0TWnL2d+x5/G2JzHD4F4rLPeqQ1t0kv5TyAypc7ZYGEiyZ2svRscHHT09OKqnGeK+rP2z5dK8V/ELSvjP4RsrW107xjp0Uxis4lt4YtQtAsFwwVPl3TL5Ujsv33Zzivj6G4BQbMAY4AGAB9K8rxJ4Er8N5xVy2bvyWs+6e34HfwPxVTzjL6eM5bcy1XZrofE37SHPj6MD/n0j/wDQ3r58r3v9oiTzPiCu3nbbR59uTXglfCH1CS6HX+Ctf/4RbxdpHiGNtj2F5Dc71JBHlsrcenSv1Nsf+Ch2gafZXEOorc3pkC+VgsWVh1JZsfL7CvyDp+x/Q9M/hQB+vzf8FDPCTN5stk/PyvsReS3Ofzrzfxt+3DYeJdDvdPsxKr3kElq4bhSkiFM+nevzH2tjOOKMY4NAATk5pKKKACiiigD60/Yf13xb4X/bN+EXiL4caOfEXiPTvGOgXWk6SJlthfX0OoQSW9r57hli86UBN5BVc7iMCv6lvgV8av8AgpH8MvCCXnxt+Al58T9YutQ1TR9Tu4vFFnY3MOlyXNtpq2ElqsMo09rK6azW3laNbdbPC+QifvE/Jj/gj9/wTi1r9q0z/tF+DPiMPAOv/DjXdOutLmbTEv1S7g2XUE/z3ESDy5UB2srKcc46V/QAf2I/2xLuxsng/bJtYVkTUdSintvDumRyXqXrrJfzSzw3Ye7gfCrMXZ4gn7s8MRX5hnvjHw/gMXUwWKxFpwsmuV/oj9Fy3wpzrHYWFfDU/cnqtUj+Yv8Abg+N3xR+G3xs+H/w8+JvhLQLTxb8H01Fru0meDXtKu5ta1y/8ReVcWtxE0DpB/af2d4X85HEe4khiK6P9kf/AIK6eNP2YdR+LOp/8IbpF3F8YHtk1jTtKht9G02O3t9M1eySK2sba3aCER3OoQXsJjVFjltFAUiQlf2X+PX/AAQmk/aI+Kd78UvjN+0Ppd14n1hB50iaHa2hnFnGscr+SmoKu+NUBmKqNmeQo4rwm1/4NzPg3qEIu7L9ovR5Y2iln3R2dsy+VAcSvkaljZGRh26L3xXmrx94X2+s/wDksv8AI9CXgrn63gl/28j5i1L/AIL2+P8AQvDU8Pwc8FQ+Htdv7ZJLzUJL37Qg1GZFhvbi3gMEYjj2xwyWSFne1njWbzJCqhfJP2t/+Cr3wv8A2vrDwb4P8X/B610rw34I8XnxFZQ2eqOL2Wx1O7utR8RafLcm32k6jeXCyQTrEptQmzbNu3D9CIP+DbL4c3VpZaha/H6xlt9Sk8mzlTTYmjuJPmwkLDUMO3yNwufun0NSaR/wbTeB/EVoNQ8O/H2xvYGma2EkGlLKvnICWi3Jfkb1AOV6gA8cVK8fuFf+gn/yWX+RsvBPiB6Kn/5Mj8pPHn/BVHxxrvj34yfGH4e6GPCHiz42WGlprN5p118kOoQOk2qXtskkLNF/aM6vKEjkVrdpWEcmMLX1l8M/+C6UXwv8Hp4T0L4Ww28tvaRX8GpRarIl/F4ls9Dg8PWeqQyi32xw2+nwsqwKhbzJGfzccV9St/wbXeAFntbRv2gNOE16yR26f2Um6VpEEiLGP7QyxZCGUL1XkcVsWP8AwbIWlz4/8J+CIfjSqr4m1R9NM40Ijydlhd3u/b9tO/8A49fLABGd3tgzU+kJwjH3p4u3/br/AMjkxvg7nlHDvETo2jDzR+df7Yv/AAWIH7XPw7+IXh2++H8Ph7WfHDRwefa34eyt7R30C6uUW2Fuv7w3Xh+LyGV1jW3neNkLIrn8PXVi5Pv7V/cDc/8ABn/4Rtg8lz+0rYwrHI8TbtCChHjTzHQ51PhkjG4r1CjJ4qvY/wDBoJ4G1WeW10v9pjTrmW3unsZUi0VXZLqJPMeBgup/LKifM0Z+YLyRivFX0oOB91jP/JZf/InxS4dxn8p/ESAcDikyK/tx/wCIQLwTst5P+GmNN23c0dtAf7FTEk02fKjT/iZ/M74O1RyccDis+3/4NF/h5d+HrrxdZ/tQaTLpNizx3F6mio1tC0RAdZJRqexShwGBIxVL6T3AvLzfXFb/AAz/APkSv9XMZtyn8UGDXsfwL+M3i/8AZ7+J+k/FrwF9lk1HTfORre+gS5s7q2uoXtbq0uoW4lt7q2llgmj43ROwBB6f2Fj/AIM/vDR37P2k9OIimit2/wCJGPllmKiKM/8AEy4dyyhF6nIwORS6P/wZ86L4ksI9U8N/tHWeoWsozHNa+H/OjYAlcqyakQRkEcelc9T6VHAcFeePil/hl/8AIjXDeMeiifz9ft2/8Fg/2nv+CgHwh8Hfs/fEqPTdD8G+CIoRa2tk13c3V5LaJKlvJf6hqNxe31z9njnnSBGm2J5rEhm+avyXZ953Gv7SPij/AMGi918Mvhf4k+JY+Pdver4b0m81MW//AAj0kZl+yQPN5eft7BSQuN2D9K/i4cCNyvpxX6ZwH4oZDxNRq1chrqrGnZSaTW/qkefisvq4Z8lZWKh60lKetJX3JwhX3j8Fv2vH+FfgHSfCGJCNOMvyrkgiWYyng8d6+DqKAP1hm/4KHaN5sjW2mSYlOTuVPlwVPy899tYOqft9aZeL/o+nzRk+m0YByfX1C49hX5ehScACneXJxhTz04/CgD1L4vfESX4m+OZ/F0o2+cIwAewUYA/CvKz1pKKACpFhlfOxScDPA7Yz/IflSeXJtDbTg9OPSvpPwZ8JPDmmeErX4mfG3UJ9J0W7Q/2fYWiqdT1NVcqxt0k+SG3VgwN1ICm4EIrspUAHzYIpGIVVJJxxj16V9TfB/wDZS+KXxY0rxbq2nC30dfCPh6XxFMmrOLNrm3hdUMdusu3zGYk7cfJxtJ3ECo7j9pXWtBQaT8ENGsPBFvho/MsU87UJVY/8tr6YNMT7ReWoPRVHA5tPGH7Q+py6hqE95rV++p2R0u7ll+0XBms2dZGgLOGOxnQNxg5FAHi2r6BrugyKmuWU9kZAHQTxNFuU8ggMBwR0xxWUUdRlgRX0Xpnx+/aE8D239mya1fyWa/ufsWqj7Xb7V42fZ7tZI1GBggAY7V09rqnwS+Mn/Et8Y2Vr8P8AxFINsGpWCOdInfHC3loNzWueMTW58tc/NCF5AB8oNGQoJ4prY2gV3vxF+Hfiv4XeKJ/CHjS1NpewYYYw0UkT8pLE6fJJFIvzRyRko64ZSVwa4BgAxAoA6Dw4/wDxO9PHpcR/+hr/AIV+mW5i5IHFfmP4c/5DlkB/z3j/APQq/TSN8CgC2uzuRX7rf8EvviV8A/g18SPgN46+LPia28Nad/amvrqt1ePsiiw7iB3xjK4IUHtwK/B89a9K8JfGDxB4AfSdS0y00y7fQjcfZW1C0SaOMTsZJTIGO1xkcB8YHSgD/VH8Lf8ABQr/AIJvXek7rD41+DZVKj5pNZtIz09GkBr4h/bY/ba/4J6ap8IPFP8AYfxi8KXd7JpN5FDDbalb3DtJJA4QL5bnJYkACv4ePDn/AAVX/aO8OaUdHsPDPw3kRwFBm8I2UrDsBvdhivAPib+198Vfid9pj8V6V4RsnuARKbDQrey2K2fu+Ww69iKAP3J/4J0/sn/ss/GX9mnX/ih8TfAGj+NNai1J9t1q7XCj7PHa27FVaOQYCgttwoyeDiviH/gs1+zN8Cv2dvjV4Rsfgn4bt/CtjquiPPcWdnv8gzxXMsayBJHk2MEIDYIDEAivmz9nD/gpl+1T+yX8NF+D/wAGZdAh0GGaaZYdQ0mO7lEk7fMfNZ9zDvt6Acdq8U/aj/bD+OX7Yniyw8Y/G+8s7i90y1NlZR2NmtlDBbmUzMNkZKl3cnLE9loA+O/GwjbwTqhTgPY3G0Zz/wAsyOPXtXzbF8SJrN3069u8NbMUTOeFXgL+AGK+rb220+8srmxvU8yO5ieJwvGY2AUgenSvLH+Cnw027haTAZxjz246cdPcUAeZp8WBwft4X06/L/jn9Koap4q/4TLy9IecXEJEe9cn/nso8v8Ah5YHAP0r0+T4KfDNQGaOdQTgfvjjPHHT3H6VcsPhL4A0nUINUt4LgtakMFeXIDKwwcALkDrt70Af3+y/8E5P+Ce1344u/B9p8G/CzQrZGUvC10LyF2mMUYZTNja4VyjfwmIk/wANfxK/EfSbPw/431rQLAbIbG/ubeNSckJFKyKCeegFfptdf8Fxf2/WkuLiSbwmt1LE0TXMPh6388K3zbN5kyyK3KqSQG59RX5Nazq+o67qNxrWrSm4u7yR5ppD1eSQ7mY4x1Jz0FAHgPxa1C70yXR7vT5Cj20txMrL1BEeeK5+P4ozpGvl3wd8ZJLnk/3s57+leteKfDHh7xZYRaZrALKjO6PExRo26PntgA5PtXnEfwK8Fyn/AI+bouewdR+mKAKS/Fu5z+81EE9zvI/rX69/8EMPhJ8If2nP2yPENj8c9Bs/F2n2HhO+nt4L3eYY5FvbJVlGyVOVSR1Hb5vUV+SR+B3w/QZea647+Ynbj0r7L/Y1+N3j39hHx5ffEn9nJrY63qOnPp7S6rbC+iEEkkcsipCSqqd8MY3AFiB0waAP6Sv+Cjn7Gf7I3gr9hfxD8XPh38OdD8MeJdK1Czt4rzSTOAqrqaWUoG933JIhJ2dmxjhTX8spIZQyAAHoBjGPbHFfoR8ev+Co37Xv7Sfwwuvgt8Sr7RIPDF5LbzT22laRDYtJ9nkWWNN0JJEayorbQOoHbNfncrsVBIJPv1oA+X9c1+/8LeL9Re3uWtoprqUvg46RRMPz5x9Krx/E0wnzVvmJPP3jXuWrfC/wR4ivH1jU7RxcyMGlZJZFyEXGcdBlR24rJ/4Uj8N2y/2JuoHFy5GTwORx9KAPJLz4jTX0MgS7LHCkbWIORjA/xr+uj/gkr+y5+yB4r/YO8PfEj4xfDXQfEutav4jvNPl1C9SabKte+VuLwt8qrEuEPQsVB6tj+W5Pg58LgvmwWrPxn5bhzxnb2HTPFfqb+yz/AMFNf2qf2NvhNZfA74E3mj2fhi0eWeFLvTUvJ99y5mkLTu2SA/QYwBQB7l/wWE+Avwk/Z8/ajs/DfwZ0G08NaTqOi213JZ2QPkrcGWeF5I1cvtO2Jcr0yOOlfCnhFRB+zx42jY9NQ0IDPst8Pb/J9qP2mf2pvjH+1n48/wCFm/GzUra71O3to7G3SwtY7WCK3jJKqsSkjhndmOcsW44FM8CySX/wC8eK4Kr9q0aQjqN2+4GM9j81AHx/8XFz8P7/ANRGG/KTivOYvjDqNopt5dQMRgmkAR3Py5PTaOmK981XTNI1axn03VY/NtpF8qRFcqRjnHy88dfpXlM3wV+Hk7yTBZnALbmE+Rx1529vegDmH+L52BftwOB2cf41ymueOb3xNLbwtdGS1gmhfa7ErvDr26dP0r1aD4LfDJ1G2G4b5VbiY9D0PA6HtWhB8H/h5pdymom2cGJhjzZSRkfdyo/CgD0JWkKgkYOOwpMH0qWOVLpmMLLIQxU7OgYdR7fSjcuM5GKAPef2bULfFBUx10bWx/31pd2tfM9yrbiCMHnivpv9mVw3xdtYx/FYaqg/4Fpl1Xz/AD26sxkb+I5qJ7GkJ8klY1f2nNUvfEvwA8A3unJuj0mG7sJdrfclWXevHuh5r4I8JfEXxD4QnDWrh4lxlT0xX2DL400TT47r4f8AihXOkXxEokjI3W9wo+WUA9v4XHcV83+MfhPqulqmpaLH9qtJcFJbX95GwPQjGWQkdQeBXxvDVGGX03hKvdtPybP2DjZTz6nSzPCe9JRjGS6ppW+6x1Nx+0JfXtm0FpYhJfUGvpb/AIJ9alq/jH9pzT9cvX5sYJJ2lzhYgpAHPTHzBc+9fDulfC7xZrF7HYwWUkLvg4kQqAvZssAMe4r7m8E+IvC/7O/w+vNN8IzJqPi/U08ue6Q5itYwCPLQj7zA8k+oFcfH+KWKwFTAYP3qlRcq8l38rI9Xwcyp5XncM9zT93So+92btskj9Ivg/wDso+Bf2kvEmp+J/FOqappJ1TXtQ3T2cSS2VtDDcW6FZhgN585vcxruAAiddrclfrrxn+xbea34f0f9nTxx411m4stFu0WCOzs9OW2soosBHuZorZZv3qBltWaX75XOTxX8+Pg/x14kttLn0iLVby2gnYSSQRXEqhnUFV3BGAdwOj4+UcDIOa9Ik8XeMhb3EP8AbV9J53kpIv2u5G8W2DAXw+HERA8sY+XHyhWzX1eS4H6thYUf5Ul9yPyTi3N/7QzCpi/5pN/ez6L8feC/ht+zj4/+H3in4f61LqEepoNUm8yeC58qP7VJbJ5axwx7kMcbESsNsnICqowfzg/bKXWrb4/eIp77zGS6uPOjbkApKodQPoOPwr1+9Q3cIubmSRzEvlIZGJIj+/tXJO0EseOxz61w3jzW9F+KtrDofiS6WHX9NiEEM83CXUWMRo57OgACmvncXlUaObRzS11y8svLs0ff8PcQ1MXw/Ph3m5Wpc0Oz01R5P4K/aF8UeFrUadqESX1qoCgE7XAHHUV1HiL9pG51mw+w6ZpqW/Hyl2JA9z347V47q/wq8ZabdGL7FPwcHCFun+0owfqOK9G+F/wD13xNqseoeLnXRdEhP+kXd2dg2r1CA/MzHsAOK+hxec4SNJ2noun/AAD47LeCsfia0KCptX67JfPax+lv7Ot1qmjfsNeNNV8UXTmLxJcxLapIcb3Ey8nsTle1fPfh2eJfEtjdIRsWeKTPshUiqPxc+LejeJNL0v4efD+J7fwr4eiEdqjHa88mdrXEg9SowF+p7isnwbq0N5Na2m351kGcemelfH+HmRyw7xGNxGjrz5rdlskfpPjjxfhsZ9TyrCSvHDQUL939r5Hd/tGQvD8d/GyOpXGv6kOR/wBPMmP0rV0fXr6T9mLxx4J0k7LuIwaicdWgACOoHoMc+ma6j9qGxt5f2ifHg4VDr2oOP+/r8fh0r5yHiOXwJqMWvWSK/VJo5G+WWFx+8jK+npX0PGGQrG4aHs/ig00u7iz5bws4thlGZTnUfLTnFxduikrXPi3SfF+u+FdUi1TT5GjuFOGB4DAfdFfSVl+1/wCKLbTvs2oafFPPtAWTpjivPfFPw5sfEcr+IPh+4vbYkl7dTuuIB/dKH7wXoCBXmK+AfEsl6sCWNwFZti5iOfp6Zr1aGYUpU+aWi7HzGZ8K4uNd8kXJPZo9Huvib4z+J3ie2tbx2YTzIkVvGOC5KgAY9e1fu3F8CdH+PPx4HgzxPcahFJo3h/R7Nl0hI5rg3M93FaiVt4K+Rb/axLcYw2xOo+Z1/J34N+FfBPwguV8b+Pj9o1WLYdP01cZLkffn/uBew6/lVy2+J3jW48XXXiiTUZoL+/MnmXFvNLbuUlADRl4ypClfkZckFRtIxwPj6uFeNzinioK0KSevdvovRH6tiMb/AGLwfUyirJOpiHGXL/LGO1/U/oS0z9jy/wDgp8MtW0XRPHes3XhnxPbJ5VtpNlpzXV/cNiK8igeeCSVGiVX80RkERBGyNwNfnn+0d+x78KfgV8PtY1mw8RXGp6tZLpUKF7mBYJJdQjlnkPkpBuwscGYk8w7oyXLHbtPx3Y+NvF1uIpNP12/RrVi0TQ3c4MTMmwtEd3yErwzqQxHGTWJqF3fX6PHc3M1zHwxWaQ7flBUAKSPujhOPlUkCvvsVHnhyH4XhavLONSOlmn9xB+2Fr+veMvCXgjxTC5a2Gm/Zzt6CWA/Nkds+/wDd9q+FvCXjnxD4NvhfaJIy4+8nVTX19q+vaBaaY3w/8Q7v7NvSXjlz/wAetwOElwf4ccMBxxXzjrPwe8U2qNe2Vs15AxJSa1AdHXswxyM+3FfG8M0VltJ4Kvpyt2fRp/1Y/YvEOpPiCtDN8H77lFKS6xaVtux6I/7UvieSwaJrKDzm/iwetfV3/BP7XfFHiP4+N491hjLa6XZzT3X8KRxeWwC+n3jXw34S+CPjbxFdRwSafPbqpyzzIYY0Xu0kjAdPQV9oP418OfBr4XXfwm+Fl4t/fayg/tXU1yqgd4oe546E1x8a1vrmE/s3BrmlPTyS6s7fCzK/7Hxn+sOa/u40lp5vokjnFMQUmIgovQjpivoD45Ov/CMfDe7iI/feFUGU4+5qN8o56dq+SNF1F4Ln7LP/AKtjwOOB+HH5V9ffGSFJfhn8LrpO+gToB/sx6vqAH4YxX3OCpezpxh2sj8azXG/WMVOr3bf4nzqkW3g0hU56VMNzDJHWkyK6Dzmf/9P+XgvgYqv71dQop4bH/Aiv/oIqGTnPf9f50AQwlfu/cRjyw5OV9R2FcH+0h4t+MT6D4c8WeJhdzWdkhtNKmuLZYoGto8KYonVE82NeBkklT34rsL2dbW0bB5PasbQfhhqPx3uZtC13xNa6Hp+lWzXkmoarKzR2VvAxJWCH5nkZ2YRrBENzs2QAMmgDxrw1+18dKtBBq2lrM4AGS7EnH4V5d8Wf2ifE3xKhGl26LY2C8GND8xFeMaxZaZHeS20sZs7iNseWvzqT2xjt6e1ZVmtjH811mQZ+6vC/ie/0FAH0N+y/qPxL8PfE+z8R/Cj7WNQsUefzLK2F08MSqUeUxsjgKofBJXA69q+utS1O/wBZ1CfVtSkM9zdSNNLIwALO53MxCgLkk54AHoK+Z9I8F3/w48UeEfGWi69bX1nr9gssE2lTNFLZuTsuLO4RMSxSRtlSG+WRfmDbCcfS1tHC8atEwZSBg8cj8KAJbNH7ivov42Nt0b4fWrceT4Vt+P8Ae1C+l/rXgkOFwD9K9/8A2iCseoeCdPc7hF4T0sMD8u0uskuD+D/lQB5L4Oawt/Eum3+q7fsyXMYnJI4QOpbI9ga0/wDgpX448ZaL+2prfjJUJbUIrS4tI5F2pNB5akdehyDj34ryzW7sWsTQ2PZT05HPUfXP6V7L4t/sP9r74Y6X4G8RX8Fl438M2/kaZcXT7U1C3ByIJX/5Zyj+H34OMnH5nxPCphc3wuYuN6STjLur7P06H9H+FGIoZnw5juGKU1GvO0oX05uX7K/Q+LLf9rzWrez8tLJTIBtG8fMMdgemPavnDx/8SvEvxG1cX+uv8ifciThVHb8q7DxL8CvHHhXVptG8Q2d3Z3kLFXjntZGO4HB2sgYMM9Gxg9a3vBvwG8TatN9o+ztFFGcy3N6pht4x7ggMcfQCvuKmeYKMOf2it5H5Dh+Bs0niPq/sZJrrbT/I+/f+Cf3i3WvA3wD+K+p6m/k2NzYQ2a7+d0su/he2VBGfTcK8tuGeeZJsE55P5VSsviJ4W0bSLX4J+A7jzrK2PnXdyMYuLpecrjjAxn0J2gdK344YwAB8uO3pXyHBuU1IYzF4+rHlVR+6vJKy+8+98XOJadTC4HJKE+f6vCzfeT1aXpsEPyvk8Cv1B/YF0jXNV+Cv7QWneD1J17U/By2lhGpw0gMkjSYPXG1RwPb0r8wJsKmew713v7Pv7SHjD9mz4y2HxR8HqJILbfbX1kWwl7aSrtmibP8AeHQ4wCBXP4s8NYrNMkrYTC6yjytLo+V35fnY/CcRUlGjKpS3tou58CeB/wBoDxT4Anl0+9H2q2UkeWfvpjjb+HSux8Uftc67qNmLbw5Zpafwlm5+8OoH9a+uv2sP2P8A4f8AxCN/+0T+x1eDXfDN/I9xfaRwup6RO5Z2ikg4Z7dT8quuSowK/MhPhrrf2g24WdZMgeWLecSc9ONgUfTdX0HDPFWDxuDjOD5H1i9GvJrpY8rLM5oVqN78tt0c3Z6vrF3r8d8ZDNdSyK28nuM1/Rn/AMFD/iHqXjCX4P8AhzxN+91jw38P9Lsr89TvkaSVQ3oUD8g9K/KD4N/Dbwv8GtRg+Kfx0ItrWyKz2mlSbPtl9KMFFaLJCpleQ3HTzPl+U+o3vxR1r466/f8AxK8Wy4vtSl3vGjFtkSoI4olzyFjjATnrjdXzeY5LDMuIcLj4r3MMp693JWsvuNY4mdaulT+CJmQiQndIpUnqCMYrbEkYiAGcKOo657/1xTFQS/viNu7nHpntVO+lWztXKkZr9LnDnjL0PTxMOei0z6N/4KWeIdZtPBfwZ1jwu5Ph2y8IWNvbBv8AV74Yo1kQ47nCq+PunOa/P3w7+0/pNjYBdV0tmuUXYjRt90+uT29a+6vAnjPwL8bfgo37L3xlu10qS2uZLzw3rU65ggmk5azuFHPlSE8EcjJOPlUV+ZvxV/Z6+IHws8QT6B4jtGga3Y7GAaWKRc9Y5Ywyup7e1fmfhxRjl+HnleL92cJNrs023c/FfC7FU8tpTyLH+5VhJtf3ot3Vn1Ifib8d9X+INr/Z1jZR6dapxtQlsj8elfa//BJXxprXg79ou41yJmSxstHu7i7bO1Fhij79vv7QPrXwF4W+EnivxFqf2Oxs5pmxuASNlUL1BLsAqivrTw14r0D4GeGp/APhi4iute18xx6tcQMBDa28f/LsrfxMTlX9ea93jLCUcyy+eXx1c9PRdz6bxBp0s2y2plGG1nU0Vtku/wAjsbu6juriSeD7jsWA9j0qS0cg8021gjljWVTuB7n/AOtV4QKo3dhX1OX4f2NKFL+VJfcfc5Zhfq1CFFfZSX3Kx7L8GLuLTPF0vlkJPc2N1Hbjr+9kjXp/wEdPTNfnNo3xW8Q+BtVvoJIjNEJ38+Fl5GG7H8P0r6SbxXqvhrXrLVtAkHn6fN58Rb7occbT6qw4PoM+1Yfxg8B+HPitI3xF+GLCG8OW1DTcDdG7cs0a/wAcZPXHIr+o+H8JHiDg2OVYWSVfDuT5Os4y6rzR+e49rL8+eMrR/d1VFcy2Tj0+Z57qH7UVmtof7P0ow3Y5H7xdoJ+6MY6AV4RqfizXfE11/aWrTM09w5Ceihjzj2qveeBtdju/K+xMfL4PyOen4V6z4D+FctpcxeKPHzjT9HQjcZON69QI06k9q/OuE+AM3+twlUp8iXWWiiuv3H2Oa8RYKNCXI/RLr5H3jrHia5m/Z38DaDrIJmieW6QNwRGVdFx7FXVj9B6V5Gpcn1/Cs6y+Ilv8RdSknjXyILJVgtYeipDEMoAPXPJH4VvQRbAFbjHFd3jnxnRznPZVMO+aEIwpqXflVrnieHOQzwOBcZq0pycmu1+n3Hwr8eiP+FhzDv8AZ4h+leHV7Z8ecf8ACy7nHaOH8PkrxOvx5q2h94gxXuvwD/Z1+NH7T/jhfhj8BfD114m14Wz3f2K0KBxDHtDyZcqoALIOvevKNH0PV/EGrWug6DA13d3TJHFDEMuzvgKqj1PQAV+kf7JFp+3t+xp8WJvi78FfCDRa22nSWLf2paxTRG3n8pziOVk5yiYIpAcR8Tv+Ccfx8+Fn7M3hn9pfXhazW/iXWLnRYNHtvMl1SK5tHuY5BLCsewBWtJPuOx6ZFfAN/Z3dhey2N9C8E0TFHjkUq6sDgqVIGCPTFfu14M/a1/4Kr+EbPwfo3hnQtOgi8Ba1fa3pbPZWW9bvU/tvn+b+9zIn+nz4XHyHb/dr8/fj18H/ANq34keO/Ffx6+LGixi+1a6u9X1a4he1jQSSO0szJGknTOSAtAHw3RTnOXJ6802gAooooA/rO/4IJ+FNc+I/7Evx9+Gnh54RqGuRNp9p5zlFWe702e2jYsPuqpcZIXgV91fE39hH48+NdSu7nwl8M9I8Lw6tos9pHZw6jbFrSVbPxPbzW74CqrarNrFpcTJbnyI9rh/uJn4u/wCDdyxGs/s0fGfw2+sz+GUvZ7WL+2LV44prJntZgLiOSUFFeL7654yAeAM1+rP7Jn7JEvwxj8W6PqPxctviP/b2mXenu0V3I11c/aJWkW4vmjupNrwqdsTQhWH2iZmdgYhH/nd4lcR1Mu4izGrQqxi01o4N391dVof3p4fZesZkuCoOm2uXdSStbpY8T8MfsIfHnwbpniTwt4p8H2Xj173T9S03TNc1G/gjn08C41ZrXUJNy+abm6gu4EcIAGdZPOIUAHS8HfsW/Gafx74S8V+JvDMCaZpOg2GkXtlejRvPeeO01+GSQtZKsfkQyX0A8lMC4SQPKDJBz7t4K/Y2+Pnhf4teDvHGp+JIpLTQ763u9Qj+33sspA0Cz02dI4nyji4u4JJcMNoG1vvlhX6YZmUDzRzjnjHt/Svx3iDxNxOCqe0w7jO61tGyXyP0vIuCaGIo+zrRcPJvU/LbU/2Xfi1YeBfgTonh3w5o0934M8PWWi6rbXa2s1tYXnnaLNcXqqxVGZEsLtBPbZn8x0ZdwZq+W/BP7F37aPw4uPB0WgadpbDwrqul+JZ5BNbWq3JtLOw01tMjjtHCfaFgm1VJLuYFZ4vKJPmEEfvVgntQJOoGPl6+1fKYHxqzCglKNKOmuq73/wAz6XGeHWDqytzNaW002P53fhB/wTq/aZ+GkulaXr+i2+sQRxaYIbqW8tWfSnCaNPOd7Yfy7Sazu4YWhDPsKKmUPP8AQto48r47/CoEYH/CVSYz6f2Jq2OwHb0rA8d+OPCXw08Ian4++IWowaPoekwGe9vblxHDBEv988cseFB6ngV+PX7LH/BSfxr+1f8A8FefhN8JvCOiXeifC5o9U1rR5r62aGfXNlje2y34LAEW+VmjhRc9GMnPyp6VXC51xfRr5t7NKlQhKUmtF8O3r/TPzvjbE5Xw/lVbAe0blUsknq/+GP0H/aB/4Jq/tlePvj748+KXh2aK98H6xrPim+03QJbiCP8A0nWfBtxoi37SMwURyzra2ywkb49007fI2R6d8C/2I/2hfD37aOkfHi/8Ix6H4c0vxLrNzc3K3do8l5BeS+NJodR8u3d2bfHrmnW3739/lHBQRRBj0nib9jDxfq/7bD/HI/tJi9tm8SadqUHh/UNQ23ejw2D6g0uladFbXEcZinW5FqVniZhF5m9ZW24991X9lj9q+8/bSg+O1/4g0y/8D2+qm/tbf7Tdx3Fpby6eljcQPZMHglyLe3aCRHQRySXTlT5zV8xifEXE4bCxw8MTSl+50/dyXS1tbK/nbofyJRwkXZqL3Pz3tv8Agnx+07ZeDrCym8B2l9q2i6pp1rYi41DTbnTpE06A28lze2lyCXsLpHZUa3kh1K0KiWEbyVbl/wBmT9i341fsm/smfEf/AIaT8OR2Gm6pq/w8b7GfsmoGS10K+sl1Z5LPSUeCW02BjuMb3U8YZrgvwK/pjLtuZWwCpwwHOCO36fpSq5WQ3EOUYJ8uwdSQBnsMnpxnjrX4nhvHzMaOGlhKlGKg2r6a6a6HryyaEpKopH4gfH39lX9qm7+Ptz8Sv2bdI0200O/+JGg+LirtZJDJBY6NZ2k13c28wy0cMou5HCp9oWdbeaH5kBr7w/YYj0m1+CGpXXh2zNhpV34w8XT2EQgNqptJvEF9NbGOBo4WVGiZGQFOYypUbcV9o+bIWzgjqeg/+vimPPPLExkdmY7fvHJ4/AAfgK+W4j8UMRmWBeArQXSzXZbX8zpo5cqNS6PB/wBqJGf9lz4lGPLj/hFNaweuf+JfL3r/ABhbr/j5k/3jX+yJ+1d8S/hrp3wi8ffCPUPENhB4n1DwVr+oW+kNcRi9mtlsrhTJHFu3Mu4HnH8Lf3Gx/jdXI2zuPc9q/wBKP2ceFqU8mx/PFq8oW06WZ+e8fu9albsyhRRRX+kB+eBRRXs3g74CfGPx9pEfiHwX4cvtQsmyFnghJjYrwwD/AHeDwfSgD9JP+Cf/APwTi8A/8FB/hXfaX4B8Q6h4e+Ifh3UoZNTN/ZtLos2i3BSMfZpoBv8At8b7mEDkGcELHgivzz/aO0P4S+Hfjn4l8L/AeTWZfCWnXTW9jJ4hiS31FkgURyNcwoAIyZFfamAyqVUjcMV9JeHz/wAFBvDPwn0/4B+Fv7b0jwxZ6x/wkNvZ2ZS1P9pYREnM8RSRnjCoY90mIzygBJrlfjR8Mf21Pj98UNU+Mvxk0fUdW8S65Ist9fmKFGnlSNUDMsOxASiLk4HPJ5NAHw6yuzE4JqOvQ/HXgnXfAGtroPizT5dOuxErPBORv5GMjHABPIHpXn5jcHG0/lQB9A/A7wj4Zv59Q+IXxDga68OeFIkvLm3U+X9unchLXTxICpT7RJ/rWDBkt45XTLqq1o6FoPxZ/a7+NsOjaUov9b1hkREjQRW9vbRKEjSOJcLDBDHtjijXaFXaijkU/wAe6vdeHPgR4G+GdmscNvqgufE98wxvmuJJ5bC3WT1WCC2JhU8KbiX+/XtHwQ19Pg58B9Z8bae7xaz4idrOCXHyxWsZ2SfOPmBchkxx8p45FAH0o/gv4MfA7yfBXwtii17UYt6X/iC4RTJPOvBW3DEiOGMggFB+8I3FmTaX4yS61WfEt3dSk4GxckJs/hxt4HHY1gaVDH9ijjQcbEBA9FAwB6YrobSe302NmMiyzMQQMj5fnJwPTnrntQArXz2to9jqkY1G3mHzW9yEkUr/ALxB7A8YJ56ivA/jD+z5od34Km+LXwnXyF03H9s6SWy9srk7Lm2ViXNuQPmz/q2BAJUZr3HT1LyfLh2bnZDx+YPPHtXH6v4ztPA3jawazk3rfxywXcBGwNCxRjEw/iHDfiQRxQB4R8Obs/GvwifgL4kJm1q0jlm8IXOQX89Rvk0ls8tFdLn7Mg5S62KnE0mflCQNvORivTPF1hdfD74iXDeHZJLR9OuxcWkgbLxAFZITu/vLxz7V1v7R2jWem/GLVNQ06JYrPXUtNctkj/1ccWrWsV+sS44xF5/l4HQrjtQB5D4a+XX7EngCeL/0MV+mCfdA9q/M/Rsf21a7ennx4/Ov0vXAJoAfXuH7Oer+B9G+KUN944m0+G3Fpfizm1WEz2EGqGymTTJbuMBg1vFemN3yjqijLjaCD4dkVR8HeFvCvjXxF4mXxZ4i1XTP7JXT/sVrZzrbxOLhZTPu43AgxoUI/vFm4oA/drxL43/4J1eO/CS+FPB2p+HfCl/LLrMEur3OmqJYrGadWjW2VreRcsh/cGQGaOMSIjRllNcT+0P48/4Jpa38IvF2h/BC1sV1+4Mt34fuFspopkRRpNsbR/MB2M4iuL2F/Mwf3x4aULX5E2/wn+F8/E3iXXom7g3xbn+7kJjB6k9AeK9B8NfA39m2+Sa38TeLvE7nbkNDfCMBtoAODC3PHf0xQB5FMjwNiYFO/wA3p29KgkVlbBGMcVk22n6RpHi3xT4e8Palc6hpOnarLb2EmoTpNP5JVGjywCqeD1AA9BWsJPPj81ed3069xxxQBVKnPA69Pwr7R/ZR8QfB7wtYeI7n4y/2Pbwp9gubYajAt3PfiKZhLpkcPlFliuUO6W5jeN7do4/vjeB8P67cNZ6NdXUTDckEpTHY7K9i+G/hn9nPUvhx4f1fxdJqUupX2nwS3IXVp0xcFSZWVUAESnPyrnAXGOKAP2Kv/jd/wTUt9EsE+H2meG7e/hmNjfq+m/aEl06K5ufKkJliOZng2CSZRnaIv4ga/KD9pTVfgzrPjiz1D4F2hstG/s6BfIJzN9qXcsnmsBGGcYHzBcHI9RXVxfCr9k6dDA2o67M6LJyurzAYADcDaTubpjsa4z42/Df9ljQfhDr/AIh8Batr9p4isLfzdPV9UedWlE6rskRlAKleP/1UAeD/AC/w4x2xwKKq2d3bXNnDMrr86K3BHcA1ZbAWgD9I/wBh3xb+yj4ctF/4aPHh8w/2zbS3sGr2v2i6uLJDH9mFpsjZhHHOHe8UMN9udrA9B9Iaz8T/APgnzqHiC21m7tPC/wDwh87QvNp8FqYdT/tI6xBLLPIzWxH2I6YF82FWEe5ZoYVVhmvwS8QNa6hr2ieHtU1K40zT76+SG5uLVQZFiMbZ256kEd+g6V6/YfBz4B30EbT+PvFB3KBu+0IoIKk5AK8Dpx+FAH7B+Jfi7+xhZQanc+Gp/BsNqjP/AGfBb2VvfXF0smiSJFDPE1kGtFtb+NHiYSF3lmlExYbGHCftxeNf+Ce/ij4fa7P+znLo9vrjarb39iLHT5LZ2sYE+yS2krbEiiZ5HeZY1XBhiikJ3k1+ddl8CP2YgIJbzx54pJJwdt0i4A56iJj+ledfGnwL8Kvhj8QPDen/AAk8QaprOnarY3Ul2dSukuAJ4pPk2bEjwNh53DPBoAwoz5caxgjCgDj2qdCMVQiZJWKW+G2dQvbAz07cfpVgEbRQB7h+z7f+BtN+Luh6n4+NjFpsMkp83UVMlnFc+TKLOW4j+bfbpd+U0y7SCinKFeD+sHiL42f8E89Ut49PvtP0SeW1EyrJp2nrbQtcmHWVknc+RuktJJGszCgKlf8AR2yFRlr8av2adE+Bfjjx74ys/j7f6hFBpqWp0yK0vWso1Jicz7tgO7d8m2vtLTPgl/wTqvonuf7R8SxeaSQi6vNGRnnurHHA7CgD0D9s7x7+yT4n+FUXhv4HxaE3iC28SXVxPc6TbpH/AMSuSS7+yrDLFbW8bIIPIEqMP3O2BYwT57H8tHiZP3IXbgcKPT29sV+nWmfs5f8ABOS5sCLnVvFMZG5N39tyAY3benlDKbeT68+or8ur+Pwnp3xE8XeGfCV9Nd6RpfiC/g0uW+l86drRGxFucY3fIR82OTQBL5efSvpD4bbv+FCfEO3A+6+jyflcFf8A2avndFRovMjOUyVz2yvUfhX0Z8ND/wAWO+I4HVbfSW+mNQjX/wBmoA+9v2RPiR/wTv8ADXwZ0KP9oO20qTxhBqFxDKLu0ebda3V7az+bMUjIYwRWjxRqOdt249avfH34ifsXa1LokHw4Ph251RtZ0R1k06yaCOLS4y5lhuHMSoZkcu85IOUMKliV+X8S/HGoX2leENTuNNYrLHDmNlABRgvJH0A6jvX6k/CP9nj/AIJp+JPhlo+s/ErXvEqX0trA96bfWJP30zRqXwHh2oM9Fz7UAfQvw8+LP7C1teTeDf2h9K0m8uTrHiG7v9XFul1Kv2q4eytUVoF+cGK4+1rIGMcQtEKrk4bqviN8Tv8Agnjd+BNUX4Ly+GNI8YOkcdhd32mu1jb3UTXCXEw8yCVBHcW6K0IaMhJZkUBCg2+VSfsl/wDBJC702M6P4r8ZRPCoMko1gBF6Eja0PHQjj8K+O/21v2eP2NPg/wDA25+IH7O/jrW9U8QGa28mG41AyxbHkRHEsTwISRGWKMOOKAOE+PGpaLfQeDL2yube5uE8L2cN0bQx4WRLi52pIEHyyCERAq2HXjcK+dcK0YI44HAOcVOkpKiVMKWGdyd/fmkC7m3Mck+tAHu/7Ly/8Xr0tMfet75R+NnOv8jXhExzGM9a+gf2XgD8dNBT+99pQfV7eVAPrg9K+f5FDLk0AfOPjZjPrMsT8AZrDvNK8c/D66tzcQXmjXVxbw3dtlHjaWGdPMhlGRtKSJ8yHuvI4r2LxR4bGoyiW3Xa6g5bcRzywGRzg9Djpmv0W03/AIKX+KdIW2tbP4d6ZFFbafFpexJnKzW9uwNusokVjmOINESOCHb5exznRpzjySjc6qOLrUpfunb0dj8Y9W8f/E3xhqMFj4h1GeYghQpyvy8YHyDpgivRjYanpu20u7eSN1RThlYfKVBU/MM4I5B7jmv15m/b902/kTxZB8NLOHXIIJYre6F1GCi3EYVjgWwOYsKtvj/VwKsfWvzy+OHjjU/i58QZPGc1g1rJLbW1qY2lMoQW8MUI8s4AVNqDC9uR2pYfDUqUPdio/IvE5niKs/3km/nc8s0iWSG7R41J6ZxXsVvMXjVzxkA15xoXh65VhIw8sHoCMY/pXoaJ5SCPrtGPyrU42JfEGzdR19K+cIvC3iLxb4tPhnwjYTanqFw8zxW1ujSTN5QaR8KgLYVVLdOFBPQV9HzIGXiug+CnxNvf2dPitF8Y9H0a31m+t4pobaGaR1SM3CGN5GVMMf3bSLgMOWB6cUCpz5ffgfI+nfEf4n+D9LltPDurXlmkgy8P3h+bDpXPeH7zxd431SS71eS8v/JVpiPmkUbQWdj2VVAJPYAe1fs/Yf8ABS/VpFGn3nw7sPsNrY/YbO3luEY26c4Xd9mAKEbElA5eNdvHFZPiz9t2DXfDup+GfCvgiPQrPVLGe1kSK6DNuuYTC8m9YVBPzE7QcbPlHIrkp4Okp83IlL0R6087xtSHJKo+XtfQ/LKGfu+Ae4rvfBt81tq8Dx9mHT6isBdK1FDsMQJHGcda7TwzpTwq146bWV17e1dZ5J9XftUbI/2hfGBUja+qzyk/9diHP86+L/iMXNlgA8DB46V9pftYQbP2gPEir92eaBye37y1if8ArXy54i0r+0LWRGHzEnjvQB89+C/CfjnxrrNt4c+HllcXuozGRkjtBsbEaGR3LgqFVEBLFuOKz9Z8Z/FMOnh2TUb11jYQrEHwytnYFJUnuMcnBxXv3wX8QxfB/wCI9t421HTpdUs4t8V1YRyJGt3A6GN7aYSxyIYZR8sq7eUJxg4r9HdK/wCCjpkntrS5+HGm2umQ2MFkLa0aKHyBBjY1vILcsTEM+Q0gdkZj2FYVMNTnLmsn8j0aGZYilHlpzcY+p+SWk6FqmkPc6R4ijkt9QgkZJlnbLh1OGX2IIxit613LhVUjHavRvifqn/CfePNW8Z2tobP+1r24vPJ3GTyvPkaTZvwu7bnGcDOOgrhodJvQ5HPFb2OSpV5/fmd94enzbFF7DpW6xyo+grI0W1Wytct94itNGzye9BieGfFJW+0R8dqxdC0b4peHfCcvxN8PQ39lpCzmxN/GxjgM7DfsUEjzCFILAKcfSvXPFfh9NVtzMw5XpXv37MP7Tqfs4aTPp994Ui8UTRzyyWjX7RNHYfabdoZXs4nhbErgr5hZijBQGXcqsCahKHs5JfNG1HF1qMrU3aXk7fkfnoLj4m+MTc3Ek99eQ2ao9024iOKJmCKz9AqliAM4GeK9L0+MRwpEn8IA49vpX6VfFT9tK4+M/wAI9R+G+t+CrfT31C1trY3VrdLhkt51uEMsXl/vCiIsEIDAJGXB5xXwBPpEsEjNGhJz2GawpUqcfcUEvTQvGYrEVv4sr/O5Ut5zHdoG4xjrX2z8QLn7d8G/hpN1Mel31v8AlqV038nr44sdMnubpDNGyj3BFfYvjaKO3+CHw9lUj5Bqcf02XKn/ANnre1jmSPBhKCPl5HtUR604R+S3l9NvH5VXZzuNAH//1P5cf4qlyKgphLA4xQBzWuT9VHavV/2efgRpv7QGvX3hi51OXTnsbUaj8kSujW8M0aXshzgr9ntXknwOCYjnFeT6rB5mdvJrE0+TVdOunurOWSzJRoC0BZC0Uq7JELDkh1PzL0xntQB6T8c/2DdK0vUhqXhHU9UnZrm1sLkXdqixPLPNYIZbfyzj7OFvPlY94s5w646H4Kf8Eul+Jug6fq95rt3ptwbu1jv43tFH2eye5vLeedQzBmdRBEyKR83mbegFePeKrv4m6ppaKuvaoz21sLGPN5Mu23+95IUSDESn+DGM4/DwHWfE/wAabvWJLjUPEOtT3kzKGka9nMjBV+Vd3mDhT07AdaAOj+M/wc8P/BPxzoWi+H764vWu9NstQuGl8obGu4lkCqsfKAbuMnkete5aYzi1i3ncdi5b14614DoFt4z8VXNjqPj3U7u/+xRiCD7TI83kxAYCpu3bEHQIp6dMCvom1g8qBIWOSigdMdB6UAaI52AdyDX0N+0jNKPGOkWmE/0bw1oPpkbtMgfn0+/Xz4mFniz/AHf5Gvdf2kSrfExEz00Hw8h9v+JLZ5/WgD5G1RrlpHO4A5PHpWJdEKqZdwxX5Odvzf7JHvXX3thLMxZUJ3E9q/cf/gix4i+Efw60/wCIfi34u6po/h+yZ9MtY7rWjFHCXk+1MVRpgwDssR4HJx0qHGHLyS1Kp1OWX7uVrbW3P5srj9oD42+CtYOnaXrdxPAp/dRXIS52DsF8xW+UY+X2FcX4y+KvxG+IcqL4t1Sa4Q4KosflRc8j90gRM/hX9V37aP7T+pftA+JPiP8ACP8AZU8R+HfDeg+DtDudVOrW2kRXl3rslpCs9zHZ3oXFpCufL3KMsQTgdK/Bb4X/ABc/ai1n4peH9A1Lxfqs6XGp2sDh5I2iMbyquGVlPD5Ocgcdq8ynk+FU+dU0peiPoXxZmsqH1d4iTh2v+Z8gfDd/K8RRNbfPyPuj+gr7XRiyBm4JFcTq/giOw+KXiHUmiELf2ndsFUbVGZm4UYHA7cV2yHKg+1etY+dbfUq38xWxbNea3MmxfMf5V65PTFemyxfabd4m/CuMOm3FreCWIKUHBXpwQQevFAjgb6/8WaQp1fwpeXGm3KBit1ZzeXIQn8BK7eB0IJP0rhrr9qH9oC+tV07V9fljRRgssMMcpzx8zhFY/nmv1E+OfxT+N/hT4hv4I8JeJ77StOs9M0mOOzt3SOKIjTbbcNgQ87idx9a+wPgN+0b48/Zv8KeAPHXxC8QaZ408M+PtUnh1Sw13SI4tT06KPy4pLy0vZAzXFpEz7W3RiJpVkC5w2POq5dh5tSdNOXV2RhUw0LXsrvfRH80FzqMur3b3OoXL31y+SZJGbe3qdx7D06V9PfBWST+zZD94AdQMD8u1f0Ff8Fitd+CfxT/Zn8PN8F9Y8O649p4qhjmk0L7PIYomsrvEbm3UFQSPXHHHSvwz8HaImg2LLuyZRknpkmuyNJQ9ymbJJaI7JXJUH2rlPEEzbCK6hMBQPasbWLPzo/kG76VqM8tlhMyiTYCGJGSARx2bOMcdK4PxR8U/ij4JvYrfQtVuPsi4C2sgMkaY4G1ZQwX0AFfox+xt4B+Knir4g67p3wasr3UPFI8Oak2nQWCpJdbyiqfKVgRuCsSB1Az7V2eseFP2yNK+Lui/Bb9pfxP4o+H99qQhlQX8UcsiQSl44ZgrPHEIpJE8tnMqxqELN8q1x1sDTqfGk/kceIweHrfx6al20WnzPyH134rfFHxnE58QapcBHBGyNPKDgdjsChvyrjdElUXyCM8hkBHcHgYr7u+J/jD9rH4WfE/X/hjJ471TUH8P6lc6cZo2KBzauYWfY3zIG252tyOh5rO+PXhjWtf+Ny63qrPJLNpGiSzsQuZppNLtWZ2A/idjuLfxMa2o4WjSjyUoKPoXhcDSoR5KUUvRGjokhOjoD/Fg49u2f6YrSnmZLZw3H1qtaRtEArdgB6DirEmLj92/AHFbI6UeUahcZmZB1yeK5y+ae2jkezleKVMbTEXVkdhkZKjg16HrGjbLoS267u/yjNfVfiX4g/Fr4cfCj4daX8NdbutDS8029u3SzdFEsrajPEGkCruZhs28ngVpQxNalV54uzjs07fkZ1KFOceRx93zPy9Pxl+LmnmXRW1GVhk7maJXY9ed5XPOOtc1eapq+uomoa7cSzS7tibz+QA4x7cV+yGo/CT9sG9/ZJv/ANsNPHWrWulrrCaTa2zI7/afM3Cef7Qo8tI4pVSPBzlmOOVw2VoPwR/4KAQ/s++NfHPx90PXx4Ju/C63Frf6rFG1jM11d2X2Vo2U7lMiuTG3GRxjnFe9j+KcfioKNWvJrtd2OSjlGHpy5o04p+h+cPwnu5I9TW1X5vMweDu6989/rX1C2FYr6cV5N4D8KnRIWvbtNtwTge309q9OXdt+bk186d58HfHZ93xKv9vQLCP/ACEteNtyxNeu/GvH/Cx9R/7Z/wDosV5DQB1ngrXE8NeLNO8Rsu77DcQzjDbT+7YHj8q/QKx/b4u7HT5rJYJWU7TGjYKqR1JJOSW4P4V+aNOCsfujpQB+ll3/AMFAdXnHz2HydlXYMD069q8v8a/teah4y0fUdMa3e3N5bSW2/dkbXjZcFfxxXxFg4zikoAU9eaSiigAooooA/qM/4IO+N/CGmfs6fGbwLrU8sF7rT2MVuF069vYCTDMFErWlvNsVj1z26DFfrT+zl4X+Hf7Nmna5b+EdYe0ur2zuhZ3TaRrVyI764s7O2hLhdNhPkobLe4XnLYH3a/Pz/g248ZWXgX4I/Grxdql19isNG+xahdSFgirDb2128rnHPyop/Cv1Y/ZK/bw+Ln7Rvi/wzoXiLxLoGgCLTEbWNNuInin1K9mvdWtgmnyySRyQNHBpkF2kfllWgmlEhG1CP4E8WMhxFbPMbWw/wXjzK+9rW6EVfpYZ1kL/ALOwuDhKNJWUm2mk/JHy38MfhLpfww+HXjLwQvxNv9Qm1d9Jj0m+TRPEdjcwW+kBFhEs0Vs5imWCIeXJDuw3XOK+zf2evH3wy+D9pqh8VeMNZ1m61U2MQVtK1uW0gg0ywhsYTDG9n8k9xHAs15yVaduPlVSfmzXf+Crnxe+G8PicfEC5tL6ew8RwQ2ESWqQzNo8F/rEep7FtpJg6JZaSywzSqjrczFpEEQjY9zff8FAP2jtOe+mv9f8AD8dlpmth717a2h1COLQ7iWWO1mtHivi1/YOEAnuIP9PtH3+Zbbdpr4nPeCcZiKclieW01fSy7eXodWA+mfxNhJRq0cFTsl1kz7nb9q74FIdv9pagccZ/sbV//kOq9z+1n8DoYxJb6hqUhTc/lR6HqzyttXOET7FkljwF4BPOcV9XjV9ZcB1upgD0BkI/kacuraiI2JupA/Zg8m4fTB/lX4hQ4fwMJWqQf3/8Azq/tI+KP+gOn97P4i/+CoPxt/4KIft4+Mv+EQ8KfCXxtofwz0ufOnaX/ZF8sl2ykgXd7iLaZWH3Y8mOLPygkszevf8ABKe+8YfAn9t79nbxj8fvB/irwH4f8C6Freg6hq2q6PeJam9vJ9Yv4hAyQuxzFdKvK7tyPxsXdX9ii6rrBUFr2ZjjqXbJ+vFeEfG7VdVk8Q/DkS3UjAeKUH3nP/ML1EeuP0r+wPDfjPDZ9KhwTDCxo0q14Xi9UmrX82z8Mzf6V+c4rEzxtelGUp+e1tl5I+dvJ/ZKuf2odS/aQXxrpDXV7qNzNABaawg8qe71KZJZI/7GbMoh1I5xP/rY1IfbWt4h8X/CzxN+3On7TLfHGzk8NyalFf8A9gnSfECGy+y20Nqr2v8AovlPJNb2yrKGRFzNKRk8P4f8aP21v2gfh7438YvpN95ejaB4sj8PwLeaVHHYCF9DfUyw1ETh5rnztoeMxqqxlRk5Fem/B79rf4peOdA+G+oaxPZxv4r8W6hoN75aeUFtLXRb/UI9ilwqS+Zaxjd3XIA+YV/VWD/ZyZE5tzzGpzcqj70I6R2sji/4mYz9w/3Omr9pPor/AJHr/wCyT8R/gp+z14n0XVviL+0Dea1baLDeo9hDp+rmG8+3Q2dvDaz+bp6/6JpxsXuLXCh/Nupg7Ntka4/SqP8A4KOfsUhEjHjxTnCj/iV6oCeAen2T0wcV/Pf+03/wUD/aC+Dnxu8T+AfDFwn9k2N1pdlZSf2V9vniN1L4fjnMCLdI97deXq85W2dI1+WHEhbcKq+Ef+CoXxm+I+uJ4B8Krpo8QyeCdC1oCLZJ52s6k9jJd29h588UEsgsdRt5Le0eZS11uiaQgjP57xN+y84TzHGe0xmZVbxVlaEYr7kerhPpJ8TQw0alPBU7f4mf0Np/wUb/AGJ5V3x+PUIxnjTNT6f+AdL/AMPG/wBicf8AM9xf+C/VP/kOvxo/Zn/bA+LXxj+LUHhnxRqumyaFq/h231TTZNPtpYftTpa6ZNdMJftEz20kUuoETWN1FG0cD2k0TSrIxr9DDqmtodoupMDj/WP/AI1tlX7G3g/HU+ejmdVf9uo8HN/pnZ5gZ+zq4KF/VnzH+1x+0t+zb8SPiLf/ABUt/FGiah4W0TwL4gs7MJDqEGo/2/dWN5bpPNC2m4uYba0uJoLZTcKqG9u3YZCZ/wAw+bcZWL9c1/qdfHvV9bufgR42iku5P+Re1QfePT7G/tX+WROCtw4bnk9K/Zso+i5hPDChHL8HipVlNL4klyqPa3e59z4deMOI4uhWr4mkoODSsvMz2+8cUlOb7xptdrep+mhX2r8Ff2qW+EvhTTvDtrC7tZu7Fvl2kSOWK4z+tfFVLikB+pkn/BQ20adZF0g88twvH3Txz/s1z+u/t22uqr5djYyw+h+UdOnft1/SvzWMMq9VIx7Uza3pQB6f8VfHY+IXi5/Evzq0iKjbznG309qx/BXiTR/DHjLTfEWvaXb6/Y2E8c0unXhlEF1Ghy0MhheOQI/+ywI9RXEYxwaSgD69/ak8W+FvHfiHTPG/hPwJovgSx8Rpc6ta22jT3k8f2ae6khjhk+1SMitA8EqARJEuOcU/7Z/af7PdiNP/AOXJXjkT+7+8f5iO2axLew0j4kfs2CaxjY+I/h5OxnA5E2h6jMgRlHZrS/lKt/eF4n/PM1xvwq8YR6X53h3U9slrcjCo3+ryRhgB/e7j3HvQB7/8KPiFp2r6N/Y164RkIAZiA2Rxz7V7lHZzPll8tx/eGCDX56614Z1PRNQbVfDjSSQglgU5ZB2zjqKns/jB40tbY25uT8vH3nHT2zQB+gGrahpvh1BqGoyJEixglVYByccY7kfhivizxX4tbx98QrZrRdwSZgFUYAHAA4/KvObzxN408WTrFG7sZPlKx5JP1Nel+GF034bwT61qkoGoGIxwgEF0LDDAdumfxoA5D4sXian8RLxhtcRLHFzyP3USqfu+mMcc4GRive/2hvHfw6Hw68P/AAo0r4YeH/Cmt2kVtrUutaZeahcXE0GqWsNzDbSrdyuuFjkVmB3BWO1CoG0/Pnw48Fal8XPiLaeGoZktBeu8lzcv/qrW0hUy3Vyx7R20KNK3+ypx82BVH4v+Nbb4g/E7W/GGmoYbK9uWFnC+MxWifu7aI44/dwqi8elAHHaO4OtWzHjM8Z/Wv0rJANfmZp3/ACFrb/rqnTp96v0ydV3n60AGQK+UvHOt3Oh/EK/vLOfyQWthKvTI8psY/wA9xivqeQHHFcZrPw98IeJrttR120WWUbNzBnjJCLtA+U84FAHgdn8SdiKJLpMgDJ5qxP8AECG5SQR3y5K9OVH0Br1P/hTHwyPSwf8A7/Sf1NJ/wpX4bj5/sDhf+u7+n19KAP6V/wDgh58Gfgp4l/Ym8X/Er4h+C/D3iXVLXxOq/bNYs4bmRLY2enM0cTSEchJJGiXcoMuAckgVzn/Bcj4MfB/4RfEvwJe/Cbwtpvhf+09MvVuYdMgW1SdreZFQsikruAlbkc9K/Mn9mL9sz9pz9ivwHc/Df9nDXo/D2iX9695NaPZ292ZLp40jMjNOjvzHGihcgDGcYrnf2g/2sPjz+1j4gsvEnx612XxFqGlW/wBksswwQRQxMTlVigCDLPyzkHoKAPl/xN5UuiX5hYuDBMASck/u2H518jaV4tg0eGKxe48xRBBtKgkLuhXcMjj5TwfSvs27+zTFROwmiZWBAG0MDwSOnFect8J/AROBpULZwB+8kyc4x0OOcjp6jFAHib/FGCE4trnBHfDVl6r4y/4Si0aynuZZcwykrkhdsaF8DdjjKjj8q9+b4X/D9VAOlRccdZf/AI5VM/DTwRayoV0aKUfe/wBY/wDe+7tLMOn+BoA/0G/Cf7Mv7HS6np/gG8+DvhLZJolvf+eNNhcuzkxurgYYKAoYS4++wUnNfxCfHvw/pXg74z+L/CGgW4tbHS9av7O2gHSOGC4eONBnJwqqAOa+1LH/AILKf8FJ7PSItOi+IsamGMIrf2TZB1Axgb/KJ7dieea/NbxJ4k1XxDrk+va5cte315K89zPIQXklkJZ3YgAZZiScAfSgDx34p293JBpi2z+TILxdrHgZ8tjj8uK8kt/HMXkIHnRW2jKnORx0r6K13StF8S2h0zWLcSxs27cAwZMcZX3wT+FcaPhR4GeQutrOgPIAmYAD0xjigDy1vHtmBj7UPwzX7Gf8EKfAvw++L37dlrZfE3SNP8R6Y2jan5dtqEKXUSyoLYrJ5bdCM4HscV+ZX/Covh+eTaSZ/wCuj19Jfsy/E/x/+x146f4o/s3Xo0LxM9rLZreNGt1i3m2tJHsnEka52oSdoagD+tf/AIKA/svfs7Wn7APjz4j6B8PPDWk65pKR3Gm6lpenDT7hYl1GKBZVMbbws8RYkdNrjgCv47CZY18ub768Njjn6DGK+8vi7/wU4/bf/aK8A3vwm+J3jf7foGpmIXlpFZ2tv9oSORZUSSSCIMU3opKD+6vavgT5QUiU5JAwO57CgD5x8Saw3h3xtq9803lAyW6sgOGZWtyRgenA/SoR8TLGEeal2+TzjDV7tqPgPwpq1w9/q2npPcSAbpSWHT5RxnnaBg1RPwo8CE5Onw/iZR+meKAPGD8UXa3fZqLDPQfNX9Y//BF/4b/BHWP+Ce2r/Erxp8PvDXizVv8AhM7uFrvV7JbqV4ZLGxmKMWwRjcdoJ/i+QF8K380KfC34erwdIjPv5kg/rX6Afs0/t1ftT/sc/DiX4Wfs4+IoPD3h6W6l1A2Qsra6zdTKiyOXuY3ckrDGMbsfKABigD9A/wDguL8FfhP8Jvj34WtPhF4a0/w1BqWj7p4tOhW3jlmimkjV/LHyBug3DsK/M34ZoR8GfifEcbhZaTwPQarag8egzVL4/wD7UPxw/ag8TWvjL47a/Lr2oWlv9khPkQQQxQ7t22OKFYwBu65G49RVn4THd8HPic6dtGsH+m3WrFf03UAfJ3xA/eeDtUCcnyJOB7LXzXaeOotNjfS5bhjGHJwCcD24r6y1Kzg1ASWlzHvhlUwurHhlZQp6dBxXDH4ZfD7GP7JiHt85x+OaAPHP+FseXDNDbXpSJtvy/NzXKeJvEkfiNW8qfzUhVJGDFlH+sVRgHg4B7elfRf8AwrD4f/8AQKT/AMe/xqdfhr8P4QI00qEHIO/5zgemM9qAO3gGyBEPZQP0qTcvTIqIrsOzIOOMjgU1QmetAH0H+y0d3x98LIP49QVR/wACUp/WvAi25Mnqa93/AGWHA/aH8GKP+gvAB+LgCvBD78UAV5FBHFQfZbY8svNWArHoKaOcgfw8H2xxQA9UjVQBwBS7LXuooMUi5BUjHtUZGAWPAH6UASbY+3AqM4FLjHBpHVgNuOcZ/D1+lABSSLaleV5pEIZAy8gjiopB5Y3PwD0zxQA2OGMNkRLjtUjovbA9qehDJvXkL1I6Co2BGWPQDJ9hQAz7JGRuJFWbceSVtk/j549ulRb08lXBG1uh7H6VKkg8tJ4jloyeB7YoA+if2qm3/GfUn/ils9Mmx/vabamvnaQ+afMbq3NfRH7UoJ+KyXy9ZtC0WTj30m0r5xGSdxFAEUtnZtyy5NNihtVONnT2p5kjO4gjCnB9qnSGaRmSNCSn3gB0+vpQBXe1RjlelRw2ihvm4q4rKTsBGfSmtyRt79KADYo4BplC4YZXntxSkEHB4xQBGS037txgDiongQfKI1OKs7lZginJ6YFABLbAOfSgCKKFR6CnmBM9qkWN3+4pOOOBTMhZBG3BPIHtQBLEijivoXxcnnfs++BpR/yzvtbiT3O6zbH/AI9xXzypGTX0P4nYD9nXwSF6rrOuZHpiLTmH8+KAPnoyM4DYPPrUWD6VLI+3j0oDDFAH/9X+WvJVjUDSjcadLJxVE8mgC4XgIxsyf/rVu+HNK0K/1wWN9MsEKxLNPt5lCf3V93PArlfOMUe9yNqDefYLx/n2r2jxn4d8OeAZtJ8J3Tn+1m0u3vNSdO97db5XyO4jVlhTHA2+tAGmNU0KKy+waf4Z0p0mA2m5Rprg/wB4mUSjaTk9BjOMdqXw58HfAHxH1b+ztOubzw/qMq7Y4gftsCycbT9nf94UHCsEcEdQDXGeVFGv2RIlVx8oby+mOP8AD8q8s+LPieHwN4Xla4lAvZYnWPbncPMGA6lOARkYA5HfpQB2fjj4c+Jfhbr7+HfGFp9lnZGnguLdjJa3MKkAyW8hAyORuQ/NHkBgDxXLpNCSdpGOwzXsPwe+LusftD/su+JPhx4meO5v/BTx6zptxwZEEY2ypu9ChZc9Cdp6qtfPNvc+aBIf4hmgDsIm3xCc9Izt/A5Fe8/tNLHD8YJ7QEbUsNIQ+g2aVar07HivnrT5TIpt/wCBsZPavff2k8S/GTWpD/AtvH/35toYx/KgDwrd5i7uhfGM9vX86+i/h/r/AMKrr4L678L/AIhaxd+H57/WNP1W1uLfTzqKypa293A8DqJojGd11GyN0whFfOu1BFuyNoH4V9E/Cb9kr9q345Law/B3wHL4kj1IFrb7HdQSSOidXNupMqqOTkjHAoA1tG0/4EeFoLiLwp8XNXsGv7WWyuvI8MXEYlt7jIngdlvTmOQHn39qm+HGl/sseA/iBonxA1H4g6ldxaTqFvfSWq+F5l85YZVmKAtfbQWxjdz9K+stF/4Iof8ABUbxNbG+X4Rapbp1AkYoSO3Hl/yry74r/wDBKj/gob8FNBbxT8TPhnPomlo4i+23twIYNzfdTdIiqGPbnntQB8DeIdSg13xJqGvQRmGK9uJbhUbAKrK5IBxkcZxxx6VlfOrlcYxTtUsNZ0XxTqXgvxPaNZ6npciQyxiZJlTcgkUrInylcHn0qCNisargjAAoAnVgCc8U9FimmEjxmVlUgAgt05GOwH/1qi2A88Vlalqc2mz2dra276jdahcpawQIUj3SFcqC7kKqqP5UAfaXxMvP2aPiZ4zn8cxeO9T0j7XDar9lk8Oz3DR+RbxwkCZLpVYfJxgDI7DpUnizxN8OfiF4b8P+AfH3xq1rWNH8OxfZtLtrjwvKYbGBePKiKXYk2EAHBJAPavmKL4cfGp/nj8HyDvldTsiPyD8VEPh98WjIUfw4oY9VOpWef+BDP8ulAHsXi66+D3h74KD4ZfDrX7rxBeXOtW2qySzaVJpqQRW1rdQBQzTymQu06kKuANvQV8+GNCcxghew9BV7xF4V+Jnhfwze+Jtd8PeVZWMbTXDxahaySpChzuCK2WA64A6VnJcJKgljYsrDIONuR9O30oAkA446Cl4PSk+9hvve/TH4Uc9+f0oA/QH/AIJrftN/C39kv9o0fFf4yW99PpA0m6sYzpsCTzRTXBTa3luUUjghjngNX6lftI/8FEv+CbP7RN1p/ji0ufHng7xtocE8Gk+ItH06BLiFZUKiK5iaZ4ri3ySfKZcDc+CpYg/zc+ErHxR481HUtI8F6et2NHeMXDzXkNrmSVGZRGsmC4Udcd8e1davw0+LPBbQIScZz/aEHT19vwoA9S1vwX+z3r+pzeJta+KupX2oXLPNLPP4auWeWaQ7pGY/bM7mOfmPU1yPxp8T+CfFfxCm1zwFPNJpkVvZWNvJNAYpZBZW0VsXaMlihYxBguTgHGTXPD4Y/FBhv/sS255/5CVv/wDEe1cjrVh4j8PauvhrxTZJZ3N1bvPbvFdRXSGOJkVgTFwjLvHynB9qAIGUxsY5Dll4J+lQkHNNy7/M5LMepIwT+FP3MB0oAUxxsOoyMZ9q+qtS1r4F/ED4eeCtG8R+LL3w1qXhfT5dOuYItDkvkkL3tzdLOtxFOn8EyxlNmRjrXyFq2p2ei6RdaxeB5kgjJWMHqcEBUB4yWOK6VvB/xoZhNceCLiNm+6v9o2YH0+9+lAH6Pfs0eJv+CeXgKS70j9oXxv458YeHHuba7Xw/o+myWGm3E1sZCv26OW4dpUBkyqQlOrbsnFfot+2t/wAFV/2OPjz+yV4u+BXwr0/XrXV9YtLaK0FzpkVvaosF5BMwLCYhAI4HCDAxwAK/nWHgb4x7vn8KGBu4bUbQYP50+88CfFWNTDd+HIw+wOANVtAX4DDAz6EYHfmgDnvlVm28Knr2HbNPUgrleh6Vk6N4hsvFVjba7pEUkcV8oO2Xrj3I4J7ccZrY3L2wB7dKAPgD4zkN8SNR284MY4/3BXk1ep/Fkf8AFxNU/wCug/8ARYryygBxR1ALAgHpX1V+xn8KvB/xs/ab8EfDHx/qttpWj6vqkEVy9756R3CAqTZq9skkqyXOBbxELgO6kkCvB/Avg/UfHnimy8GaQ8KXOoOI42ncRxqcZ5Y8CvtXw3+w1+0nouq2PibwhqOl2d5ZyrPaXdtqXlyRyxYdDHIoyHUqCuDw3tigD94fj9+xb+yVqvg/43/B5fgDefCSy+C1jczaF8Q9Yur5rW9k1G6iZWunjg33Ksv/ACDstOscb4kK5yv8jDKwY5GPav2Y8ZaX/wAFO/it8PLH4UeOviPd6loFkl3GtrNrLqJV1CZbicXDn5rhWkCkeaX2YIAWvhXxr+xr8a/AfhW/8Y67BZLY6eqvLsu4zJtPGVTOWA9hQB8n4xwaSlPWkoAXB9KSpgRioj1oA/rU/wCDci8mtPgZ8cntfD58VOIrJv7HUR51ELb3n+hjzVaMef8A6v5vlwcHiv1v+BX7Q3jv4++J/FeofFb4HaJ4M1PRtN1W6SbXLSRHtJknksvs+o3j22HW7ghUu9vtcrBL+78pohX46/8ABuzrepeF/gZ8fvFGhyiC+0yzsLu3dovPCyw29+6P5ZBDBCg+UjB6V+2H7KX7R/7THi3XdZtf2ndTs7rTNOW7ltraysrdD9ltAN0oFqC5/dhAF6NnAViuK/hXxThfOMaowT1j9pprTp0sfyhxzQf9qYn3L7bu3yR2X7IPjbQ/jXHrlz44+HnhXwxrlkkN9cw6XaIzt/b9q3nC6lkQH7VMm5J4G+cIQJsrICfrix+DHwdgjVLPwhocCR3y6iqx6bbqI7tAQtwFEQHneknb86/N/wCFX/BQP4+eKfA/jXxn45+HUGg3HhU6KHsLiC9s5N948cd61xPMrjaG8wRShSsSxAvkA4+0f2bvjT8Qvjfp2pal4o8JR6BBZLZQwyx3DSCa+e0SXUrQwsqyK2n3Re3Mv3ZsfKcqxb8Y4kwONhOdbSMdNFK5+d5rhsQnKUlaNujPpQnJzz+PX+lJSKm1Qo+bAxn1p+xvSvhHCT1sfJpDa8L+M2z+2vh5ISAq+Ko8nsP+JdqH+Fe5MOMV+ZmlfEvxF4v/AGkL7wVP4muPE2jaL4qsDaMYUi+xXclvr0NxYqqxIY/s628UIRzIZgv2sNsuFC/vX0aMBOpxjgar05ZxNYYP2lOTfRGD8Uf2nfEsX7QNz+zdr/7PzXHhrWtZsLe4u9XtTcJrnnPMh1G0WKGS1P2dbSCRWuDlUXDmLCGsTxJ8Wvhrf/tn3f7Ofij4KeHDb3mqJIdeuUUy3NxHb25RljSIRtdxpfeZ98FLXep7V0+o/tMftWWP7S998OdM1jTrXwXb388JH2K2E3lrJqsIgJLiV8tZ2EecZ/flh1BHTeI/20/Hum/tZxfs96V4Kgl0SPUra1TXLq3uibl5baIXQtpVQRrNCZWBk5Hkwup68f7/AFLFxacsRP7a6dunocro1W4xoUkrwu/eejtv6+R9vXXws+GF94ivPHmqeFNKu9cvRAt1qEtnA9zObR0lt98xXJ8t4YHj5+VooyOUBGCvwI+A8fh4eE4PA3h9dLM0s7WY0+3FuZZ4xFJIqiPAZo1SMtt+4igfdUD5m/Zx/ax+JPxm13RtJ1/wBdabbakl29xcxSfurSO2trWSG6cNj/R72S4mtIU/1qvbNvGQ6x/eQ3H7xy3Q9+a/QsJLL8UnOMV9x+cYvEY7CSVKtLTyZxHh/wCGPwx8GapceJfBPh7TNK1O7tIbCS6s7RIJWtrZAsNuXRVbyYwqIi4xtRBwFXHb8HkAj2PJFOCOQCo4qPcuSuRkdR6Y/wAivXw9OhRhyQsjyqlWpOfPLU8t+OyN/wAKM8bcdfD+qY/Czl/kK/y1LkkXDj0Jr/Rc/aj/AGir7wz8arv9ned5o9J13wFrbxxeX+7uNRktry4WUyFelpBp0qeWrKd94jHKiv8AOlusC7lHua/kb6QeZU62KpRp/ZTif299GTL50sBWnL7fK/zM09aSlPWkr+cz+o2Feh/C/SdE8R/Enw54f8QW93c2N9qVpb3UNghe6kilmRHS3RQS0rJwgA5bAFeeY9K+ovhL8Cv2gb4aR8UPhpYNH9nmS9sLvzoIystvJkOqyN/BJGCMr2HrQI/fL45f8E9v+CbXhbRfD1/4J+H/AMa7OXUvFGjafcnVNGuY1ezubgJdQws0Khrl4s+Sn3mb7or42/4KjfsnfsWfs9/CfQde/Zo8J/Evw/qt7rBtLqfxtptxZWb24t3kMcLyxIrTBwnCnoGPQU7xx+1H/wAFofHUOnWfjPx5qV5Fpmo2esWgM2nKsV5ZuJLabCKvMblSqtxnHGK8x/aO8T/8FTf2rvB2n+Cf2h9du/FWl6de/bLe0mudORIpxH5e9RFswdj7R/CAcdqAPyDbe8hzyfamV2/jPwT4m8AeIX8M+LbRrO+hVWeJpEbG4cYZCR+Ga4k5zzQB6b8L/iNqvwp8X2njLQ1inaBHgubWdd0F5aXCmK5tZlBG6KaF2jcAg7TxggGu3+Ivw10m20ZPif8ACppdR8I3TL5m9le60uZj/wAel7sRVVh/yynCBJhgrtbfGvz1XdeDvHniXwHqK6x4RvGspzGYZANrxSxvw0csTgpJGw+8jqVP0xQBn2/iPXI5AYLh1kXkOD1+uetbv/Cf3knzTadYyyH7ztECzH1OO5r0C58UfA3xszXXiXRZ/C2oSEjz9EKTWZJP3jZXLbo/+2dwAOgUcCt7wj+z3p3xJm8QP8NdcGs2/h7QLvXLh2i+yOq2xUFGSdxkcglkZgDxQB4lfeNNav0+zI0dnEBjy4ECiqmn6Zrvi7VrXQNKt5b26uCqW8ECl5HPoqrk5PXntzXe6fpXwU060iu/EOt6hqDyIGe0sLRYijYzt8+d9oGeMrGfpVrVPixBp2k3Phb4a6bD4e0+8i8m5kWTz724jPVJrogHY3Vo4UjQjggmgDoPEc9l8IvDV78OdDuYbnxHqoEOu3cBEkdtArKRp0MgyGJdQ11IoxlFjQ7Q/mfN8i4kIXOM+mP0r7A/Yc8O/s9+Lv2ofC+iftRXVzF4KlmY3kNpBcTS3ThS1vaLHaK0xE0wRG8tc4PGOo/QP9rX4c/sYWf7KvjHXrXRJfB3xBh8a39x4Wjs9J1q2tr/AES7u12Wk8moW0MKCC3PmW6lvOUR4YfPQB+Jml8ala5/56J/6EK/S+UjzW+pr8z7D/kI2/f96P5iv0rm5fAoAbvqUBjwB2z+FVsdqlM6IgjZgrDGSTj0wKAHogJr2X4RfBbxd8YLrVY/BZto30q3huZFnY752nuIbOGGBY43YySzyxxgnCR7syMgGT4oLmItlWAHavUfhV8ZvF3wW8QT+KfAMltb6nc2stnFeyW6yz2wnTZI9ocjy5SmU38/KeFDYoA+o7T/AIJ0ftB6xrWmaL4VutD11NTiuLnT7qzvQba6S1ktoZXQyRKcJLdJCqsFBkWQDAXNZevfsFfGvQtZ0Dw7qNxov9oa1MyBI7p5TattupI/PVIScTLYXXk+WGLGIghWKivsv4Dt/wAFJv2qr6y8J/BODQRreopcSWenWFjFFcWMO1ftMVs6ARQwyeRHcSLnDSpvVgdyn9AvGX/BMD/gu58QNbtPG/jHwx4bu9RtbmW4O2G0iExuBcoy3SxyjzERLu4EaoU8tZWGd2GAB+KNp/wTc/ak1S6uL5LDTNlpDJLP/p6FVjivJ7Iu3GPmktmKj/nm8D/dkzXjPxx/ZK+KXwC0Z9V+JP8AZ3ntqU2jtZWk73M0VxbxRSzK7IojiKpNGdjtuZicIQrkft18ffg1/wAF0/2e9Am+I/xbt7HTdJLmF7sWtsbeMXVp9iaHEC7RG0Y3KrcefmWvxA+M/wC018Xficde8CfFyXSJbu51iC71S6sLcLcXlxawvFbtLcKf3iQxXLRpujDLwCTtFAHzO4CAoO3H5VW2CpDJHn9667u+D3pcw/3hQBEYxjiqn2JCc9KvloB1cfmKUtBgYdfzFAFD7Oo4FOCL09Kn8y3zjen5iow0GfvL+YoARY+a+m/gd+yn8Vvj5pseqfD1rLbLqcekRm5lePbcSRvOzSSiKSOGCKKIu7SMoABVPm4r5sWW2HWRfzFeu/Br9oz9ov4darceF/2f/llsJPtsk32i3hCSXUMtoroJ8qzCKV0XhtrHcADwAD6VP/BO79ouz0lLvU00axiuUT7CZL1t15JcWYvreCDEZ3NLDvKl9q+ZFIhKFVr0CT/glv8AtIWOqah4fvdY8OW9xprmJh9rmJm8sRZMapbZYJ54XBUMf4EIKmvMJ/2vP+ChmoSPea9pek3RitBaQrcSWpjs1WS5khktQcCO4g+3XEUUgz5cUhX7qDGzP+2B/wAFAb/X7nxTqFnoFxcXzvcXXmzW7JcPL5KuJNgXIK28Srz8iAKuetAHzH8Wvgxr3wZ1O28PeJ7iCSe80611BTbNNtSG6QSQhzNHEGLR43hNwV/3bkSIwHkqSeYgkP8AEM16L8VviX8VfElxoFv8RdG0XRNLsITYabFovlrbw5LXcgaJS53M7yMzE5Jx8o+9XmrSWqMU3quOMBgcUAWKXfjjNQiWHHDD86h8+F3Ko6nHoRQBbHzDcOgr6O+Da5+EvxXgPA/4Ru1kHuBrWmnj2FfMfnK8scEBUkkJtJw5Y8AIvVvbA5r6t1LRtQ+Avwb1Lw140BsfFnjr7Hs01hi5s9EglS7SW7U8wvd3CQmCLAkEUUkjDbJHkA+YMk8mmLgE1VjZEjVIt20AAZ647ZqTcKALGRUJ603IoyKADIqIg56Uh60u44wKAPf/ANlhVH7RPgcHr/bVnx9ZgBXhVwQkzBuMHvXt37Lp/wCMkPAZPG7XdPUfX7QnFfNuvm4XUbhN+MSuMHtzQB0+naLrevanBoHhixudXv7xgtvZWsXnSSvjd8qjkBRyxxgDk8V9Aah+zjN4K8Of8JP8b9Vks5ZN3/Et0c7VDAH5Jb0Z82VcEMsACpggscVH+zZ411b4IeC/GHx6tJ3huobJdHsV+Xay3Lq1wWJ/hfaE4wcB8da+UB8adZ+L13e6lrN80k5uDJGv3VVSo2og6KoBIwPpQB6L9q+Hmlutto2gebHJyGutQupZjn6bU/3eDisHXc6VcC8jgl+wTL8yyZkltgq5QvgZePYM5xwBk1wN1O0m6GIYdzwd3X6+n0rr/hh4nn8BeNtN1+8txLHa3EDTqzB42jL7XQ542yJlfxwKALQ+RUVsAt0x0PTp+Yr03T/gn8YdU8Cf8LF0rwrqj6DsnuBqKWzfZzDbusc0wfvHG8iK7j5FLDOPmx1fiD4B+JE+KWv+AvhnBDcWGlwi/t5HligiXTrgxCFd87qGO+VYVUfM77QOSBX6UaL8Z/2rPAXwWPwSn0C+k8TaDo83h3T7mzvtHOnRaTeT/Y3tBE0TSTStMhjMaOWaQcnduwAfi1NcBZGMjc+/vXpnwr+DPxF+NetSad4As/8ARbXaLzUbgH7FbM+NqNgEyzNkeXBGN5yD0rn/AIjfBvx18NbK01fxjBZi1u55oYHtL+1vFLwhfNP+ju+3ZuXJPGSPUV7T+0n+0F4q+CHwb8J/AfwXem18my+03dzEnlTNNdMZZSrLhkPVS5+by1CqQOKAKnjv4W/Dz4Y6hLoOr3OoeIdat2KzNcTfYraMjg4itxnHpySR1rzpx4Pnt0tbawh08EApPbPKdpPdwSwYH+72ri9F8RjxJo8GrwxidZSiOjP9wKuP8itNNRt7ezQPHhYn2tx+AH4UAcxdXCWmry6Ld/62De42rtjniBxvjyBx0yB93oacGijRpYMfMCcKc9ccCvevDGgeD/iF8NfGmkshHiXQbePWNLnHDKbcM08GO6TxcHtnae1fPELwvh4MeW2CuOOO3H0oA+mf2lbmGXxxpk6upV/DOhYIIx/yC7b/AAr5we5i5AYfL156f5xXrn7SlwIdY8MyxkEP4X0Ukj1WzjTH5CvPvgp4YsvHfxP0jSdcjEunRTpfXqMdvmQwAMYm9nbCnH8Ix1zQB7Zo37M3xHkEd/8AEi5PgrT5VDwLKobUZ1CbmcRN8tvCF/jkwT/dHSvH9TufhPoGoyWfhrTLnX4lIH23WZ5pXbBwWighaKNVJ+7kbgO1c78Yf2rvEXxe+Lmqarrd95kUxniiU5Xy03bV4HGSq8r71l2DmdTdRlXRvmZugz7ei4oA9B8RT6Zqlk91pVithdL8xtUkdoZV/vIZAWQ+wbHYVxEbyOu14yj8K8bAqwbpsYHlSp4wea6OynhWDzQw8hBnc/B2AV7t8QPDtr8VPAngX4l+BrF7zWtYRNBuoI0X/SLy1AjtGwcAu8W2Mn+IIuemaAPIfBXwv+JfxMe4t/hloF/4gmtDEbj7DAZRH57iOIMwBVTJIURFPJbgfdNc1rGl6n4e1S40PxBbSWF9ZytBcW86eVLFKh2tG6HBVlIIK9iMV+pf7K+oftE/s6WV94I8Q+HbzWPDviW7tZorPQtR0lnfULK7+z2dyZJ0uP3K3fyKQFUSIT/CcfJ/7SPgf9pH4x+PPE37RXj7S4Y1vHk1K5mN/YGb7LHKsCzBIivmxhgEE0aBJWyV64oA+bvDXhjxV468QweHPAthcatqM6tts7UDzNkfDO/8KRr1MjYCjivpTU/gD4S+HPh06v8AFzWJdWv5gF/s/SJxBBDIw+55gDSyscklztQBTt6Vw/wS8Y6l8EPhF42+NOmzFNRuoYtFtZGAwI2ZWkYA8gb0Xgc/Ia+XfBnxcbxXql+t9cedcXVwJi0pyznDDJz8ueuegGeO1AHvVvrGiWlu1jZ6Npcdo/C/uneXZ7u7Ft3vkVxniKCys4f7Xj2w22PmjTlIh0DBsng5HGeK6i1Y2wAuEjcYHfcP/rj0xXS2F3pmkanp+oausZszcQyPG2GDRtIAyEe+0/SgDxRcKe2ORwcjj0P4V9D6/tl/Zo8OydTbeItTXb6b7PTzn/x3pXnfxh8C6f8ADP4l6l4R0JjPpsE5a074tZ1EkS577UcJu9RXeXHlzfstW0qgKYfFDqFznAlskP8A7SFAHgczb1z1NIpG0fSoEO5Ax7inUAf/1v5Xm+YcVDtPpVhSoNNLLnqKAIt0CO0lwAI/L2kHv/nFM/bm/wCEn0jx/pHxO0mRo7fWdNt5rSVQTHs2LuTPQ8/lWDrF4ACoPTivU9A8c+A/iT8PI/g58YJns7axfdpWrJHve0did0UqH/W27dx/DnjgUAfAiftJePra0azt2jjYcB2UOy/Rq8Z8QeLPEHii6N7rVy87kktuPc+1fRHjr4A3WiXoawje9tmZvKuNN2S28ij+JQ2GQEc4J4rnNP8AhlHpp+26wBYQQ/Obi6ZVAX0iiUklvc0AfRP7IBufC3gvxh4nmfZHeWI07y+zNdMhx7lVRT/wKtKFZDyVx9OleXeHviFpWo3Fv4O0eBhpFuPMV2O2SeU9ZJPfrgfTFe4LHEx3LwD0+lAFrSI0YxWcp2oz598n+le9/tKs4+PPiqycYEN48ftlAqkfhivCLNAL+L0yor3P9p1/+MiPGir21i9H5SMMf0oA8MJBf7KfuHv2r9Ev2H/+Ct+pf8E4/jjZeK/htocOupa6WdNmGoQ3K2xaeJPN+eBS+1JV7Kc4yDg1+c5OVFTedeRIMyBlxwueg9KAP7SfAX/B19b+I4HfxPZ+CNEkH3UuJtefP/fvTnAr4J/4KTf8HD3i39qn4KT/AAT8PWHhO5sJ9Qtrlp9Hk1iW5xbkkbftNnbxgE9Qe1fzWi4uCMg4/wCBEU55nC/K2w+qn/61AGVba3rHizWL7xbrUTx3V2ypiVdoOz5d2Oy7cbfYVooPkG0YGPTFJ5p6sSfc0eZQAuRXn/j+XVYItN1bSbE3qaXeLcyRRqN5ARhlMck57V3R5NMf5ufvEd+mPwoA4HTf2sfiZo8LQJotzvJ5DRuFB9tozV//AIbB+J5j/faBdyueOkgH57f85rsjI+P9YfzI/SmCRz2J/H/61AHjPi/4y/Fb4haZcaImgXdq+oReT52HACnjliNu0g/NmvYoYxbQrbllJjAX5eBxxwPSrUMF3LH9oiiZkG75gMgbMbuRx8uRn04qeKK8lAMNvK4xnKxkjAwCeB05H5igCuskYQEsMdKnbrVq303Urq3e/trW6dEcQuywOY1Yg4TcBjeQDgdeKzG85E3hWEexpAWUj92hILfQbSCegIPpQB5M3i74gfDvxJqzaFpb6hZ6pNFL5idQIogpXaOVIboe45rsX/as+O0K7oPD1yMfJ8okBwOB/Dj8uK7O3ja9LQ26TSPGrNIscRbaF4cnA4CgcnsKosdwJH6jB/KgDkLr9pP416jGIz4ZmJ9WyvPHfHqB+tc9pWsfEHxp4vXX/FmnvYW9pbyJGnmcFpdnQdf+WYz2r04McYxTizHgCgB6BVwFJIHTd1/H3pruc4FAI701cZNAHKeONMvNZ8KXthpwH2kr8gzgMowxHsc8Cua0v9pvx/od07xaDeH935flMrqoxxzgcn3r1FVGaQyupwGPHv8A/WoA4tf2tvinKoi/4Ru62gYBxKBj/vmsXU/j78X/ABBAYodAu4OCqSKrKw3MGzlh2xge1em4mPPmOP8AgR/woTjOT+dAHI+AdG1Hw34OsNH1JgbmJd7cg7SW3bcjjjNdj8q/KO1REZPFPUKOpFAHwF8WXz8Q9Ux2kH/oAFeX16P8Uip+IGqlTkedj8hXnJ4NAHX+CvE114M8R2fiaw2mW0beoPrgivqnRf21viBo+nS6fbQoxmlEwZ5G+RlGAE4wBjtXxNRQB96p+3f8QmhSCaHftAH+ux0HrivPvHn7UfiLxzoF7oFzF5SXsXlv+83D1/mR+VfJdFABRRRQAUUUUAfT3wD/AGtf2lP2Y478fs/+ONW8IDVfJe7XTLp7cTNb7/K3hTzs3tt7cnPFfQMP/BWX/gpFDsig+NPiyJUIIH9pTZGPfdzgcY6EcV+dMbhcYNSZQ8Dqa83FcP4KrNzrUYyk/JbHn4jKcNUfPUppt+SP0WX/AIK4f8FKRLG3/C6fFOUPBN/Kcf8A1vbnvTX/AOCt3/BSiY/vvjT4qPRedQkPA6Z5/pX5zcA4yKOPUVzPhbK5K31eH/gKM/7Cwi09jH7kfo0f+Cuv/BShTtHxk8T4HpfSAfpUo/4K8/8ABSgAD/hc3ij/AMDXr838ijIrL/VPK/8AoHh/4Cv8jH/VzA/8+I/cj9JT/wAFe/8AgpYQAvxo8Tr/ANvjV/Sx+wZ+y5+2V+1Z/wAE2L//AIKd/tj/ALWfivwD4O06/ln0U6VZ/wBrzwGznOlSajdpG8cpCymSMRRKZTChIJ3IlfxCZTFfqh+xF/wWZ/4KB/8ABPX4Wav8Gf2ZPGyab4b1e4N99hvrG01CO1vCFBuLUXUUnkv8iE7TtLKrbSRmu7D5DgcPOM6NKMWtmopNelh/6v4FR5PYR+5H6w6r4L/4LdaL8T/EHgK/+PPlQeHvG/iXwK1/JezPuvPC+k/27czpFHbPIIp9PBktyRv3r5TiN9ueU8Ha7/wW98fRaxa/D39oVdbk0Sw8K3v2a01iRjP/AMJqkk2jwxF7YL50kKI7ISGjaaKM/vDIqfhp4V/bs/a48G+KLvxx4f8AiFq0WqX2q6rrt1JLMJxc6jrqxJqlzMkqtHJJexwRLcF1O9VCkEEiua8B/tdftLfC3WP+Ei+HPjrVNHvA+nyCa0uDHIG0ixuNNsGU4GDa2dzNBDjBVJCFx2+s/t7H9Kr+8j/VXLf+fEf/AAFH9JunfCD/AIOFNWttOE3xqFu2uf2+LGOXWHBmk8N3jWmoRqotshk2yzIMBvKRn+X5RX5P/GL/AIKgf8FQPg58Ttb+F+qfHHWdRu/D909lJcW0pEZki4YJ5sKOACMcqPoK+YLT/gpL+3faeX9k+LPiKJ1ju4EYXz5jS/aH7WUY/ca4+zx+c6/M4GCcFgflT4hfEXxP8UPGGoePPGdyl1qmqyeddzJFHAJJD1PlwpHGCe+Fx6U6XEuYL/l6/vMf9UMs/wCgeH/gK/yPvj/h8Z/wUxHA+MGu4/66J/8AEV618F/+Cl//AAV6/aB+KGgfBT4P/E7xBrXifxNeRWGmWCXFtE1xcyfLFErTCOMFjx8xxnnrX46O+5ixxz6Vv+H/ABPrnhPV7HxH4XvJdO1LTJ47q0u7d2imgnhYPFLFImGSSNgGVgQVIG3GK2/1lx//AD+f3sX+pmV/9A0P/AUfv/8AG79q3/gp38Lv2HPDnxt+PPxz8RaTrnxG1zVNG0jwTd20f2m40PT42tdS1S5kf57ZRfH7DFE8W+YpOwZViG7+eWQHzTu55/z6V9d/tnfttftEft+fGy4+Pv7UHiH+3/EU1pb2CyJFHbQQ29spCpDbwhYowzs8rBQA0kjufmY18gs4Lk5rysdmFbEPmrT5j18Bl2Hwy5MPBQX91WKzfeNJSnk0lcZ2D04NfW/wr/al1r4X+EbHw1p1uG+xNJhgcZWRjJ1+pr5FooA/Ro/t/eJzLPI9hvScgnMgJGCp4zz/AA1Bqn7d1/qyeXJp7IPUv/h9T+npX524PpSUAej/ABN8dT/EXxbceKLgbWkVFA9kGAPyrzkjBwKSigAooooAK1LO8nstwt5jGJEKNtO3crDlTjqpIGQeKy6KAHN9402iigDd0rVbrR7y31nTZ3tbu0dJbeaFtkkckZBV1ZeQVIBXpjt0r1n4pftH/H/46W9hb/GfxzrvixNMXFmmrahcXa24wE/drM7BOBjjnFeE09ODQBfsGH9oW7HCjzB+HIr9KmIExB4wTX5oW3N3Hj+8v9K/Sm4wbiQj+8f50ASj79eveGfjp488HaVb6Ho0ejyWVruIFzpFjcS/P1zJLA7ueuOvavHqeFHrQB9BRftP/FGJQgtfD2FGP+Rf0rt/27Vm65+0P8Rte0m40fUoNCW1uoyj+RoWmRShWyj7HihV1ba2QVIPFeGUmRQB+oP7PX/BQ7xV+yr+1Qnxl+BGr22hW1vtEP23S59QhVHsVtpleJGR2G4yBcMOzd6/f3RP+Dlvxfb+HJLjXvit4SOpAfLAfAviAjPpuS5KcexxX8YVTfwj99j2+bj9KAP31/bx/wCDgv8Aai/aT+Glx8I4Nc0K/wBFu5llm/srw3qFlNJ5edoEl3LIFH4V+Fvwk+OPxR8L6dqN0bDS4U1C7M5S+0uzvZ8bY1P7y5jkkAwgIUAVyhQZ65pRjoKAPowftQfFVBs+yeGOOOPD2lY/D/RqZ/w098UCebXw5+Hh3Sv/AJGr50y3pTVcg0AfQsv7SfxJfn7D4bJ/7AGlf/I1VP8Ahov4hHk2fhv/AMEGnf0t8flXhC9SaXIxkdqAPcR+0Z8QgcfY/D3/AIItNx/6TVcj/aa+JiAKtr4cAHA/4p7S+n/gNXz62CeKjBGKAPopv2ofiqBhbTwzj/sXtK/+Rq+O/GXxB8Z6L8S9S+IsOnrdnWEjSVbKFYlR4zltsMQCxr/dCqFHQcCu8pjKw5SXb7KGH9MflQBjRfth/ERUSG60a6IiARAA4ChRgAjb2FRXX7V/xW1TiDw9MfR8SLx9Nv8An8K6EedgfOx/E1F5bE/PKf8AgS5H6UAYHg/4v/Fab4g6b4qm0iKEWRlZn1CCO6i/eRtHkQTqVJ+YYypwBX1j/wANU/FAcHTvDJx6eHtKx/6TV83bivAxj2GKcDxzQB9G/wDDUfxWPIsfDI9v+Ef0r/5GqC4/aW+I86/6Tb+HT/sp4d0oY/H7NXzwWbPApwIoA+grP9qL4y6Kjy+Gr6w0adgV8/S9J0+zucNxtE0dsGUY7qVI9a8CuLm71DU5tV1W6mu7y6k86Sa6czSNL3d5nZmdj3LHrVd8cYqDd2AoAN5PO3H04p45pO1ND4NAD6KbuPpSE5WgBPMA4pVY5pu0dzTd5HFAHtf7ONybf4/+CWk42eINOf8A8mYwNteIeM4GTxPqSMMEXUwI/wCBmvWPgLcFfjf4Qnbgx63YEdvu3CVyvxNsFtfiHr1oP+WWo3Sf98ysKAC1uLrxB+z34o+H8L7J4ZYL9V/ieJWw4UdThWJ46EV+bY1DVPD+qgwZhaI4x0DY4z+NfaU/iG58CXkPiDSUDS5ZZY3PyyxnhkYdh6V5lrfgfwt4zD6h4Q/eJkt9n3bZ4c87AG4kA6YFAHFWnxr1WBPKktUZhxnFS6V4g8QfEvxTp/h62Qxx3d1Ej+X1+UjPTtjpWafhLqv2ofubtR3Btig/76JCr/Svov4bS+BPgjF/wmEs6aj4jCkWVpEVlitnI2mS5b+KRegjXgGgD9E/DnjfxX4X+MWt+L/Avh+HxJL4f0e20u7juLs29vG0ghtvMmj3qtyPOkRFibgNhvlCAr9bax8Tv245L3VtasPgddwanbNHLd3X2+5maMPeSXaRsolKSg3CSp5Q+bYPKbAANfid8L/izD4cs/GNn4niuLubxTarCJV2DbcR3UV15kobPyN5bKdvOWBFfofpX/BRP4oaV4f1LTPCVjFp0WoapdanC6XHmtapez2s00EamI43C2ePepU7ZmIwRyAfN3xu0b4h6f4dlsdV8GweENH0XV5LeSyivPtb215fQIzRSOXdzlLdmXjAO5Oor5Y/bLe/8TeI9F8cWjhrO/0mBkReQvlZSReP7uBkdq+1fjR8f/BnxV0bxTPpWiXuk6j4l1+01jZJLbywQx29vcRtHujhhZi0lzlPkG1Uw24818U6x4u0a8spPA/i4yxQJJ51pdRgO1tJ0JAHVG/iWgD5c8L+Ptf8IXn2rSZiQwG5W+7j0Ar1e5/aF1xbQxQ2NtvdduGTp7/WszXPhPdbkuNKUzjGVlsMSxP7iPKsmfyp3hf4QT6pfh9aZNOtlOJLjUCsKIB97EYJeQ/3RkUAfW37E8F9PD4y+LPiicnTbfTbm3dOgMkkZwB7cgAVw9p+6gSH+4oH5CtHxZ8SNE0fwNH8G/hOW/4R+PY95dTJ5c9/KnfA+5Hnop/hwK4nw9qHmusLt6AZ4oA+mP2i7bzn8HuBkS+GNMJPuIygH/jv6V558HPEkfhnx7ZXE+I47lXtC7cL+8B79ODXr3x7ty9j4GfB2SeGLIkjp8sk6H/x0cV8tatax20ay7mD/wCsx0ww9f7uP1oA+UPHXh/WfC3i+9068BEsVzKmQOTtY1v+F/i74j8MRfZVCzx4wA3pXquq3ek/FPe2pusOqW6bHEvyxXJHRg45RwOueM15tP8AC+5iUMYr4E9hAsmf92RTtx6GgCzqvxe8VayANPUQnO07fRv4FHav0q8BLq8Hwa8B+C9KtJJNa1jV4ruxtIZGheQhViQJKu0w7ndPn7Gvh34Z/DDwjpV+uufFC8/s/TYR5v2ZSr312BysKKDthBP3mPOOBXs9h8cLxPjV4d+JtzaeVZeHrq1ktrO3IAjtraRW2KW43nB68dKAP2Y0344/tbeKbrSda0j4GnWLVbl4dMbTtTmeOS5tbwXW8eU7bpFnhbzpXASbBYkHGfl34x/8NF+JZbuw8UfCc6Dq+oaXd6UL261CQ3Eum2Mn9olI1ml2zSW/l7vNx+9T7uSBXFfCL9t7UvhHfy3fw10jNusl6FF1NsluIrq8t7xY7kIrKQPsqxttyMPx056nUP20m+IuoeHr7402d5e3+hLqcZurZrUrPFewSxwxGJoE8tYi6r8kiqsQwke7JoA+JZZ7jxF+zj4g8E2z5mt54r7bnLlBuV+OpwGJ+tfnXHLqfh/Ut0LGOWM9RwD6fnX23P4hXwL/AMT7TYd7j5Wh/geIjBQ/UflXBaj4M8N+Nf8AiZeDY1ljbgadLKsVzb552Qt/y0T+7noOKAOF0j9oLxVpln9luUSUgAKfQV2Hw21bxf8AGT4i6ZodzIyw+areUnTjLE8eg5xXN/8ACldZi1P7DfaVexsejXMkFvGB6s+Tx7AV9Q/DjXvAf7POjyX/AIemh1vxhOcRmEg2Gn8Y4Y/62QH7x6EgA4UUAemftC+I7XWfipqRgdSbBIbRipGGa3jjVsf8CBHtjFdHbCGX9la8nBA8nxZZgfSWwu//AI1XxnbaxeXGoS6hqchlkmcyOScksxySa+0/C1zaXf7IXibylB8jxPokhHcb7TUwcD06UAfN8QYRKHGDgZB7VaHl4HIqm0u8bwCAex60zIoA/9f+VemOMjI7Z/SpSCTmup8EeEtd+IPjDSfA3h2JJtS1W9t7K0jkcpH5s8ixxs7chU3MMnHY0AeM6oWdiYxuBPGOntj8K56aM+Q0J4c9F78+1foT4i/4J9fGHTI3OqajpNqIo9UmMUc9xcf6PpU/kXE6mG3cSp5v3VUPJ5RWVkEJD1X03/gnL+0VrfivSfBWnf2U2t6rvFjaC4laSaEwtMszTNC0MayGGSJBK6u0isqgqKAPzL8I/s4ftBfFXVbvUfhLpF5f2sF3a2sksMi28UdzqE4itoy7si75JCABnr833RXifizwt4o8GeJbzwf4+t7rT9W0yZra6tLsnzYZYzhkIPIwRX9In7Nn7O/7V/wq8MT6TDplrqWieINRdYrV9avtLW11OysxfJcPDZwzSSfuhsQ7M+bEyjYyE1+afxo/ZB/af8aeI/GHxW+Leq2d7qVlajVr66M817NJHLcT2sf72CJ8/Nbv87bVCBSXANAHwP4CQpr8SkEfX24r7OjTECswwMV6P8GP2BfiL4mtNPvtMvtO+0XWnWWp7ZjNH5Z1O9ksLOB9kT7jLMoy4OxFKhmDECvZvGX7IXjPwPJdrf8AiDR7sW2m3uqmK3W63FdOna1njkWW2jMcm8SbN2OEI6mgD5v8O2xutbsbSUbTJcRrg/7+P5CvV/2mX/4yN8cBf4de1IfldSVw/wAOrM3/AI80S3KY82+t40X1JkUbR6nnpXQ/Hq7F/wDHPxpeg587XdRfj/auZDQB5Mv3RS0UUAFGPSmbj6UKzA9KAJm6CmU0lvSnowyM8UAJTFHJoBG40m+gB21aRMBqCQVqKgD9SP2e/wBq/wCCvgH4Ip8PfH2pagL+3srmyiitLC4+zpBPqVrftHL5U6LPNKIplS4AUKrJDOskaivQdc/bJ+B1pYWtt4D8WazpU2mlpUu7bR54ZZ0XVLq+ksdhuWSKG9S4i3mMKA1sFmD5jx+PSvinNJQB+iXgX48fDl7u38Y+OvEuoWaH4iz+JbyC2Wc3k1qYFMMv7plH3w0MgV1lVHymea+qrf8A4KG/AlbmLXNcvtZ1K+ESz3OzSIoo2CR2Ed1pEaGT5bTV5bOe6ncfJGbja6M28n8RARim+cw49PagD9kvjb+2j+zn8ZtRspPAlnP4WNla+L7i/aa38pb641bSksLdF8jcSbhoowyt8kYBbIY1+NoARinAxxgdPw9qTzO5pmRnNAAGIY1IrNnpUZ60nmdhQAp60DrSZzRQBKuMmoz1oHWg9aAJC5AA9qip5HT6UygAViDTX56U6mZb0oA/Pj4lAr451UNx/pD/ANK4R/vnHrXoXxOimh8f6mZ1IzNuGR2I4rz1h8xwKAGUUUUAFFFFABRS4PpRg+lACUUUUAFFFFABRRj0pcH0oASiiigAoopcUAJRRRQAUUUUAFFFLg0AJRS4PpRg+lACUUuMUlABRRRQBMCMVEetGDRg+lACUU7Y3pSbT6UAJRRRQAUUUUAFFFLg9qAEooooAvWGBdRE9A6n8ARX6SP99vqa/OfRLGbUNStrG3Qu80ioFUZPJHYe1foor7xu9eaALVFV2kwab5lAE+W9Kjpwc4pmRQBIC2OlO3AdeKg3n3pjnOKAJC5zxmnofWq4cjipAQaAJDJg44qPPrTtg9qifHQUASFznvUm1Wwx5I79MfhVUvxgVID8ozQA89euf0qAg56U7eaeCMUAA4AzUbMQKV8cYoYcDFACrJwKeWBqvRj0oAkYHAoYcDFPyKjDkcUASDgDNQnGeKazNTUz3oAkxUa4BNKz9qhoAlYjGBUVKOtB60AG8jigdc0nTrRQA9+vFMo4o6UAehfCOU2vxV8M3/TytVtDntxKtWPjRGlv8YvFkA6JrN+v5XDiud8AXcFp400a8V/30eoW5VT0+WZT+ldr+0RCIvj944hO3I1/UxhenF1J09qAPlbx7zb4HsPz6V4e0TR4WLb5zDKtyGHT+LtX7H+A/wBmn9nbxz8KvDepeNtY1SDxP4lur+G2srBoiGS0gdt8nmRMI4llEYY7izBiqIMbq/L6LwZdS65HYTkrGXGSCB97aPl6jp0O0igDwrWLjxPKv2W6uLi5hPGDIXUdsc5Fdl4eg+x6MiXS7SdpUnsG+7z/ACr9Tf2iP2MvgH8N/AWreIPAk2s3smk6vDpC3Vywls3uQrtd267YIjm3UQySSFlQSTeTHu2s9fPn7O3wY+HXjzxpqGn/ABU1WbSdD03TJ76aW12+aqxNGh+Ro3LYDsQoUFmUKSAS1AHzNbFkYq38J2k9s165oMr/ANnggcbR/Ku/+OfwV0z4aav4ci8ORajax65pcOpGHVDiaKTzZY3XGyIBf3XGVH3vlZ4ijHi9MiMFn5BGNoAAPsKALLBnChRknHArwLxj82sy7ecA19HaZZW17qtva3bOisUU7fQ7QfxA6dQPSvqb9q/9mX4FeCfDuv3/AMHtX1TU73w1rNtpV99peH7NG06XLuqMsUUjyxmA+Y4URru2LuxvIB+R6f2hFAfsbSwM2cGNjHnBxxj34rnrJL7U9djTUpZJymNrOxOMds19/fsyfs9/C/4m654gPxr1S70fQdB0iTUDc6eUMnmCeG3RdvlkSN+9wqBV3PxlVOav/tA/APwl8IfiOfBvhyDVLCS2s7WW6ttXCm4t7qSJZZYRIscQkCFsFwgAYlV3gZoA+WYgxHqfz7VuaNI63q8cDiv0K+C37JnwX8d+DfBY1fUtZl8T+KdSlt49K075mW3jl8qS4cLbyNHHbjY7Ek7ySuFUb6+LT4WfQNbutHugQ1pM8JLEH7jFeo4PTqOD2oA+n/jd5Mnhj4ezEttk8LwkkdMre3kfX8K+YdfObd2/vJx/Kvqf40RRy+CPhlHHh8eGnUkfw7NSvuMe1Tfs4/Cb4TfFC58RzfG7V7vRtE0TR5b/AO1Wbr5glM8UKAI0bmX/AFpCxLtJY7SyLk0Afl9qNtPHK37sRksRw2Dn6evtWXPceIEtHtre7njAAJiWRwCDgAlQO/FfZP7SPwY8N/Dzx+2j+AZ7u40uW00+9he/MZuNl3ZwXOJPK+QYeUrheBjHSvpz9n/9jL4E/Er4aaH4m8W6jrr69qNxqD3NnpSoxg07TULTXzDyHO2AbMBSXmciJQvWgD8oPBljJJMbuYfvFPHJBr1JJmmXzOueT3rttH8EWtxqUWmx5G90iBXGWyVXoP4sHjg/SvtT47/swfDDwD4Z8Sat8MZdUv4/DWsQaZNdXLA2plxKs8SOLeJWlikjTdsJ+8F27F3kA+LPDdw4cKB04rtpHYnpXP6Rp32NVfvgV0XLdKAOA8duRomD13V4FKo84SOdki/dZMggdue34V+1Hw4/Ze+AHxE+Bmh694p1vVIPFviS61O3tdO09oipjsoJH3yq8X7qISJHvIkLSbiFCkE1+X+j/Df+1fF1loTki1u54YWZcAhWcLlOuDj6/SgD571mfXb51M97LKn3QGlZsL2644xXpPhm1aDTY7Y8sCAPf6fWv0c/aS/ZB+EPwp8I6h4i+Gs2t3r2viCXRFvrzY9hcfZYma6SMiBPntZ9kW44Ls7FFxGWry/9nb4C+BviVqes/wDCw9Xn0vR9I02bUpLm327kVXRdwHluSBu+VFXl+MjJZQD5hEgiY7/lC+vbH/6q+zPhZM1z+zF47smH+r1bRHx7iO9Ufzrzv46/COw+G2v6PaeHoL61h1bR7fU2g1VVSdHlaSJwQEj4/dnGUXjCjemHPpHwljf/AIZ9+IkVwCGDaVMR3ylxIh/Eeb+VAHh5K5qEg5ppIzzipgRgUAf/0P5V2fBrsfh78SPFnwp8T2vjjwJciy1ewZ3tpvLDiJnQx71Dhl3bWJB7Ng4rhGftSjpQB9oD9vX4/pdxanPD4eudQS9j1MXzaWn2mTUoYvs0N9O4dFNxHEMLIEC4Y71cYAsXf/BQr9qS/tbizudT03zbsCKS8TToo7lIfLkRYEdCoEKeZI6LjMcj7lPavifIFGRQB+gN7/wVB/bC1m4ll8SalpOpQSnMlrdaZC0Bldp2knEcezEj/aJAzIfu4AUAYryXxl+2F8X/AB/4avvDXiu30K8XVbf7NdXX9nrDeOome4jPmxOqh4nmlMZKYAchu1fK+5fUVCSCeKAPqnwd+1z8RvAOraP4k8B2GkWes6Po0OiQ309vJcP9millmZkDyKkTyiXy5V27WVRwJMVzurftIeONbTVhq9lYt/a+m3elRC3he3isob26N3OYUVyxyzOqh2IAb5c7Vr58TApWmI4FAHcfDvX9N8LfEPRfE2ur/oGm6hBdTeQC0rRxSBzsUjGSq8D1AHes/wAa63D4l8a6z4jt93l6hfXFyu7AbEsjOM44zg9uK5NnJHSmozDtigCxkCmb6YzDNJQBPkUtQnt9KcSNmKAFZ+wqPBpKXeRxQAlFM3NnpTxQAuD6UlHmY4zSbhQAtFRFyKeGGKAHAgGjIJ4qu3enR8dfSgBzkY4oI+UYqIdT9alBbHSgB44AzTFHzUMflpwIwKAGKRuNSZWq46n601SBmgC3SZFRl/l4qPINAErSt91aeDwM8VFHxSSMc8UAT0VUDH0qypG0UAeX/ED4X6f4wC3Mcv2W8jBxNgOhVv4XX7xx0GOgrwF/2e/HYchHsyueD54HH0Ir7IJGagPWgD5AH7PnjzH+ss/+/wAv+FMP7P8A4+Bx5ln/AN/h/hX2DRQB8ef8KA8e/wDPSz/7/D/Cj/hQHj3/AJ6Wf/f4f4V9g7BSbFoA+Oz+z949z96z/wC/6/4U4fs/+PAPvWX/AH/X/CvsLYKcUGBQB8d/8KE8cjjzrIf9tx/hTx+z949PIey/7/L/AIV9e/uRwUz+FSArjjigD49/4Z+8ef37L/v8v+FJ/wAKB8eDjzLL/v8AL/hX18VOelR+XQB8hf8ACg/HoOA9n/3+H+FO/wCFB+Oe81n/AN/x/hX115YpfJQ+lAHyN/woLx32ls/+/wCP8KX/AIUD49/562f/AH/H/wATX14IBjipDGAAKAPj7/hQXjz/AJ62f/f8f4UH4BePMf62y/7/AK/4V9feRTxAvtQB8ej4BeO8f6yy/wC/w/wpP+FB+Ov+etl/3+X/AAr67MYBxUBRc0AfJq/s/wDjrOfNsv8Av8v+FNPwF8cA48+y4/6eB/hX10sYxxTto/5649ttAHyOPgD44Iz51l/3/X/CmN8A/HA/5bWf/f8AH+FfWbKufX3oKDAoA+Sf+FDeNv8AnvZ/9/x/hR/wobxt/wA97P8A7/j/AAr64RLgdFXFWQjY58sfiKAPkA/APxrtz59n/wB/x/hSf8KF8cdprL/v+v8AhX143p5uPYLxUPlKed1AHyV/woXxz/z2sv8Av+P8KP8AhQfjr/nrZf8Af5f8K+uQQox52MdttRsqt0OaAPks/ALxzjiaz/7/AP8A9am/8KF8e9pbP/v+P8K+tgMcUmz2oA+Sf+FDePP+etp/3/8A/rU7/hQfjnvNaf8Af/8A+tX1tsYDpSMoxQB8hH4GeMlO0vbcek3/ANjTf+FHeMP79t/3+/8Asa+uto9ajMK57UAfJP8AwpDxp2a2/wC/3/1qePgX40PObf8A7+//AGNfWwQAYzUo6UAfI4+BPjM/xW3/AH+/+xp6/AXxsf8AltZgf9d//rV9ZrgE0m0etAHyOfgX4yDFd9scek3/ANjT0+BXjPP+stP+/h/+Jr6zWMZo6NQB5Z4F+FVn4Uj/ALV1CcXGoAbFAH7uENyxT1bsDXra+WG/dgqvYHqB2pmRS0ASPjjFNXrTakCrigBDJg44pnWo5PvUgkHSgCwHI4pmc0zcfSkU8nNAEmPSlUjfj0pgYg0gVSecfj0/L1/SgCVpOOKi3H0pW5BxSjgUAN3H0pS5I4p1QbiGPFAEwIxzS1BRvI4oAmyKeJMccVVooAsEimKxzTD2+lOTAoAZuO81MCKbhKMR9KAH8dqTIFMUqM0jYJ4oAaetJRRQAmRSgjNRhVzzTD1oAlk56Uo6UDoKblvSgBBw3NRux6Ch3NIOlAGro2q/2ZrlnqUo81LeSKQrtxjy2U/pg/Wu7+NPinQfHfxo8UeOfDBf+zdY1i+vrXzV2SeRcXDyR71P3W2sMjseK8vyKapFAH9bn/BE/wD4Imfso/t4fsr+JPjt8cfGOpnU0vH0+1sdFu47T+yhFEJfPuNyyNI0u/cqHZEUTuSSv8wHx++Hui/DD40eJPhz4W1KHXNP0DVLqwg1O0YGG6jtZnjWaM/3Zgu7PoRiuS0D4iePfDNhd2HhXWtQ0m2vI/Ju4bS6mt0uYxwFkWNk8xf9lvlrkLiWGT5nY7j129Pw4H8hQB7h4S8OfD/xT4UvNEXxU2i3FtYT6lO2r3pWznuLaJpRbpCoZXuZtvk2/mDc0hAZlQ14tpttosV1GniWV4rVGbz5EPzjaMYHOOSMdxis1Ftwzv5e4yBVCkcfL3Pv6VOwtxE1vKpdH9u1AGnr2t+GdT1f7Zos11PC6g4nmM8mVUbR5nUgAfKONn3RWTDGIFWEdEG38uKrW9rY2vFlHsI/ujB/XirW7+9196ANfRLeO71i3sp3URTyJGgk7FjtOMe5zt9BX9dP/BQL/ghV+xL+y7/wS3h/a48BeONS1LxXaWWl3xubq/SbTtXfUHhjaO2gCDbxIXjIZn2ocnuv8gUc7if/AFzABcDuF/Doc/pW6/i3xD/ZkGhXepXs9hbf8e1o08phhP8AF5cZYxx56ZAU98mgChZR6ba+JLddRmktbPcBOYW+8owTgjAGe3YceleofEbw74eh0jTfGGheIl1htSaeFbS5uXudQtfsojw8277sEvmAQkN82x8gKq14rKDcjZJxT0xDCAn3Pu/7XHHH+z6UAdP4U1TwrpUxbXL65hnCFIIrCfyJPmBB+f7yrgdE+9k57ViahbrHeSRRkkKQozjPHHbj8qy57e2lcC4QS7eAQMED2NTxsiAImdo4GeuKAPbviL400PxB4U8G6XoMj/atB02a0uwUKBpGu7icbSeCPLkAyO9fe/8AwR6/Yg+Gf7fn7ZGl/s//ABb1q50LSLu3urud9PkjS6vPs0e82sLOGCl8MdwB+VCQOlflF5nvWz4e8S+IfCV+Nf8ADF/Np9/Bhobi3kaGaNlYFSjRFWGPZhkcUAfuh/wXd/4Jq/s9f8E4fjh4Z8A/ALW7+/0zXNLF81jqFyl1eWTLK0aq0gCExy9Y9w4we2K/D/wbqPhvR55odZ1fUrS5VdlotjcNbHnKt8687funaoww4bpUfiXx14l8ZXsuv+LtRu9V1CbmWe9nlnndwBjdJIzM3tn5VI965JNk0LNcL5kjdHfnBHXHfB7UAXda0xLG9msbOWOaONiBIG3btyjOPQg9xxnpXSarNoT6DDa6PrdxJKjCS4t5X/0feR8xSEn74zt3nk/hXFpjaNvA+mP0pogs4ZDKFyTyaAJ4gVXDY/Dp+FW4Ac1ACCNw4FEcrK2McUAf1q/8EMv+CKP7J/8AwUC/Zt8Q/HD49eItVk1Ox1KTTbXS9GvBbmyVYI3FzOpWRmaUudgG1WEZGGwQP5rP2qPhH4U+Cfx48YfCjwxqaa5p3hjWL3S4NQQjZdR2tw8SygoSPmCBsqcc8V514U+KHj7wBFcp4G13UdENygjmbTbqe0MqE52SeQ6eYoz0OePauLvL2edm+1v53PXrn3oA6mS80m98NQ2OlarqM3l4nntpXP2be3BCI3y7sHBY/M2cnvjkEW1GoRLqM5tYZGVJZIy2Qn8XC8EkdM8Dis02enq4udjGQcqVbhM/7Pf+lTPEt0oWT5eKANvxHLZ6hqL39rdXF7C6pGGupDJLsRVCpufkJjhQvyqM16d4B8b6Fofw38Z+GNQcrd63baelkoTKb7e6jkOWHCBUDHnrwK8YitxDhVGwDuOf0pT165/SgCuc5+bk08FsdKQq2elSDpQB/9H+Ug9aN5HFJnuabuX1FAEjdvpTMimsxxxUVAFsKMdahHDGlBGKRuRxQA7IqPee1RnpQOgoAsAjFPPbHpVWnhzigCfC45NNqNvuinAjFADqOlHFVnk7CgCxkUZFVsjbTgPlFADw+DUm4VBSZFADyDmkwfSo9/YCk3+1ADz0oHSo8v2pNzUAS5FGRVfIpaALFM384xUYc9BSr96gCX+GgdBUTvgU9WXaKAH0mwUZFRO/pQBNUQ+/TS5200GgCTc2cCpARjmol4IzSdTxQBKtTFVwOnSquWFG5qAJNqe1NftUK9TUjEYFAES8E5qVetRt93imbmA6UATHrTG+7TTJxSbzQBIOlGRVcyc0vOM0AWKhIOelM8ztS7m9DQBIX4x6U8dKhwfSph0oAbsFWEt8jIpQgxVhH28elAAkJHGKU2471Isoz1pzMpHBoAqbDnAFNNvJ6H8quRkA81YZjjgUAYbQMDyDUfkE9BWvJ0qBAQaAKKIy5BFMMfOeK03QAZPFUHHUCgCs0YpQqgAcUxi3QCo6AJvMxx6VEeTUZfHGKTf7UAWAq4qPjOBSAimr1NADvLz2qSOPB54piyY4p+8npQA8oM0uQOKj3kUzrQBdONlUZOhp5fjAqJiNtAEeD6UlTAjFRHrQA8BMU/K1BRQAp60YNGD6VIcbMUAVBKytiojJkmnv3qmpGSKALqSYqyC5GQD+VZtTi5ZQFx0oAu7+2KfkVXVgcE049aAI5H5OKYh5zT2Vfao9poAn8zHGaZuYngVFTlcigCyHwMYpuCecUnWl3kcUAPTjrTmxtqGnN2+lACbyOKViODTMioHYnheaAJNzdhUgpF+6M1GHwaAFLEHFS5yB9KpSM3OBUqudo+lAEu5emRTqgVMnNPZ8DA7UASjrTMHeaARgUxpB0FACuRinKRgYquSCKkj4/KgCXIoyKgbvTQRigBxIzSZFQnrT2HAxQA7LdlqwpGBVUMcdKfkUAOYdaaOlI0nGBUZc4wKAAjJ4ptSp93moyOaAI2Y1FSux6U0EUALuYdjUhk+UVEz8YqPeaALCyU1jzzTFIxSSdaAFBFPLMD0NQJ96rRI2YoAjopcH0qMlgcYoACWHanIF6k4pciq9AFjK1HvNR0uD6UAJUokwMVFS4PpQBKCMUhCE9aioxigCcsdoApPMpgY9BTTnvQBP1oJFRbiBTcE9qAJUCeuKfj0qtUokwMUATGTAx6UzrzUB5NTDoKADcRxzS9aCRUQcjigD/9L+UNvuCodq1M33BUdAE6/dFQnrUw6CoT1oAShSRRSDpQArd6QdBSt3pB0FAAelA6Cg9KB0FADye1MHSnGmjoKAHk9qq1ZNVqACrOeAPaq1WOw+goAjYnAqOnt0FMoAapOTTqYvU0+gB2402iigCA9amHQVCetTDoKAGr1NPpi9TT6AGt92mx05vu02OgCSiiigCEk5oU80h60DqKAJmJxSRHmhvu0kXWgB8hPNNJO3NLJ0NNP3KAHDpUb9cVIOgqN+tADcmnN2plObt9KAG0UUUAQHrVj+ED2quetWOw+lAEI+/VwdBVMffq4OgoAWiiigB2405icCo6e3QUACHnFSqSKhT71SjpQBIWOamDNgVXPWph0FAAxOM1BUzfdqGgAuSfLH4VngnFX7n/Vj8Kzx0FAC1AetT1AetAEL9aaOopz9aaOooAX+Kj+Kj+Kj+KgBD1qWI81EetSRdaAHSdDUW41LJ0NQUATjpUJ61MOgqE9aAEooooAUdRQetA6ig9aAF3Gm0UUAVJetUQPmJ96vS9aojqfrQBYHQUtIOgpaAJx0FWB0FVx0FWB0FAEJ60lKetJQAUUUUATjoKWkHQUtACMflpCTsob7tIfuUAQnpQhIFB6UifdoAeetRA/NipT1qEffoAc5xxTh0FMftTx0FAC0UUUAFQHrU9QHrQAlTjoKgqcdBQAtQHrU9QHrQAlSMcKBUdPboKAE3Gm0UUAFNUnJp1MXqaAJdzUxicZpaa33aAIagPWp6gPWgBKKKKACnt0FMp7dBQBGpNWB0qsverI6CgB2TSUUUAQHrSUp60lADk+9U1Qp96pqAID1qYdBUJ61MOgoAhPWnP8A6umnrTn/ANXQA2PtT37UyPtT37UAI3QVIOgqNugqQdBQBCetJSnrSUAFSnhBioqkb7goAjooooA//9k=;rotation=0;" parent="akDgEPqX-OIN3_G8ha6D-1" vertex="1">
          <mxGeometry x="880" y="430" width="1114" height="179" as="geometry" />
        </mxCell>
        <mxCell id="aHkvzQUfCh2SLxf97zeR-42" value="MIDI" style="" parent="0" />
        <mxCell id="aHkvzQUfCh2SLxf97zeR-43" style="edgeStyle=orthogonalEdgeStyle;rounded=0;orthogonalLoop=1;jettySize=auto;html=1;exitX=0.5;exitY=1;exitDx=0;exitDy=0;strokeColor=#00CC00;strokeWidth=2;" parent="aHkvzQUfCh2SLxf97zeR-42" source="aHkvzQUfCh2SLxf97zeR-44" edge="1">
          <mxGeometry relative="1" as="geometry">
            <mxPoint x="1635" y="420" as="targetPoint" />
          </mxGeometry>
        </mxCell>
        <mxCell id="aHkvzQUfCh2SLxf97zeR-44" value="&lt;div&gt;Sound Banks / Favorites&lt;/div&gt;" style="rounded=1;whiteSpace=wrap;html=1;fillColor=#f5f5f5;fontColor=#333333;strokeColor=#00CC00;strokeWidth=2;" parent="aHkvzQUfCh2SLxf97zeR-42" vertex="1">
          <mxGeometry x="1575" y="340" width="120" height="50" as="geometry" />
        </mxCell>
        <mxCell id="aHkvzQUfCh2SLxf97zeR-45" value="" style="rounded=1;whiteSpace=wrap;html=1;fillColor=none;strokeColor=#00CC00;strokeWidth=4;" parent="aHkvzQUfCh2SLxf97zeR-42" vertex="1">
          <mxGeometry x="956" y="440" width="210" height="80" as="geometry" />
        </mxCell>
        <mxCell id="aHkvzQUfCh2SLxf97zeR-46" value="" style="rounded=1;whiteSpace=wrap;html=1;fillColor=none;strokeColor=#00CC00;strokeWidth=4;" parent="aHkvzQUfCh2SLxf97zeR-42" vertex="1">
          <mxGeometry x="1438" y="440" width="66" height="127" as="geometry" />
        </mxCell>
        <mxCell id="aHkvzQUfCh2SLxf97zeR-47" value="" style="rounded=1;whiteSpace=wrap;html=1;fillColor=none;strokeColor=#00CC00;strokeWidth=4;arcSize=8;" parent="aHkvzQUfCh2SLxf97zeR-42" vertex="1">
          <mxGeometry x="1510" y="440" width="250" height="90" as="geometry" />
        </mxCell>
        <mxCell id="aHkvzQUfCh2SLxf97zeR-48" value="" style="rounded=1;whiteSpace=wrap;html=1;fillColor=none;strokeColor=#00CC00;strokeWidth=4;arcSize=8;" parent="aHkvzQUfCh2SLxf97zeR-42" vertex="1">
          <mxGeometry x="1766" y="440" width="224" height="150" as="geometry" />
        </mxCell>
        <mxCell id="aHkvzQUfCh2SLxf97zeR-49" value="" style="rounded=1;whiteSpace=wrap;html=1;fillColor=none;strokeColor=#00CC00;strokeWidth=4;" parent="aHkvzQUfCh2SLxf97zeR-42" vertex="1">
          <mxGeometry x="890" y="527" width="60" height="60" as="geometry" />
        </mxCell>
        <mxCell id="aHkvzQUfCh2SLxf97zeR-50" style="edgeStyle=orthogonalEdgeStyle;rounded=0;orthogonalLoop=1;jettySize=auto;html=1;exitX=0.5;exitY=1;exitDx=0;exitDy=0;strokeColor=#00CC00;strokeWidth=2;" parent="aHkvzQUfCh2SLxf97zeR-42" source="aHkvzQUfCh2SLxf97zeR-51" edge="1">
          <mxGeometry relative="1" as="geometry">
            <mxPoint x="1061" y="420" as="targetPoint" />
          </mxGeometry>
        </mxCell>
        <mxCell id="aHkvzQUfCh2SLxf97zeR-51" value="&lt;div&gt;Instrument Knobs&lt;/div&gt;" style="rounded=1;whiteSpace=wrap;html=1;fillColor=#f5f5f5;fontColor=#333333;strokeColor=#00CC00;strokeWidth=2;" parent="aHkvzQUfCh2SLxf97zeR-42" vertex="1">
          <mxGeometry x="1001" y="340" width="120" height="50" as="geometry" />
        </mxCell>
        <mxCell id="aHkvzQUfCh2SLxf97zeR-52" style="edgeStyle=orthogonalEdgeStyle;rounded=0;orthogonalLoop=1;jettySize=auto;html=1;exitX=0.5;exitY=1;exitDx=0;exitDy=0;strokeColor=#00CC00;strokeWidth=2;" parent="aHkvzQUfCh2SLxf97zeR-42" source="aHkvzQUfCh2SLxf97zeR-53" edge="1">
          <mxGeometry relative="1" as="geometry">
            <mxPoint x="1471" y="420" as="targetPoint" />
          </mxGeometry>
        </mxCell>
        <mxCell id="aHkvzQUfCh2SLxf97zeR-53" value="&lt;div&gt;Sound Banks / Favorites&lt;/div&gt;" style="rounded=1;whiteSpace=wrap;html=1;fillColor=#f5f5f5;fontColor=#333333;strokeColor=#00CC00;strokeWidth=2;" parent="aHkvzQUfCh2SLxf97zeR-42" vertex="1">
          <mxGeometry x="1411" y="340" width="120" height="50" as="geometry" />
        </mxCell>
        <mxCell id="aHkvzQUfCh2SLxf97zeR-54" style="edgeStyle=orthogonalEdgeStyle;rounded=0;orthogonalLoop=1;jettySize=auto;html=1;exitX=0.5;exitY=1;exitDx=0;exitDy=0;strokeColor=#00CC00;strokeWidth=2;" parent="aHkvzQUfCh2SLxf97zeR-42" source="aHkvzQUfCh2SLxf97zeR-55" edge="1">
          <mxGeometry relative="1" as="geometry">
            <mxPoint x="1878" y="420" as="targetPoint" />
          </mxGeometry>
        </mxCell>
        <mxCell id="aHkvzQUfCh2SLxf97zeR-55" value="&lt;div&gt;Sound Banks / Favorites&lt;/div&gt;" style="rounded=1;whiteSpace=wrap;html=1;fillColor=#f5f5f5;fontColor=#333333;strokeColor=#00CC00;strokeWidth=2;" parent="aHkvzQUfCh2SLxf97zeR-42" vertex="1">
          <mxGeometry x="1818" y="340" width="120" height="50" as="geometry" />
        </mxCell>
        <mxCell id="aHkvzQUfCh2SLxf97zeR-56" style="edgeStyle=orthogonalEdgeStyle;rounded=0;orthogonalLoop=1;jettySize=auto;html=1;exitX=0.5;exitY=0;exitDx=0;exitDy=0;strokeColor=#00CC00;strokeWidth=2;" parent="aHkvzQUfCh2SLxf97zeR-42" source="aHkvzQUfCh2SLxf97zeR-57" edge="1">
          <mxGeometry relative="1" as="geometry">
            <mxPoint x="920" y="620" as="targetPoint" />
          </mxGeometry>
        </mxCell>
        <mxCell id="aHkvzQUfCh2SLxf97zeR-57" value="Assignable" style="rounded=1;whiteSpace=wrap;html=1;fillColor=#f5f5f5;fontColor=#333333;strokeColor=#00CC00;strokeWidth=2;" parent="aHkvzQUfCh2SLxf97zeR-42" vertex="1">
          <mxGeometry x="860" y="650" width="120" height="60" as="geometry" />
        </mxCell>
        <mxCell id="akDgEPqX-OIN3_G8ha6D-4" value="Not MIDI" style="" parent="0" visible="0" />
        <mxCell id="akDgEPqX-OIN3_G8ha6D-5" value="Master Volume" style="rounded=1;whiteSpace=wrap;html=1;fillColor=#f5f5f5;fontColor=#333333;strokeColor=#FF0000;strokeWidth=2;" parent="akDgEPqX-OIN3_G8ha6D-4" vertex="1">
          <mxGeometry x="860" y="340" width="120" height="50" as="geometry" />
        </mxCell>
        <mxCell id="akDgEPqX-OIN3_G8ha6D-6" value="" style="strokeWidth=1;shadow=0;dashed=0;align=center;html=1;shape=mxgraph.mockup.text.callout;linkText=;textSize=17;textColor=#666666;callDir=SW;callStyle=line;fontSize=17;fontColor=#666666;align=left;verticalAlign=bottom;strokeColor=#666666;" parent="akDgEPqX-OIN3_G8ha6D-4" vertex="1">
          <mxGeometry x="480" y="80" width="130" height="20" as="geometry" />
        </mxCell>
        <mxCell id="aHkvzQUfCh2SLxf97zeR-10" style="edgeStyle=orthogonalEdgeStyle;rounded=0;orthogonalLoop=1;jettySize=auto;html=1;exitX=0.5;exitY=1;exitDx=0;exitDy=0;strokeColor=#FF0000;strokeWidth=2;" parent="akDgEPqX-OIN3_G8ha6D-4" source="akDgEPqX-OIN3_G8ha6D-7" edge="1">
          <mxGeometry relative="1" as="geometry">
            <mxPoint x="1301" y="420" as="targetPoint" />
          </mxGeometry>
        </mxCell>
        <mxCell id="akDgEPqX-OIN3_G8ha6D-7" value="&lt;div&gt;Settings&lt;/div&gt;" style="rounded=1;whiteSpace=wrap;html=1;fillColor=#f5f5f5;fontColor=#333333;strokeColor=#FF0000;strokeWidth=2;" parent="akDgEPqX-OIN3_G8ha6D-4" vertex="1">
          <mxGeometry x="1241" y="340" width="120" height="50" as="geometry" />
        </mxCell>
        <mxCell id="akDgEPqX-OIN3_G8ha6D-8" value="" style="strokeWidth=1;shadow=0;dashed=0;align=center;html=1;shape=mxgraph.mockup.text.callout;linkText=;textSize=17;textColor=#666666;callDir=SW;callStyle=line;fontSize=17;fontColor=#666666;align=left;verticalAlign=bottom;strokeColor=#666666;" parent="akDgEPqX-OIN3_G8ha6D-4" vertex="1">
          <mxGeometry x="480" y="355" width="130" height="20" as="geometry" />
        </mxCell>
        <mxCell id="akDgEPqX-OIN3_G8ha6D-9" value="" style="strokeWidth=1;shadow=0;dashed=0;align=center;html=1;shape=mxgraph.mockup.text.callout;linkText=;textSize=17;textColor=#666666;callDir=SW;callStyle=line;fontSize=17;fontColor=#666666;align=left;verticalAlign=bottom;strokeColor=#666666;" parent="akDgEPqX-OIN3_G8ha6D-4" vertex="1">
          <mxGeometry x="470" y="565" width="140" height="20" as="geometry" />
        </mxCell>
        <mxCell id="akDgEPqX-OIN3_G8ha6D-10" value="&lt;div&gt;MAIN DIAL&lt;/div&gt;&lt;div&gt;Rotate / Press / Long&lt;br&gt;&lt;/div&gt;&lt;div&gt;&lt;br&gt;&lt;/div&gt;&lt;div&gt;PC &amp;amp; Other - AVOID&lt;/div&gt;" style="rounded=1;whiteSpace=wrap;html=1;fillColor=#f5f5f5;fontColor=#333333;strokeColor=#666666;" parent="akDgEPqX-OIN3_G8ha6D-4" vertex="1">
          <mxGeometry x="590" y="610" width="160" height="70" as="geometry" />
        </mxCell>
        <mxCell id="akDgEPqX-OIN3_G8ha6D-11" value="" style="strokeWidth=1;shadow=0;dashed=0;align=center;html=1;shape=mxgraph.mockup.text.callout;linkText=;textSize=17;textColor=#666666;callDir=SW;callStyle=line;fontSize=17;fontColor=#666666;align=left;verticalAlign=bottom;strokeColor=#666666;" parent="akDgEPqX-OIN3_G8ha6D-4" vertex="1">
          <mxGeometry x="470" y="635" width="120" height="20" as="geometry" />
        </mxCell>
        <mxCell id="aHkvzQUfCh2SLxf97zeR-9" style="edgeStyle=orthogonalEdgeStyle;rounded=0;orthogonalLoop=1;jettySize=auto;html=1;exitX=0.5;exitY=0;exitDx=0;exitDy=0;strokeColor=#FF0000;strokeWidth=2;" parent="akDgEPqX-OIN3_G8ha6D-4" source="akDgEPqX-OIN3_G8ha6D-12" edge="1">
          <mxGeometry relative="1" as="geometry">
            <mxPoint x="1060" y="620" as="targetPoint" />
          </mxGeometry>
        </mxCell>
        <mxCell id="akDgEPqX-OIN3_G8ha6D-12" value="Zone Selection" style="rounded=1;whiteSpace=wrap;html=1;fillColor=#f5f5f5;fontColor=#333333;strokeColor=#FF0000;strokeWidth=2;" parent="akDgEPqX-OIN3_G8ha6D-4" vertex="1">
          <mxGeometry x="1000" y="650" width="120" height="60" as="geometry" />
        </mxCell>
        <mxCell id="akDgEPqX-OIN3_G8ha6D-13" value="" style="strokeWidth=1;shadow=0;dashed=0;align=center;html=1;shape=mxgraph.mockup.text.callout;linkText=;textSize=17;textColor=#666666;callDir=SW;callStyle=line;fontSize=17;fontColor=#666666;align=left;verticalAlign=bottom;strokeColor=#666666;rotation=180;flipV=1;" parent="akDgEPqX-OIN3_G8ha6D-4" vertex="1">
          <mxGeometry x="199" y="220" width="90" height="20" as="geometry" />
        </mxCell>
        <mxCell id="akDgEPqX-OIN3_G8ha6D-15" value="&lt;div&gt;SETTINGS&lt;/div&gt;&lt;div&gt;No MIDI&lt;/div&gt;" style="rounded=1;whiteSpace=wrap;html=1;fillColor=#f5f5f5;fontColor=#333333;strokeColor=#666666;" parent="akDgEPqX-OIN3_G8ha6D-4" vertex="1">
          <mxGeometry x="610" y="540" width="120" height="50" as="geometry" />
        </mxCell>
        <mxCell id="akDgEPqX-OIN3_G8ha6D-16" value="&lt;div&gt;MIDI&lt;/div&gt;&lt;div&gt;Press / Long&lt;/div&gt;&lt;div&gt;&lt;br&gt;&lt;/div&gt;&lt;div&gt;AVOID / MIDI PANIC&lt;/div&gt;" style="rounded=1;whiteSpace=wrap;html=1;fillColor=#f5f5f5;fontColor=#333333;strokeColor=#666666;" parent="akDgEPqX-OIN3_G8ha6D-4" vertex="1">
          <mxGeometry x="570" y="910" width="160" height="70" as="geometry" />
        </mxCell>
        <mxCell id="akDgEPqX-OIN3_G8ha6D-17" value="" style="strokeWidth=1;shadow=0;dashed=0;align=center;html=1;shape=mxgraph.mockup.text.callout;linkText=;textSize=17;textColor=#666666;callDir=SW;callStyle=line;fontSize=17;fontColor=#666666;align=left;verticalAlign=bottom;strokeColor=#666666;flipV=1;" parent="akDgEPqX-OIN3_G8ha6D-4" vertex="1">
          <mxGeometry x="460" y="925" width="110" height="20" as="geometry" />
        </mxCell>
        <mxCell id="akDgEPqX-OIN3_G8ha6D-18" value="&lt;div&gt;PROGRAM SWITCHES&lt;/div&gt;&lt;div&gt;Press / Long&lt;/div&gt;&lt;div&gt;&lt;br&gt;&lt;/div&gt;&lt;div&gt;AVOID&lt;/div&gt;" style="rounded=1;whiteSpace=wrap;html=1;fillColor=#f5f5f5;fontColor=#333333;strokeColor=#666666;" parent="akDgEPqX-OIN3_G8ha6D-4" vertex="1">
          <mxGeometry x="605" y="730" width="160" height="70" as="geometry" />
        </mxCell>
        <mxCell id="akDgEPqX-OIN3_G8ha6D-19" value="" style="strokeWidth=1;shadow=0;dashed=0;align=center;html=1;shape=mxgraph.mockup.text.callout;linkText=;textSize=17;textColor=#666666;callDir=SW;callStyle=line;fontSize=17;fontColor=#666666;align=left;verticalAlign=bottom;strokeColor=#666666;" parent="akDgEPqX-OIN3_G8ha6D-4" vertex="1">
          <mxGeometry x="515" y="760" width="90" height="20" as="geometry" />
        </mxCell>
        <mxCell id="akDgEPqX-OIN3_G8ha6D-20" value="" style="shape=curlyBracket;whiteSpace=wrap;html=1;rounded=1;flipH=1;labelPosition=right;verticalLabelPosition=middle;align=left;verticalAlign=middle;" parent="akDgEPqX-OIN3_G8ha6D-4" vertex="1">
          <mxGeometry x="497" y="690" width="20" height="180" as="geometry" />
        </mxCell>
        <mxCell id="aHkvzQUfCh2SLxf97zeR-1" value="" style="endArrow=classic;html=1;rounded=0;exitX=0.5;exitY=1;exitDx=0;exitDy=0;strokeColor=#FF0000;strokeWidth=2;" parent="akDgEPqX-OIN3_G8ha6D-4" source="akDgEPqX-OIN3_G8ha6D-5" edge="1">
          <mxGeometry width="50" height="50" relative="1" as="geometry">
            <mxPoint x="740" y="440" as="sourcePoint" />
            <mxPoint x="920" y="420" as="targetPoint" />
            <Array as="points">
              <mxPoint x="920" y="410" />
            </Array>
          </mxGeometry>
        </mxCell>
        <mxCell id="aHkvzQUfCh2SLxf97zeR-2" style="edgeStyle=orthogonalEdgeStyle;rounded=0;orthogonalLoop=1;jettySize=auto;html=1;exitX=0;exitY=0.5;exitDx=0;exitDy=0;" parent="akDgEPqX-OIN3_G8ha6D-4" source="akDgEPqX-OIN3_G8ha6D-28" target="us3Lwe0Q26RAPPxU5ORR-9" edge="1">
          <mxGeometry relative="1" as="geometry" />
        </mxCell>
        <mxCell id="aHkvzQUfCh2SLxf97zeR-36" style="edgeStyle=orthogonalEdgeStyle;rounded=0;orthogonalLoop=1;jettySize=auto;html=1;exitX=0.5;exitY=0;exitDx=0;exitDy=0;strokeColor=#FF0000;strokeWidth=2;" parent="akDgEPqX-OIN3_G8ha6D-4" source="aHkvzQUfCh2SLxf97zeR-37" edge="1">
          <mxGeometry relative="1" as="geometry">
            <mxPoint x="1608" y="621" as="targetPoint" />
          </mxGeometry>
        </mxCell>
        <mxCell id="aHkvzQUfCh2SLxf97zeR-37" value="Selectors" style="rounded=1;whiteSpace=wrap;html=1;fillColor=#f5f5f5;fontColor=#333333;strokeColor=#FF0000;strokeWidth=2;" parent="akDgEPqX-OIN3_G8ha6D-4" vertex="1">
          <mxGeometry x="1548" y="651" width="120" height="60" as="geometry" />
        </mxCell>
        <mxCell id="aHkvzQUfCh2SLxf97zeR-38" value="" style="rounded=1;whiteSpace=wrap;html=1;fillColor=none;strokeColor=#FF0000;strokeWidth=2;" parent="akDgEPqX-OIN3_G8ha6D-4" vertex="1">
          <mxGeometry x="956" y="510" width="210" height="63" as="geometry" />
        </mxCell>
        <mxCell id="aHkvzQUfCh2SLxf97zeR-39" value="" style="rounded=1;whiteSpace=wrap;html=1;fillColor=none;strokeColor=#FF0000;strokeWidth=2;arcSize=8;" parent="akDgEPqX-OIN3_G8ha6D-4" vertex="1">
          <mxGeometry x="1180" y="440" width="252" height="130" as="geometry" />
        </mxCell>
        <mxCell id="aHkvzQUfCh2SLxf97zeR-40" value="" style="rounded=1;whiteSpace=wrap;html=1;fillColor=none;strokeColor=#FF0000;strokeWidth=2;" parent="akDgEPqX-OIN3_G8ha6D-4" vertex="1">
          <mxGeometry x="890" y="464" width="60" height="60" as="geometry" />
        </mxCell>
        <mxCell id="aHkvzQUfCh2SLxf97zeR-41" value="" style="rounded=1;whiteSpace=wrap;html=1;fillColor=none;strokeColor=#FF0000;strokeWidth=2;" parent="akDgEPqX-OIN3_G8ha6D-4" vertex="1">
          <mxGeometry x="1510" y="530" width="250" height="40" as="geometry" />
        </mxCell>
        <object label="MIDI Map" id="1">
          <mxCell style="" parent="0" visible="0" />
        </object>
        <mxCell id="us3Lwe0Q26RAPPxU5ORR-6" value="&lt;div&gt;ZONE 1 - 4&lt;/div&gt;&lt;div&gt;Rotate / Press/ Long&lt;/div&gt;&lt;div&gt;&lt;br&gt;&lt;/div&gt;&lt;div&gt;Z1: 7 &amp;amp; 33 / 12 / 12=1, 13=2,14=2, 15=2&lt;/div&gt;&lt;div&gt;Z2: 34&amp;nbsp; / 13 /&amp;nbsp;12=2, 13=1,14=2, 15=2&lt;br&gt;&lt;/div&gt;&lt;div&gt;Z3: 35 / 14 /&amp;nbsp;12=2, 13=2,14=1, 15=2&lt;br&gt;&lt;/div&gt;&lt;div&gt;Z4: 36 / 15 /&amp;nbsp;12=2, 13=2,14=2, 15=1&lt;br&gt;&lt;/div&gt;" style="rounded=1;whiteSpace=wrap;html=1;" parent="1" vertex="1">
          <mxGeometry x="590" y="170" width="230" height="120" as="geometry" />
        </mxCell>
        <mxCell id="us3Lwe0Q26RAPPxU5ORR-7" value="" style="strokeWidth=1;shadow=0;dashed=0;align=center;html=1;shape=mxgraph.mockup.text.callout;linkText=;textSize=17;textColor=#666666;callDir=SW;callStyle=line;fontSize=17;fontColor=#666666;align=left;verticalAlign=bottom;strokeColor=#666666;" parent="1" vertex="1">
          <mxGeometry x="510" y="220" width="80" height="20" as="geometry" />
        </mxCell>
        <mxCell id="us3Lwe0Q26RAPPxU5ORR-9" value="" style="shape=curlyBracket;whiteSpace=wrap;html=1;rounded=1;flipH=1;labelPosition=right;verticalLabelPosition=middle;align=left;verticalAlign=middle;" parent="1" vertex="1">
          <mxGeometry x="490" y="150" width="20" height="180" as="geometry" />
        </mxCell>
        <mxCell id="us3Lwe0Q26RAPPxU5ORR-15" value="&lt;div&gt;FX KNOBS&lt;/div&gt;&lt;div&gt;Rotate / Press / &lt;strike&gt;Long&lt;/strike&gt;&lt;br&gt;&lt;/div&gt;&lt;div&gt;&lt;br&gt;&lt;/div&gt;&lt;div&gt;FX A: 73 / 74 (0/48)&lt;/div&gt;&lt;div&gt;FX B: 105 / 106 (0/8)&lt;br&gt;&lt;/div&gt;&lt;div&gt;DELAY: 25 / 25 (0/current)&lt;/div&gt;&lt;div&gt;REVERB:&amp;nbsp;&lt;span style=&quot;background-color: initial;&quot;&gt;29 / 29 (0/current)&lt;/span&gt;&lt;/div&gt;" style="rounded=1;whiteSpace=wrap;html=1;" parent="1" vertex="1">
          <mxGeometry x="605" y="1010" width="285" height="150" as="geometry" />
        </mxCell>
        <mxCell id="us3Lwe0Q26RAPPxU5ORR-16" value="" style="strokeWidth=1;shadow=0;dashed=0;align=center;html=1;shape=mxgraph.mockup.text.callout;linkText=;textSize=17;textColor=#666666;callDir=SW;callStyle=line;fontSize=17;fontColor=#666666;align=left;verticalAlign=bottom;strokeColor=#666666;" parent="1" vertex="1">
          <mxGeometry x="515" y="1030" width="90" height="20" as="geometry" />
        </mxCell>
        <mxCell id="us3Lwe0Q26RAPPxU5ORR-17" value="" style="shape=curlyBracket;whiteSpace=wrap;html=1;rounded=1;flipH=1;labelPosition=right;verticalLabelPosition=middle;align=left;verticalAlign=middle;" parent="1" vertex="1">
          <mxGeometry x="497" y="960" width="20" height="180" as="geometry" />
        </mxCell>
        <mxCell id="us3Lwe0Q26RAPPxU5ORR-18" value="&lt;div&gt;FX KNOBS&lt;/div&gt;&lt;div&gt;Rotate / Press=Select P / Long&lt;br&gt;&lt;/div&gt;&lt;div&gt;&lt;br&gt;&lt;/div&gt;&lt;div&gt;&lt;div&gt;FX A P1=75 P2=76 P3=77&lt;/div&gt;&lt;div&gt;FX B:&amp;nbsp;&lt;span style=&quot;background-color: initial;&quot;&gt;P1=xx P2=xx P3=xx&lt;/span&gt;&lt;br&gt;&lt;/div&gt;&lt;div&gt;DELAY:&lt;span style=&quot;background-color: initial;&quot;&gt;&amp;nbsp;&lt;/span&gt;&lt;span style=&quot;background-color: initial;&quot;&gt;P1=107 P2=108 P3=109&lt;/span&gt;&lt;/div&gt;&lt;div&gt;REVERB:&lt;span style=&quot;background-color: initial;&quot;&gt;&amp;nbsp;&lt;/span&gt;&lt;span style=&quot;background-color: initial;&quot;&gt;P1=61 P2=62 P3=63&lt;/span&gt;&lt;/div&gt;&lt;/div&gt;" style="rounded=1;whiteSpace=wrap;html=1;" parent="1" vertex="1">
          <mxGeometry x="20" y="955" width="190" height="120" as="geometry" />
        </mxCell>
        <mxCell id="us3Lwe0Q26RAPPxU5ORR-19" value="" style="strokeWidth=1;shadow=0;dashed=0;align=center;html=1;shape=mxgraph.mockup.text.callout;linkText=;textSize=17;textColor=#666666;callDir=SW;callStyle=line;fontSize=17;fontColor=#666666;align=left;verticalAlign=bottom;strokeColor=#666666;rotation=180;flipV=1;" parent="1" vertex="1">
          <mxGeometry x="210" y="1025" width="70" height="20" as="geometry" />
        </mxCell>
        <mxCell id="us3Lwe0Q26RAPPxU5ORR-20" value="" style="shape=curlyBracket;whiteSpace=wrap;html=1;rounded=1;flipH=1;labelPosition=right;verticalLabelPosition=middle;align=left;verticalAlign=middle;rotation=180;" parent="1" vertex="1">
          <mxGeometry x="278" y="955" width="20" height="180" as="geometry" />
        </mxCell>
        <mxCell id="us3Lwe0Q26RAPPxU5ORR-30" value="&lt;div&gt;SPLIT&lt;/div&gt;&lt;div&gt;Press / Long&lt;/div&gt;&lt;div&gt;&lt;br&gt;&lt;/div&gt;&lt;div&gt;CC 9 On=1/Off=0 / ???&lt;/div&gt;" style="rounded=1;whiteSpace=wrap;html=1;" parent="1" vertex="1">
          <mxGeometry x="570" y="830" width="160" height="70" as="geometry" />
        </mxCell>
        <mxCell id="us3Lwe0Q26RAPPxU5ORR-31" value="" style="strokeWidth=1;shadow=0;dashed=0;align=center;html=1;shape=mxgraph.mockup.text.callout;linkText=;textSize=17;textColor=#666666;callDir=SW;callStyle=line;fontSize=17;fontColor=#666666;align=left;verticalAlign=bottom;strokeColor=#666666;" parent="1" vertex="1">
          <mxGeometry x="460" y="865" width="110" height="20" as="geometry" />
        </mxCell>
        <mxCell id="akDgEPqX-OIN3_G8ha6D-82" value="MIDI Send by NUMA X" style="text;html=1;align=center;verticalAlign=middle;whiteSpace=wrap;rounded=0;fontSize=18;" parent="1" vertex="1">
          <mxGeometry x="300" y="10" width="200" height="30" as="geometry" />
        </mxCell>
        <mxCell id="akDgEPqX-OIN3_G8ha6D-21" value="GP Map" style="" parent="0" />
        <mxCell id="akDgEPqX-OIN3_G8ha6D-24" value="" style="rounded=1;whiteSpace=wrap;html=1;" parent="akDgEPqX-OIN3_G8ha6D-21" vertex="1">
          <mxGeometry x="493" y="135" width="230" height="40" as="geometry" />
        </mxCell>
        <mxCell id="akDgEPqX-OIN3_G8ha6D-22" value="Instrument 1" style="text;html=1;align=left;verticalAlign=middle;whiteSpace=wrap;rounded=0;" parent="akDgEPqX-OIN3_G8ha6D-21" vertex="1">
          <mxGeometry x="500" y="140" width="80" height="30" as="geometry" />
        </mxCell>
        <mxCell id="akDgEPqX-OIN3_G8ha6D-23" value="&lt;div&gt;&lt;ul style=&quot;padding-left: 10px;&quot;&gt;&lt;li&gt;Rotate: Volume&lt;/li&gt;&lt;li&gt;Press: Mute ON / OFF&lt;/li&gt;&lt;/ul&gt;&lt;/div&gt;" style="text;html=1;align=left;verticalAlign=middle;whiteSpace=wrap;rounded=0;" parent="akDgEPqX-OIN3_G8ha6D-21" vertex="1">
          <mxGeometry x="580" y="140" width="140" height="30" as="geometry" />
        </mxCell>
        <mxCell id="akDgEPqX-OIN3_G8ha6D-25" value="" style="rounded=1;whiteSpace=wrap;html=1;" parent="akDgEPqX-OIN3_G8ha6D-21" vertex="1">
          <mxGeometry x="493" y="187" width="230" height="40" as="geometry" />
        </mxCell>
        <mxCell id="akDgEPqX-OIN3_G8ha6D-26" value="Instrument 2" style="text;html=1;align=left;verticalAlign=middle;whiteSpace=wrap;rounded=0;" parent="akDgEPqX-OIN3_G8ha6D-21" vertex="1">
          <mxGeometry x="500" y="192" width="80" height="30" as="geometry" />
        </mxCell>
        <mxCell id="akDgEPqX-OIN3_G8ha6D-27" value="&lt;div&gt;&lt;ul style=&quot;padding-left: 10px;&quot;&gt;&lt;li&gt;Rotate: Volume&lt;/li&gt;&lt;li&gt;Press: Mute ON / OFF&lt;/li&gt;&lt;/ul&gt;&lt;/div&gt;" style="text;html=1;align=left;verticalAlign=middle;whiteSpace=wrap;rounded=0;" parent="akDgEPqX-OIN3_G8ha6D-21" vertex="1">
          <mxGeometry x="580" y="192" width="140" height="30" as="geometry" />
        </mxCell>
        <mxCell id="akDgEPqX-OIN3_G8ha6D-28" value="" style="rounded=1;whiteSpace=wrap;html=1;" parent="akDgEPqX-OIN3_G8ha6D-21" vertex="1">
          <mxGeometry x="493" y="241" width="230" height="40" as="geometry" />
        </mxCell>
        <mxCell id="akDgEPqX-OIN3_G8ha6D-29" value="Instrument 3" style="text;html=1;align=left;verticalAlign=middle;whiteSpace=wrap;rounded=0;" parent="akDgEPqX-OIN3_G8ha6D-21" vertex="1">
          <mxGeometry x="500" y="246" width="80" height="30" as="geometry" />
        </mxCell>
        <mxCell id="akDgEPqX-OIN3_G8ha6D-30" value="&lt;div&gt;&lt;ul style=&quot;padding-left: 10px;&quot;&gt;&lt;li&gt;Rotate: Volume&lt;/li&gt;&lt;li&gt;Press: Mute ON / OFF&lt;/li&gt;&lt;/ul&gt;&lt;/div&gt;" style="text;html=1;align=left;verticalAlign=middle;whiteSpace=wrap;rounded=0;" parent="akDgEPqX-OIN3_G8ha6D-21" vertex="1">
          <mxGeometry x="580" y="246" width="140" height="30" as="geometry" />
        </mxCell>
        <mxCell id="akDgEPqX-OIN3_G8ha6D-31" value="" style="rounded=1;whiteSpace=wrap;html=1;" parent="akDgEPqX-OIN3_G8ha6D-21" vertex="1">
          <mxGeometry x="493" y="293" width="230" height="40" as="geometry" />
        </mxCell>
        <mxCell id="akDgEPqX-OIN3_G8ha6D-32" value="Instrument 4" style="text;html=1;align=left;verticalAlign=middle;whiteSpace=wrap;rounded=0;" parent="akDgEPqX-OIN3_G8ha6D-21" vertex="1">
          <mxGeometry x="500" y="298" width="80" height="30" as="geometry" />
        </mxCell>
        <mxCell id="akDgEPqX-OIN3_G8ha6D-33" value="&lt;div&gt;&lt;ul style=&quot;padding-left: 10px;&quot;&gt;&lt;li&gt;Rotate: Volume&lt;/li&gt;&lt;li&gt;Press: Mute ON / OFF&lt;/li&gt;&lt;/ul&gt;&lt;/div&gt;" style="text;html=1;align=left;verticalAlign=middle;whiteSpace=wrap;rounded=0;" parent="akDgEPqX-OIN3_G8ha6D-21" vertex="1">
          <mxGeometry x="580" y="298" width="140" height="30" as="geometry" />
        </mxCell>
        <mxCell id="akDgEPqX-OIN3_G8ha6D-34" value="" style="rounded=1;whiteSpace=wrap;html=1;" parent="akDgEPqX-OIN3_G8ha6D-21" vertex="1">
          <mxGeometry x="500" y="947" width="230" height="40" as="geometry" />
        </mxCell>
        <mxCell id="akDgEPqX-OIN3_G8ha6D-35" value="FX A" style="text;html=1;align=left;verticalAlign=middle;whiteSpace=wrap;rounded=0;" parent="akDgEPqX-OIN3_G8ha6D-21" vertex="1">
          <mxGeometry x="507" y="952" width="80" height="30" as="geometry" />
        </mxCell>
        <mxCell id="akDgEPqX-OIN3_G8ha6D-36" value="&lt;div&gt;&lt;ul style=&quot;padding-left: 10px;&quot;&gt;&lt;li&gt;Rotate: &amp;lt;not used&amp;gt;&lt;/li&gt;&lt;li&gt;Press: Previous Song&lt;/li&gt;&lt;/ul&gt;&lt;/div&gt;" style="text;html=1;align=left;verticalAlign=middle;whiteSpace=wrap;rounded=0;" parent="akDgEPqX-OIN3_G8ha6D-21" vertex="1">
          <mxGeometry x="587" y="952" width="140" height="30" as="geometry" />
        </mxCell>
        <mxCell id="akDgEPqX-OIN3_G8ha6D-37" value="" style="rounded=1;whiteSpace=wrap;html=1;" parent="akDgEPqX-OIN3_G8ha6D-21" vertex="1">
          <mxGeometry x="500" y="999" width="230" height="40" as="geometry" />
        </mxCell>
        <mxCell id="akDgEPqX-OIN3_G8ha6D-38" value="FX B" style="text;html=1;align=left;verticalAlign=middle;whiteSpace=wrap;rounded=0;" parent="akDgEPqX-OIN3_G8ha6D-21" vertex="1">
          <mxGeometry x="507" y="1004" width="80" height="30" as="geometry" />
        </mxCell>
        <mxCell id="akDgEPqX-OIN3_G8ha6D-39" value="&lt;div&gt;&lt;ul style=&quot;padding-left: 10px;&quot;&gt;&lt;li&gt;Rotate: &amp;lt;not used&amp;gt;&lt;/li&gt;&lt;li&gt;Press: Next Song&lt;/li&gt;&lt;/ul&gt;&lt;/div&gt;" style="text;html=1;align=left;verticalAlign=middle;whiteSpace=wrap;rounded=0;" parent="akDgEPqX-OIN3_G8ha6D-21" vertex="1">
          <mxGeometry x="587" y="1004" width="140" height="30" as="geometry" />
        </mxCell>
        <mxCell id="akDgEPqX-OIN3_G8ha6D-40" value="" style="rounded=1;whiteSpace=wrap;html=1;" parent="akDgEPqX-OIN3_G8ha6D-21" vertex="1">
          <mxGeometry x="500" y="1053" width="230" height="40" as="geometry" />
        </mxCell>
        <mxCell id="akDgEPqX-OIN3_G8ha6D-41" value="Delay" style="text;html=1;align=left;verticalAlign=middle;whiteSpace=wrap;rounded=0;" parent="akDgEPqX-OIN3_G8ha6D-21" vertex="1">
          <mxGeometry x="507" y="1058" width="80" height="30" as="geometry" />
        </mxCell>
        <mxCell id="akDgEPqX-OIN3_G8ha6D-42" value="&lt;div&gt;&lt;ul style=&quot;padding-left: 10px;&quot;&gt;&lt;li&gt;Rotate: &amp;lt;not used&amp;gt;&lt;/li&gt;&lt;li&gt;Press: Auto-Fade&lt;/li&gt;&lt;/ul&gt;&lt;/div&gt;" style="text;html=1;align=left;verticalAlign=middle;whiteSpace=wrap;rounded=0;" parent="akDgEPqX-OIN3_G8ha6D-21" vertex="1">
          <mxGeometry x="587" y="1058" width="140" height="30" as="geometry" />
        </mxCell>
        <mxCell id="akDgEPqX-OIN3_G8ha6D-43" value="" style="rounded=1;whiteSpace=wrap;html=1;" parent="akDgEPqX-OIN3_G8ha6D-21" vertex="1">
          <mxGeometry x="500" y="1105" width="230" height="40" as="geometry" />
        </mxCell>
        <mxCell id="akDgEPqX-OIN3_G8ha6D-44" value="Reverb" style="text;html=1;align=left;verticalAlign=middle;whiteSpace=wrap;rounded=0;" parent="akDgEPqX-OIN3_G8ha6D-21" vertex="1">
          <mxGeometry x="507" y="1110" width="80" height="30" as="geometry" />
        </mxCell>
        <mxCell id="akDgEPqX-OIN3_G8ha6D-45" value="&lt;div&gt;&lt;ul style=&quot;padding-left: 10px;&quot;&gt;&lt;li&gt;Rotate: &amp;lt;not used&amp;gt;&lt;/li&gt;&lt;li&gt;Press: &amp;lt;not used&amp;gt;&lt;/li&gt;&lt;/ul&gt;&lt;/div&gt;" style="text;html=1;align=left;verticalAlign=middle;whiteSpace=wrap;rounded=0;" parent="akDgEPqX-OIN3_G8ha6D-21" vertex="1">
          <mxGeometry x="587" y="1110" width="140" height="30" as="geometry" />
        </mxCell>
        <mxCell id="akDgEPqX-OIN3_G8ha6D-70" value="" style="rounded=1;whiteSpace=wrap;html=1;" parent="akDgEPqX-OIN3_G8ha6D-21" vertex="1">
          <mxGeometry x="60" y="947" width="230" height="40" as="geometry" />
        </mxCell>
        <mxCell id="akDgEPqX-OIN3_G8ha6D-71" value="FX A" style="text;html=1;align=left;verticalAlign=middle;whiteSpace=wrap;rounded=0;" parent="akDgEPqX-OIN3_G8ha6D-21" vertex="1">
          <mxGeometry x="67" y="952" width="80" height="30" as="geometry" />
        </mxCell>
        <mxCell id="akDgEPqX-OIN3_G8ha6D-72" value="&lt;div&gt;&lt;ul style=&quot;padding-left: 10px;&quot;&gt;&lt;li&gt;P1 Rotate: Show Gig Perf&lt;/li&gt;&lt;li&gt;P2 Rotate: &amp;lt;not used&amp;gt;&lt;/li&gt;&lt;li&gt;P3 Rotate: &amp;lt;not used&amp;gt;&lt;/li&gt;&lt;/ul&gt;&lt;/div&gt;" style="text;html=1;align=left;verticalAlign=middle;whiteSpace=wrap;rounded=0;" parent="akDgEPqX-OIN3_G8ha6D-21" vertex="1">
          <mxGeometry x="120" y="952" width="167" height="30" as="geometry" />
        </mxCell>
        <mxCell id="akDgEPqX-OIN3_G8ha6D-73" value="" style="rounded=1;whiteSpace=wrap;html=1;" parent="akDgEPqX-OIN3_G8ha6D-21" vertex="1">
          <mxGeometry x="60" y="999" width="230" height="40" as="geometry" />
        </mxCell>
        <mxCell id="akDgEPqX-OIN3_G8ha6D-74" value="FX B" style="text;html=1;align=left;verticalAlign=middle;whiteSpace=wrap;rounded=0;" parent="akDgEPqX-OIN3_G8ha6D-21" vertex="1">
          <mxGeometry x="67" y="1004" width="80" height="30" as="geometry" />
        </mxCell>
        <mxCell id="akDgEPqX-OIN3_G8ha6D-75" value="&lt;ul style=&quot;padding-left: 10px;&quot;&gt;&lt;li&gt;P1 Rotate: Show Gig Perf&lt;/li&gt;&lt;li&gt;P2 Rotate: &amp;lt;not used&amp;gt;&lt;/li&gt;&lt;li&gt;P3 Rotate: &amp;lt;not used&amp;gt;&lt;/li&gt;&lt;/ul&gt;" style="text;html=1;align=left;verticalAlign=middle;whiteSpace=wrap;rounded=0;" parent="akDgEPqX-OIN3_G8ha6D-21" vertex="1">
          <mxGeometry x="120" y="1004" width="167" height="30" as="geometry" />
        </mxCell>
        <mxCell id="akDgEPqX-OIN3_G8ha6D-76" value="" style="rounded=1;whiteSpace=wrap;html=1;" parent="akDgEPqX-OIN3_G8ha6D-21" vertex="1">
          <mxGeometry x="60" y="1053" width="230" height="40" as="geometry" />
        </mxCell>
        <mxCell id="akDgEPqX-OIN3_G8ha6D-77" value="Delay" style="text;html=1;align=left;verticalAlign=middle;whiteSpace=wrap;rounded=0;" parent="akDgEPqX-OIN3_G8ha6D-21" vertex="1">
          <mxGeometry x="67" y="1058" width="80" height="30" as="geometry" />
        </mxCell>
        <mxCell id="akDgEPqX-OIN3_G8ha6D-78" value="&lt;ul style=&quot;padding-left: 10px;&quot;&gt;&lt;li&gt;P1 Rotate: &amp;lt;not used&amp;gt;&lt;/li&gt;&lt;li&gt;P2 Rotate: &amp;lt;not used&amp;gt;&lt;/li&gt;&lt;li&gt;P3 Rotate: &amp;lt;not used&amp;gt;&lt;/li&gt;&lt;/ul&gt;" style="text;html=1;align=left;verticalAlign=middle;whiteSpace=wrap;rounded=0;" parent="akDgEPqX-OIN3_G8ha6D-21" vertex="1">
          <mxGeometry x="120" y="1058" width="167" height="30" as="geometry" />
        </mxCell>
        <mxCell id="akDgEPqX-OIN3_G8ha6D-79" value="" style="rounded=1;whiteSpace=wrap;html=1;" parent="akDgEPqX-OIN3_G8ha6D-21" vertex="1">
          <mxGeometry x="60" y="1105" width="230" height="40" as="geometry" />
        </mxCell>
        <mxCell id="akDgEPqX-OIN3_G8ha6D-80" value="Reverb" style="text;html=1;align=left;verticalAlign=middle;whiteSpace=wrap;rounded=0;" parent="akDgEPqX-OIN3_G8ha6D-21" vertex="1">
          <mxGeometry x="67" y="1110" width="80" height="30" as="geometry" />
        </mxCell>
        <mxCell id="akDgEPqX-OIN3_G8ha6D-81" value="&lt;ul style=&quot;padding-left: 10px;&quot;&gt;&lt;li&gt;P1 Rotate: &amp;lt;not used&amp;gt;&lt;/li&gt;&lt;li&gt;P2 Rotate: &amp;lt;not used&amp;gt;&lt;/li&gt;&lt;li&gt;P3 Rotate: &amp;lt;not used&amp;gt;&lt;/li&gt;&lt;/ul&gt;" style="text;html=1;align=left;verticalAlign=middle;whiteSpace=wrap;rounded=0;" parent="akDgEPqX-OIN3_G8ha6D-21" vertex="1">
          <mxGeometry x="120" y="1110" width="167" height="30" as="geometry" />
        </mxCell>
        <mxCell id="akDgEPqX-OIN3_G8ha6D-86" value="GP Functions" style="text;html=1;align=center;verticalAlign=middle;whiteSpace=wrap;rounded=0;fontSize=18;" parent="akDgEPqX-OIN3_G8ha6D-21" vertex="1">
          <mxGeometry x="300" y="10" width="200" height="30" as="geometry" />
        </mxCell>
        <mxCell id="eqRwKFDd9RT_8FkfRF2U-1" value="Settings" style="locked=1;" parent="0" visible="0" />
        <mxCell id="eqRwKFDd9RT_8FkfRF2U-3" value="GLOBAL SETTINGS" style="shape=table;startSize=30;container=1;collapsible=0;childLayout=tableLayout;strokeColor=default;fontSize=12;" parent="eqRwKFDd9RT_8FkfRF2U-1" vertex="1">
          <mxGeometry x="40" y="422.5" width="200" height="130" as="geometry" />
        </mxCell>
        <mxCell id="eqRwKFDd9RT_8FkfRF2U-4" value="" style="shape=tableRow;horizontal=0;startSize=0;swimlaneHead=0;swimlaneBody=0;strokeColor=inherit;top=0;left=0;bottom=0;right=0;collapsible=0;dropTarget=0;fillColor=none;points=[[0,0.5],[1,0.5]];portConstraint=eastwest;fontSize=16;" parent="eqRwKFDd9RT_8FkfRF2U-3" vertex="1">
          <mxGeometry y="30" width="200" height="25" as="geometry" />
        </mxCell>
        <mxCell id="eqRwKFDd9RT_8FkfRF2U-5" value="&lt;span style=&quot;font-size: 12px;&quot;&gt;Local Control&lt;/span&gt;" style="shape=partialRectangle;html=1;whiteSpace=wrap;connectable=0;strokeColor=inherit;overflow=hidden;fillColor=none;top=0;left=0;bottom=0;right=0;pointerEvents=1;fontSize=16;align=left;spacingLeft=6;" parent="eqRwKFDd9RT_8FkfRF2U-4" vertex="1">
          <mxGeometry width="129" height="25" as="geometry">
            <mxRectangle width="129" height="25" as="alternateBounds" />
          </mxGeometry>
        </mxCell>
        <mxCell id="eqRwKFDd9RT_8FkfRF2U-6" value="&lt;font style=&quot;font-size: 12px;&quot;&gt;OFF&lt;/font&gt;" style="shape=partialRectangle;html=1;whiteSpace=wrap;connectable=0;strokeColor=inherit;overflow=hidden;fillColor=none;top=0;left=0;bottom=0;right=0;pointerEvents=1;fontSize=16;" parent="eqRwKFDd9RT_8FkfRF2U-4" vertex="1">
          <mxGeometry x="129" width="71" height="25" as="geometry">
            <mxRectangle width="71" height="25" as="alternateBounds" />
          </mxGeometry>
        </mxCell>
        <mxCell id="eqRwKFDd9RT_8FkfRF2U-8" value="" style="shape=tableRow;horizontal=0;startSize=0;swimlaneHead=0;swimlaneBody=0;strokeColor=inherit;top=0;left=0;bottom=0;right=0;collapsible=0;dropTarget=0;fillColor=none;points=[[0,0.5],[1,0.5]];portConstraint=eastwest;fontSize=16;" parent="eqRwKFDd9RT_8FkfRF2U-3" vertex="1">
          <mxGeometry y="55" width="200" height="25" as="geometry" />
        </mxCell>
        <mxCell id="eqRwKFDd9RT_8FkfRF2U-9" value="&lt;span style=&quot;font-size: 12px;&quot;&gt;Common Channel&lt;/span&gt;" style="shape=partialRectangle;html=1;whiteSpace=wrap;connectable=0;strokeColor=inherit;overflow=hidden;fillColor=none;top=0;left=0;bottom=0;right=0;pointerEvents=1;fontSize=16;align=left;spacingLeft=6;" parent="eqRwKFDd9RT_8FkfRF2U-8" vertex="1">
          <mxGeometry width="129" height="25" as="geometry">
            <mxRectangle width="129" height="25" as="alternateBounds" />
          </mxGeometry>
        </mxCell>
        <mxCell id="eqRwKFDd9RT_8FkfRF2U-10" value="&lt;font style=&quot;font-size: 12px;&quot;&gt;1&lt;/font&gt;" style="shape=partialRectangle;html=1;whiteSpace=wrap;connectable=0;strokeColor=inherit;overflow=hidden;fillColor=none;top=0;left=0;bottom=0;right=0;pointerEvents=1;fontSize=16;" parent="eqRwKFDd9RT_8FkfRF2U-8" vertex="1">
          <mxGeometry x="129" width="71" height="25" as="geometry">
            <mxRectangle width="71" height="25" as="alternateBounds" />
          </mxGeometry>
        </mxCell>
        <mxCell id="eqRwKFDd9RT_8FkfRF2U-41" style="shape=tableRow;horizontal=0;startSize=0;swimlaneHead=0;swimlaneBody=0;strokeColor=inherit;top=0;left=0;bottom=0;right=0;collapsible=0;dropTarget=0;fillColor=none;points=[[0,0.5],[1,0.5]];portConstraint=eastwest;fontSize=16;" parent="eqRwKFDd9RT_8FkfRF2U-3" vertex="1">
          <mxGeometry y="80" width="200" height="25" as="geometry" />
        </mxCell>
        <mxCell id="eqRwKFDd9RT_8FkfRF2U-42" value="Program Ch" style="shape=partialRectangle;html=1;whiteSpace=wrap;connectable=0;strokeColor=inherit;overflow=hidden;fillColor=none;top=0;left=0;bottom=0;right=0;pointerEvents=1;fontSize=12;align=left;spacingLeft=6;" parent="eqRwKFDd9RT_8FkfRF2U-41" vertex="1">
          <mxGeometry width="129" height="25" as="geometry">
            <mxRectangle width="129" height="25" as="alternateBounds" />
          </mxGeometry>
        </mxCell>
        <mxCell id="eqRwKFDd9RT_8FkfRF2U-43" value="OFF" style="shape=partialRectangle;html=1;whiteSpace=wrap;connectable=0;strokeColor=inherit;overflow=hidden;fillColor=none;top=0;left=0;bottom=0;right=0;pointerEvents=1;fontSize=12;" parent="eqRwKFDd9RT_8FkfRF2U-41" vertex="1">
          <mxGeometry x="129" width="71" height="25" as="geometry">
            <mxRectangle width="71" height="25" as="alternateBounds" />
          </mxGeometry>
        </mxCell>
        <mxCell id="eqRwKFDd9RT_8FkfRF2U-37" style="shape=tableRow;horizontal=0;startSize=0;swimlaneHead=0;swimlaneBody=0;strokeColor=inherit;top=0;left=0;bottom=0;right=0;collapsible=0;dropTarget=0;fillColor=none;points=[[0,0.5],[1,0.5]];portConstraint=eastwest;fontSize=16;" parent="eqRwKFDd9RT_8FkfRF2U-3" vertex="1">
          <mxGeometry y="105" width="200" height="25" as="geometry" />
        </mxCell>
        <mxCell id="eqRwKFDd9RT_8FkfRF2U-38" value="&lt;font style=&quot;font-size: 12px;&quot;&gt;Control Change&lt;/font&gt;" style="shape=partialRectangle;html=1;whiteSpace=wrap;connectable=0;strokeColor=inherit;overflow=hidden;fillColor=none;top=0;left=0;bottom=0;right=0;pointerEvents=1;fontSize=16;align=left;spacingLeft=6;" parent="eqRwKFDd9RT_8FkfRF2U-37" vertex="1">
          <mxGeometry width="129" height="25" as="geometry">
            <mxRectangle width="129" height="25" as="alternateBounds" />
          </mxGeometry>
        </mxCell>
        <mxCell id="eqRwKFDd9RT_8FkfRF2U-39" value="&lt;font style=&quot;font-size: 12px;&quot;&gt;Send/Rec&lt;/font&gt;" style="shape=partialRectangle;html=1;whiteSpace=wrap;connectable=0;strokeColor=inherit;overflow=hidden;fillColor=none;top=0;left=0;bottom=0;right=0;pointerEvents=1;fontSize=16;" parent="eqRwKFDd9RT_8FkfRF2U-37" vertex="1">
          <mxGeometry x="129" width="71" height="25" as="geometry">
            <mxRectangle width="71" height="25" as="alternateBounds" />
          </mxGeometry>
        </mxCell>
        <mxCell id="eqRwKFDd9RT_8FkfRF2U-29" value="" style="shape=tableRow;horizontal=0;startSize=0;swimlaneHead=0;swimlaneBody=0;strokeColor=inherit;top=0;left=0;bottom=0;right=0;collapsible=0;dropTarget=0;fillColor=none;points=[[0,0.5],[1,0.5]];portConstraint=eastwest;fontSize=16;" parent="eqRwKFDd9RT_8FkfRF2U-1" vertex="1">
          <mxGeometry x="50" y="450" width="220" height="25" as="geometry" />
        </mxCell>
        <mxCell id="eqRwKFDd9RT_8FkfRF2U-32" value="" style="shape=partialRectangle;html=1;whiteSpace=wrap;connectable=0;strokeColor=inherit;overflow=hidden;fillColor=none;top=0;left=0;bottom=0;right=0;pointerEvents=1;fontSize=12;" parent="eqRwKFDd9RT_8FkfRF2U-29" vertex="1">
          <mxGeometry x="170" width="50" height="25" as="geometry">
            <mxRectangle width="50" height="25" as="alternateBounds" />
          </mxGeometry>
        </mxCell>
        <mxCell id="eqRwKFDd9RT_8FkfRF2U-33" value="" style="shape=tableRow;horizontal=0;startSize=0;swimlaneHead=0;swimlaneBody=0;strokeColor=inherit;top=0;left=0;bottom=0;right=0;collapsible=0;dropTarget=0;fillColor=none;points=[[0,0.5],[1,0.5]];portConstraint=eastwest;fontSize=16;" parent="eqRwKFDd9RT_8FkfRF2U-1" vertex="1">
          <mxGeometry x="50" y="475" width="220" height="25" as="geometry" />
        </mxCell>
        <mxCell id="eqRwKFDd9RT_8FkfRF2U-36" value="" style="shape=partialRectangle;html=1;whiteSpace=wrap;connectable=0;strokeColor=inherit;overflow=hidden;fillColor=none;top=0;left=0;bottom=0;right=0;pointerEvents=1;fontSize=16;" parent="eqRwKFDd9RT_8FkfRF2U-33" vertex="1">
          <mxGeometry x="170" width="50" height="25" as="geometry">
            <mxRectangle width="50" height="25" as="alternateBounds" />
          </mxGeometry>
        </mxCell>
        <mxCell id="eqRwKFDd9RT_8FkfRF2U-45" value="ZONE" style="shape=table;startSize=30;container=1;collapsible=0;childLayout=tableLayout;strokeColor=default;fontSize=12;" parent="eqRwKFDd9RT_8FkfRF2U-1" vertex="1">
          <mxGeometry x="510" y="422.5" width="200" height="130" as="geometry" />
        </mxCell>
        <mxCell id="eqRwKFDd9RT_8FkfRF2U-46" value="" style="shape=tableRow;horizontal=0;startSize=0;swimlaneHead=0;swimlaneBody=0;strokeColor=inherit;top=0;left=0;bottom=0;right=0;collapsible=0;dropTarget=0;fillColor=none;points=[[0,0.5],[1,0.5]];portConstraint=eastwest;fontSize=16;" parent="eqRwKFDd9RT_8FkfRF2U-45" vertex="1">
          <mxGeometry y="30" width="200" height="25" as="geometry" />
        </mxCell>
        <mxCell id="eqRwKFDd9RT_8FkfRF2U-47" value="&lt;span style=&quot;font-size: 12px;&quot;&gt;1&lt;/span&gt;" style="shape=partialRectangle;html=1;whiteSpace=wrap;connectable=0;strokeColor=inherit;overflow=hidden;fillColor=none;top=0;left=0;bottom=0;right=0;pointerEvents=1;fontSize=16;align=left;spacingLeft=6;" parent="eqRwKFDd9RT_8FkfRF2U-46" vertex="1">
          <mxGeometry width="30" height="25" as="geometry">
            <mxRectangle width="30" height="25" as="alternateBounds" />
          </mxGeometry>
        </mxCell>
        <mxCell id="eqRwKFDd9RT_8FkfRF2U-48" value="&lt;font style=&quot;font-size: 12px;&quot;&gt;MIDI USB&lt;/font&gt;" style="shape=partialRectangle;html=1;whiteSpace=wrap;connectable=0;strokeColor=inherit;overflow=hidden;fillColor=none;top=0;left=0;bottom=0;right=0;pointerEvents=1;fontSize=16;" parent="eqRwKFDd9RT_8FkfRF2U-46" vertex="1">
          <mxGeometry x="30" width="170" height="25" as="geometry">
            <mxRectangle width="170" height="25" as="alternateBounds" />
          </mxGeometry>
        </mxCell>
        <mxCell id="eqRwKFDd9RT_8FkfRF2U-49" value="" style="shape=tableRow;horizontal=0;startSize=0;swimlaneHead=0;swimlaneBody=0;strokeColor=inherit;top=0;left=0;bottom=0;right=0;collapsible=0;dropTarget=0;fillColor=none;points=[[0,0.5],[1,0.5]];portConstraint=eastwest;fontSize=16;" parent="eqRwKFDd9RT_8FkfRF2U-45" vertex="1">
          <mxGeometry y="55" width="200" height="25" as="geometry" />
        </mxCell>
        <mxCell id="eqRwKFDd9RT_8FkfRF2U-50" value="&lt;span style=&quot;font-size: 12px;&quot;&gt;2&lt;/span&gt;" style="shape=partialRectangle;html=1;whiteSpace=wrap;connectable=0;strokeColor=inherit;overflow=hidden;fillColor=none;top=0;left=0;bottom=0;right=0;pointerEvents=1;fontSize=16;align=left;spacingLeft=6;" parent="eqRwKFDd9RT_8FkfRF2U-49" vertex="1">
          <mxGeometry width="30" height="25" as="geometry">
            <mxRectangle width="30" height="25" as="alternateBounds" />
          </mxGeometry>
        </mxCell>
        <mxCell id="eqRwKFDd9RT_8FkfRF2U-51" value="&lt;span style=&quot;font-size: 12px;&quot;&gt;Backup sound 1&lt;/span&gt;" style="shape=partialRectangle;html=1;whiteSpace=wrap;connectable=0;strokeColor=inherit;overflow=hidden;fillColor=none;top=0;left=0;bottom=0;right=0;pointerEvents=1;fontSize=16;" parent="eqRwKFDd9RT_8FkfRF2U-49" vertex="1">
          <mxGeometry x="30" width="170" height="25" as="geometry">
            <mxRectangle width="170" height="25" as="alternateBounds" />
          </mxGeometry>
        </mxCell>
        <mxCell id="eqRwKFDd9RT_8FkfRF2U-52" style="shape=tableRow;horizontal=0;startSize=0;swimlaneHead=0;swimlaneBody=0;strokeColor=inherit;top=0;left=0;bottom=0;right=0;collapsible=0;dropTarget=0;fillColor=none;points=[[0,0.5],[1,0.5]];portConstraint=eastwest;fontSize=16;" parent="eqRwKFDd9RT_8FkfRF2U-45" vertex="1">
          <mxGeometry y="80" width="200" height="25" as="geometry" />
        </mxCell>
        <mxCell id="eqRwKFDd9RT_8FkfRF2U-53" value="3" style="shape=partialRectangle;html=1;whiteSpace=wrap;connectable=0;strokeColor=inherit;overflow=hidden;fillColor=none;top=0;left=0;bottom=0;right=0;pointerEvents=1;fontSize=12;align=left;spacingLeft=6;" parent="eqRwKFDd9RT_8FkfRF2U-52" vertex="1">
          <mxGeometry width="30" height="25" as="geometry">
            <mxRectangle width="30" height="25" as="alternateBounds" />
          </mxGeometry>
        </mxCell>
        <mxCell id="eqRwKFDd9RT_8FkfRF2U-54" value="Backup sound 2" style="shape=partialRectangle;html=1;whiteSpace=wrap;connectable=0;strokeColor=inherit;overflow=hidden;fillColor=none;top=0;left=0;bottom=0;right=0;pointerEvents=1;fontSize=12;" parent="eqRwKFDd9RT_8FkfRF2U-52" vertex="1">
          <mxGeometry x="30" width="170" height="25" as="geometry">
            <mxRectangle width="170" height="25" as="alternateBounds" />
          </mxGeometry>
        </mxCell>
        <mxCell id="eqRwKFDd9RT_8FkfRF2U-55" style="shape=tableRow;horizontal=0;startSize=0;swimlaneHead=0;swimlaneBody=0;strokeColor=inherit;top=0;left=0;bottom=0;right=0;collapsible=0;dropTarget=0;fillColor=none;points=[[0,0.5],[1,0.5]];portConstraint=eastwest;fontSize=16;" parent="eqRwKFDd9RT_8FkfRF2U-45" vertex="1">
          <mxGeometry y="105" width="200" height="25" as="geometry" />
        </mxCell>
        <mxCell id="eqRwKFDd9RT_8FkfRF2U-56" value="&lt;font style=&quot;font-size: 12px;&quot;&gt;4&lt;/font&gt;" style="shape=partialRectangle;html=1;whiteSpace=wrap;connectable=0;strokeColor=inherit;overflow=hidden;fillColor=none;top=0;left=0;bottom=0;right=0;pointerEvents=1;fontSize=16;align=left;spacingLeft=6;" parent="eqRwKFDd9RT_8FkfRF2U-55" vertex="1">
          <mxGeometry width="30" height="25" as="geometry">
            <mxRectangle width="30" height="25" as="alternateBounds" />
          </mxGeometry>
        </mxCell>
        <mxCell id="eqRwKFDd9RT_8FkfRF2U-57" value="&lt;span style=&quot;font-size: 12px;&quot;&gt;Backup sound 3&lt;/span&gt;" style="shape=partialRectangle;html=1;whiteSpace=wrap;connectable=0;strokeColor=inherit;overflow=hidden;fillColor=none;top=0;left=0;bottom=0;right=0;pointerEvents=1;fontSize=16;" parent="eqRwKFDd9RT_8FkfRF2U-55" vertex="1">
          <mxGeometry x="30" width="170" height="25" as="geometry">
            <mxRectangle width="170" height="25" as="alternateBounds" />
          </mxGeometry>
        </mxCell>
      </root>
    </mxGraphModel>
  </diagram>
</mxfile>
